<?xml version="1.0" standalone="no"?>
<!DOCTYPE svg PUBLIC "-//W3C//DTD SVG 1.1//EN" "http://www.w3.org/Graphics/SVG/1.1/DTD/svg11.dtd" >
<svg xmlns="http://www.w3.org/2000/svg" xmlns:xlink="http://www.w3.org/1999/xlink" version="1.1">
<metadata>
Created by FontForge 20170731 at Fri Jan  1 02:30:17 1904
 By Aleksey,,,
Converted by ALLTYPE
</metadata>
<defs>
<font id="LucidaHandwrit" horiz-adv-x="500" >
  <font-face 
    font-family="Lucida Handwrit"
    font-weight="5"
    font-stretch="normal"
    units-per-em="1000"
    panose-1="0 0 0 0 0 0 0 0 0 0"
    ascent="800"
    descent="-200"
    x-height="525"
    cap-height="754"
    bbox="-164 -325 1339 957"
    underline-thickness="50"
    underline-position="-155"
    unicode-range="U+0020-F002"
  />
<missing-glyph 
d="M62 0v722h375v-722h-375v0zM125 62h250v598h-250v-598v0z" />
    <glyph glyph-name=".notdef" 
d="M62 0v722h375v-722h-375v0zM125 62h250v598h-250v-598v0z" />
    <glyph glyph-name="glyph1" horiz-adv-x="0" 
 />
    <glyph glyph-name="glyph2" horiz-adv-x="337" 
 />
    <glyph glyph-name="space" unicode=" " horiz-adv-x="337" 
 />
    <glyph glyph-name="space" unicode="&#xa0;" horiz-adv-x="337" 
 />
    <glyph glyph-name="exclam" unicode="!" horiz-adv-x="383" 
d="M226 117l35 7q17 2 30 3.5t21 1.5q21 0 31.5 -11t10.5 -33q0 -9 -1 -20t-3 -23l-7 -32l-22 -4q-24 -5 -38 -6t-19 -1q-18 0 -26.5 8t-8.5 26q0 5 0.5 9.5t1.5 9.5l2 13q1 4 1.5 8.5t0.5 8.5q0 10 -2 18.5t-7 15.5v1zM356 196q-4 -2 -10 -3t-15 -3q-2 -1 -4 -1.5t-4 -0.5
h-5h-4q-21 0 -31 10t-10 29q0 11 2.5 27t6.5 37l9 51q18 88 27 170t9 157q0 8 -1 16.5t-3 18.5q22 8 36.5 12.5t21.5 4.5q24 0 36 -13t12 -39q0 -22 -9.5 -74t-28.5 -133q-9 -37 -15.5 -67.5t-11.5 -53.5l-7 -33q-4 -20 -5.5 -37t-1.5 -34q0 -10 1.5 -20.5t4.5 -21.5v1z" />
    <glyph glyph-name="quotedbl" unicode="&#x22;" horiz-adv-x="405" 
d="M288 599h-16q-14 -1 -24 2t-15 9q-5 7 -7.5 19t-2.5 30l-1 28q0 53 -6.5 91t-19.5 60l12 1l14 1q38 -1 57.5 -12t19.5 -32q0 -7 -2 -22.5t-5 -40.5l-4 -42q-4 -25 -5.5 -42t-1.5 -27q0 -6 1.5 -12t5.5 -12v1zM458 599h-15q-15 -1 -24.5 2t-14.5 10q-5 6 -7.5 18t-2.5 30
l-1 28q0 53 -6.5 91t-19.5 60l12 1l14 1q38 -1 57.5 -12t19.5 -32q0 -6 -2 -21.5t-5 -41.5l-5 -42q-3 -28 -4.5 -44t-1.5 -22q0 -7 1.5 -14t4.5 -13v1z" />
    <glyph glyph-name="numbersign" unicode="#" horiz-adv-x="674" 
d="M294 216l-7 -14q-23 -42 -34.5 -76.5t-11.5 -62.5q0 -6 1 -12.5t3 -14.5q-11 -4 -21.5 -5.5t-21.5 -1.5q-18 0 -27 7t-9 22q0 8 5 25t15 43t19 45.5t16 31.5l8 13h-16q-37 -1 -69 -9t-61 -24q7 29 16 47.5t20 27.5q12 9 33 13.5t51 4.5l38 1h15l76 162h-14
q-52 -1 -91.5 -8.5t-66.5 -21.5q2 8 4.5 14t3.5 10q8 20 17 33t21 18q12 6 34.5 9t56.5 3l64 1l4 8q26 62 39.5 109t13.5 77q0 10 -1.5 20.5t-3.5 22.5q9 3 19 4.5t21 1.5q19 0 28.5 -12t9.5 -36q0 -27 -14 -71t-41 -106l-9 -18h122l10 19q2 1 5.5 10t9.5 25q16 38 31 62
t28 36q14 12 34.5 18t46.5 6q5 0 11 -0.5t12 -2.5q-24 -18 -52.5 -61.5t-63.5 -112.5l11 1q29 -1 56.5 4.5t52.5 16.5q-3 -22 -11.5 -38t-23.5 -24q-14 -9 -39.5 -13.5t-60.5 -4.5l-13 1l-35 -79q-2 -5 -11 -25.5t-25 -58.5l14 1q44 -1 79 10t60 33q-1 -28 -11.5 -48
t-29.5 -32q-19 -13 -49 -19t-71 -6l-17 1q-15 -49 -22.5 -91t-7.5 -77q0 -13 2.5 -25t6.5 -23q-15 -8 -27.5 -13t-23.5 -5q-18 0 -27 15t-9 46q0 29 10.5 71.5t32.5 100.5l-138 1v0zM323 277h132q5 13 15 35t23 51q2 6 10 25t21 50l-125 1l-76 -162v0z" />
    <glyph glyph-name="dollar" unicode="$" horiz-adv-x="674" 
d="M386 3q-6 -30 -8.5 -55.5t-2.5 -44.5q0 -5 0.5 -13.5t1.5 -20.5q-28 3 -41.5 12.5t-13.5 26.5q0 9 2.5 27.5t8.5 46.5l4 18q-43 0 -79.5 8.5t-66.5 26.5q-31 18 -46 40.5t-15 47.5q0 18 14.5 39.5t42.5 46.5q14 -67 54.5 -105.5t107.5 -46.5l53 271l-39 29q-55 39 -83 78
t-28 77t15 70t44 59t70.5 46t93.5 29q2 14 2.5 28.5t0.5 30.5q0 9 -0.5 19.5t-1.5 22.5q3 0 5.5 0.5t3.5 1.5q8 1 12.5 1.5t6.5 0.5q17 0 26 -9.5t9 -28.5q0 -6 -2 -18l-5 -30q-1 -4 -2 -8.5t-2 -10.5q65 0 98 -15.5t33 -47.5q0 -13 -6.5 -29t-19.5 -35q-18 32 -46.5 51.5
t-68.5 25.5l-53 -265l30 -20q62 -43 93 -82t31 -76q0 -85 -58.5 -140t-174.5 -81v1zM397 59q68 13 102.5 45t34.5 84q0 20 -22.5 47.5t-67.5 61.5l-47 -238v0zM470 668q-29 -7 -52.5 -18.5t-41.5 -29.5q-17 -17 -25.5 -38.5t-8.5 -45.5q0 -23 20.5 -49.5t60.5 -56.5l47 238
v0z" />
    <glyph glyph-name="percent" unicode="%" horiz-adv-x="831" 
d="M221 -97q-28 13 -41.5 30.5t-13.5 40.5q0 28 51.5 102t154.5 192q119 137 199.5 226t123.5 131q-43 -21 -85 -31.5t-83 -10.5q-7 0 -18.5 1t-26.5 2v-4t1 -3v-3v-2q0 -46 -13.5 -84.5t-41.5 -69.5q-27 -31 -60.5 -47t-74.5 -16q-30 0 -55.5 9t-45.5 28q-19 19 -29.5 42.5
t-10.5 51.5q0 32 10.5 61.5t30.5 57.5q20 29 41 43t43 14q11 0 20.5 -6.5t16.5 -18.5q-20 -8 -37 -23t-30 -35t-19 -42.5t-6 -47.5q0 -19 6 -34t17 -27q12 -13 27 -19t32 -6q24 0 43.5 11t35.5 33q15 22 23 49.5t8 61.5q0 7 -1 15.5t-3 18.5q-36 14 -54 29.5t-18 31.5
q0 13 10.5 28.5t31.5 34.5q23 -37 64 -56t101 -19q68 0 126 19t104 56l11 10q14 10 23.5 15.5t16.5 5.5q9 0 18 -6.5t18 -19.5q-60 -51 -150.5 -150t-211.5 -246q-73 -89 -125 -156.5t-83 -114.5q-31 -46 -48.5 -84t-22.5 -69v0zM674 328q9 11 20 17t23 6q19 0 36.5 -12
t33.5 -36q16 -25 24 -50.5t8 -52.5q0 -40 -14 -75.5t-42 -65.5t-62 -44.5t-73 -14.5q-29 0 -53 9.5t-43 28.5q-19 20 -28.5 45.5t-9.5 56.5q0 38 12 69.5t36 56.5t57 40t75 21v1zM702 287q-3 -1 -6 -1t-6 1h-4h-4q-23 0 -43.5 -10.5t-39.5 -33.5q-18 -22 -27 -46.5t-9 -52.5
q0 -47 20 -70.5t60 -23.5q22 0 41 9t35 28t23.5 41.5t7.5 49.5q0 32 -12 59t-36 49v1z" />
    <glyph glyph-name="ampersand" unicode="&#x26;" horiz-adv-x="863" 
d="M649 125q-67 -73 -145 -108t-165 -35q-56 0 -101 13t-79 39q-33 27 -50 63t-17 82q0 89 58 152.5t175 102.5q-39 20 -58.5 51.5t-19.5 74.5q0 38 17.5 70.5t52.5 57.5q35 26 79 39t96 13q32 0 59 -5t49 -16q22 -10 33 -23t11 -28q0 -13 -7.5 -25.5t-22.5 -26.5
q-21 38 -54.5 56.5t-80.5 18.5q-31 0 -56.5 -8t-45.5 -25q-20 -16 -30 -37t-10 -47q0 -30 16 -57t49 -52q21 5 39.5 7.5t34.5 2.5q14 0 29 -2.5t31 -7.5q-14 -39 -39 -58.5t-60 -19.5q-15 0 -30 4t-32 11q-42 -15 -75.5 -37.5t-59.5 -52.5q-25 -30 -37.5 -61.5t-12.5 -66.5
q0 -31 13 -56t38 -45q26 -19 59.5 -29t74.5 -10q49 0 98.5 18t98.5 55q25 18 44 36.5t31 36.5q13 18 19 36.5t6 36.5q0 19 -10.5 33t-30.5 23l-13 6q-12 4 -17.5 11t-5.5 17q0 11 4.5 27t14.5 35q31 -14 76.5 -21t106.5 -7q32 0 64 4t64 11q-9 -26 -20 -44.5t-25 -28.5
q-13 -10 -34.5 -14.5t-50.5 -4.5h-14.5t-20.5 1q-30 -84 -44.5 -152t-14.5 -119q0 -39 7 -68.5t21 -51.5q-17 -15 -35.5 -23t-38.5 -8q-16 0 -23.5 12.5t-7.5 37.5q0 29 6 75t19 110v1z" />
    <glyph glyph-name="quotesingle" unicode="'" horiz-adv-x="259" 
d="M288 581q-9 -4 -16 -5.5t-13 -1.5q-19 0 -29 15.5t-12 46.5l-3 39q-4 56 -13.5 92t-26.5 52q18 10 38 15t42 5q27 0 40.5 -9t13.5 -26q0 -4 -2 -17t-7 -34l-6 -31q-9 -43 -13.5 -70.5t-4.5 -39.5q0 -9 3 -17t9 -15v1z" />
    <glyph glyph-name="parenleft" unicode="(" horiz-adv-x="648" 
d="M735 820q-90 -35 -165 -96t-136 -149t-91.5 -180.5t-30.5 -190.5q0 -61 16.5 -112.5t49.5 -91.5q32 -41 74.5 -63t94.5 -26q-27 -27 -54 -41t-55 -14q-43 0 -82 27t-73 81q-34 52 -50.5 114.5t-16.5 132.5q0 125 51 241t153 222q34 35 71.5 65.5t80.5 58.5t74 42t50 14
q12 0 22 -9t17 -26v1z" />
    <glyph glyph-name="parenright" unicode=")" horiz-adv-x="534" 
d="M47 -109q90 34 165.5 94t136.5 148q61 89 91 181t30 189q0 62 -16.5 113t-48.5 92q-33 41 -75.5 64t-94.5 27q26 27 53.5 41t55.5 14q44 0 82.5 -27t72.5 -81q34 -53 50.5 -115.5t16.5 -133.5q0 -126 -51 -241.5t-153 -221.5q-33 -33 -71 -63.5t-81 -58.5t-73.5 -42
t-50.5 -14q-12 0 -21.5 9t-17.5 26v0z" />
    <glyph glyph-name="asterisk" unicode="*" horiz-adv-x="484" 
d="M382 407q-36 -1 -54 11t-18 36q0 17 5 49.5t15 80.5q-40 -29 -64 -54.5t-32 -46.5q-19 11 -28.5 23.5t-9.5 25.5q0 12 32 36t96 58q-57 29 -85.5 53.5t-28.5 44.5q0 14 8 25.5t24 21.5q14 -28 40 -55.5t63 -56.5l4 75q0 30 4.5 50.5t14.5 31.5q11 11 30 17.5t48 8.5
q-18 -42 -33 -87.5t-27 -95.5q49 31 82 46.5t50 15.5q14 0 22.5 -15.5t11.5 -46.5q-6 4 -12.5 6t-13.5 2q-25 0 -58.5 -12.5t-77.5 -38.5q28 -16 52.5 -34.5t43.5 -38.5q20 -19 30 -35t10 -27q0 -12 -12.5 -19.5t-36.5 -10.5q-13 32 -39 67t-65 72q-2 -18 -3 -36t-1 -37
q0 -31 3 -58.5t10 -52.5v1z" />
    <glyph glyph-name="plus" unicode="+" horiz-adv-x="674" 
d="M116 222q8 37 19 60t24 30q13 8 48 11.5t92 3.5l66 1l10 52q6 28 9 53.5t3 48.5q0 22 -7.5 39t-21.5 30q8 1 14.5 1.5t10.5 0.5q41 0 62 -15.5t21 -45.5q0 -13 -5 -42t-14 -76l-10 -46h47q72 -1 119.5 7t69.5 24q-5 -36 -15.5 -58t-25.5 -30q-16 -8 -54.5 -12.5
t-100.5 -4.5l-54 1l-6 -29q-7 -40 -11 -71.5t-4 -55.5q0 -19 4.5 -35.5t13.5 -30.5l-6 -1.5t-4 -0.5q-13 -3 -23.5 -4t-16.5 -1q-27 0 -40.5 11.5t-13.5 33.5q0 8 3 25.5t9 44.5q4 20 6.5 33t3.5 19l13 62h-56q-58 -1 -102.5 -9t-76.5 -25v1z" />
    <glyph glyph-name="comma" unicode="," horiz-adv-x="348" 
d="M94 -102q8 -2 14.5 -2.5t12.5 -0.5q17 0 31.5 7.5t27.5 22.5q12 14 18 32t6 39q0 29 -15 54t-45 46q26 17 48.5 26t43.5 9q34 0 51 -19.5t17 -58.5q0 -37 -13.5 -72t-40.5 -68t-56 -49.5t-59 -16.5q-17 0 -27.5 12.5t-13.5 38.5v0z" />
    <glyph glyph-name="hyphen" unicode="-" horiz-adv-x="480" 
d="M243 253q14 42 36 63.5t53 21.5q6 0 12 -0.5t12 -1.5l54 -4q8 -2 15.5 -2.5t14.5 -0.5q20 0 33.5 5.5t22.5 16.5q-7 -48 -24.5 -72t-43.5 -24q-6 0 -14 0.5t-17 1.5l-36 6q-19 1 -33.5 2.5t-25.5 1.5q-15 0 -30 -3.5t-29 -11.5v1z" />
    <glyph glyph-name="period" unicode="." horiz-adv-x="328" 
d="M155 117l35 7q18 2 31 3.5t21 1.5q21 0 31.5 -11t10.5 -33q0 -9 -1.5 -20t-3.5 -23l-6 -32l-23 -4q-24 -5 -38 -6t-19 -1q-17 0 -25.5 8t-8.5 26q0 5 0.5 9.5t1.5 9.5l2 13q1 4 1.5 8.5t0.5 8.5q0 10 -2.5 18.5t-7.5 15.5v1z" />
    <glyph glyph-name="slash" unicode="/" horiz-adv-x="456" 
d="M151 -144q-39 13 -58 31t-19 39q0 37 44 141.5t132 276.5l47 94q70 136 118.5 223t76.5 122t60.5 53t69.5 18q8 0 16.5 -1t18.5 -3q-73 -61 -159 -193t-184 -335l-21 -43q-72 -149 -107.5 -248.5t-35.5 -152.5v-10t1 -12v0z" />
    <glyph glyph-name="zero" unicode="0" horiz-adv-x="674" 
d="M317 -18q-47 0 -85 17t-67 53q-28 36 -42.5 84.5t-14.5 109.5q0 100 28.5 186.5t84.5 159.5q56 74 123 110.5t144 36.5q50 0 90 -18t68 -54q29 -35 43 -84.5t14 -112.5q0 -100 -28.5 -186t-85.5 -159q-57 -72 -125 -107.5t-147 -35.5v0zM357 36q48 -1 89.5 30t77.5 93
q37 62 55 133.5t18 153.5q0 119 -36.5 178.5t-110.5 59.5q-47 0 -88.5 -30.5t-76.5 -92.5q-36 -61 -53.5 -133t-17.5 -155q0 -119 35.5 -178.5t107.5 -59.5v1z" />
    <glyph glyph-name="one" unicode="1" horiz-adv-x="674" 
d="M541 741l-129 -667q26 2 46.5 4t34.5 2q32 0 54 -5t32 -15q11 -10 16.5 -29.5t5.5 -47.5q-13 9 -30.5 13t-39.5 4q-25 0 -54 -2t-63 -6l-71 -9q-16 -2 -38.5 -5.5t-51.5 -7.5q-10 -2 -19 -2.5t-18 -0.5q-27 0 -42 22.5t-20 67.5q12 -7 25 -10t26 -3q26 0 52.5 3t53.5 10
l108 545q-40 -21 -72.5 -31t-55.5 -10q-35 0 -52.5 22.5t-17.5 68.5v15q14 -14 31.5 -20.5t36.5 -6.5q32 0 86.5 21t130.5 63q3 2 12 5.5t23 10.5v1z" />
    <glyph glyph-name="two" unicode="2" horiz-adv-x="674" 
d="M644 -13q-37 16 -88 24t-115 8q-52 0 -104 -4t-104 -12l-29 -3q-21 -2 -34.5 -3.5t-19.5 -1.5q-18 0 -26.5 9.5t-8.5 30.5q0 7 1 17t2 23q83 54 154 118t131 137q59 74 89 134t30 108q0 47 -26 71t-79 24q-59 0 -111 -33.5t-97 -101.5q-3 14 -4.5 25.5t-1.5 20.5
q0 29 20 56.5t60 53.5t82.5 38.5t87.5 12.5q40 0 71.5 -9t56.5 -29q24 -19 36 -43.5t12 -55.5q0 -91 -99.5 -219t-298.5 -293q83 11 152 17t124 6q41 0 67 -6t39 -17q12 -11 20 -37t11 -66v0z" />
    <glyph glyph-name="three" unicode="3" horiz-adv-x="674" 
d="M250 349q15 35 37.5 53t52.5 18q11 0 23.5 -1.5t27.5 -4.5q75 23 112.5 64.5t37.5 100.5q0 23 -8 41.5t-25 32.5q-16 14 -37.5 21.5t-47.5 7.5q-39 0 -72.5 -17t-60.5 -50l-1 20q0 24 11 43.5t33 33.5q23 14 54 20.5t71 6.5q41 0 73.5 -9.5t57.5 -29.5q25 -19 37 -45
t12 -59q0 -62 -42 -112.5t-125 -89.5q74 -21 111.5 -64.5t37.5 -111.5q0 -51 -20.5 -93t-61.5 -77q-41 -34 -92 -50t-113 -16q-94 0 -140.5 24.5t-46.5 73.5q0 5 1 13.5t2 20.5q36 -37 82.5 -55.5t102.5 -18.5q40 0 73 12t60 36q27 23 40.5 52.5t13.5 63.5q0 27 -8 47.5
t-24 35.5q-16 14 -43.5 26t-66.5 22q-15 -4 -28.5 -6t-26.5 -2q-21 0 -39.5 5.5t-34.5 15.5v1z" />
    <glyph glyph-name="four" unicode="4" horiz-adv-x="674" 
d="M519 263l-16 -76q-9 -44 -13 -76.5t-4 -54.5q0 -18 3 -32t10 -24q-18 -9 -34.5 -13.5t-30.5 -4.5q-22 0 -33.5 14t-11.5 43q0 13 4.5 43t13.5 76l21 105q-37 -4 -80 -9t-91 -13l-26 -3q-34 -5 -54.5 -7.5t-26.5 -2.5q-18 0 -27 6t-9 19q0 10 1.5 24t4.5 33
q74 101 126 209t81 223q23 6 41 9t31 3q12 0 18 -4.5t6 -12.5q0 -17 -18 -58.5t-56 -107.5q-37 -66 -78.5 -131.5t-86.5 -129.5q71 13 136 22t125 14l37 189q2 11 4 19l3 12q3 16 5 28.5t2 21.5q0 10 -1 19t-3 16q14 5 26.5 7.5t23.5 2.5q23 0 34 -11t11 -32q0 -9 -3.5 -30
t-10.5 -53q-4 -19 -6.5 -31.5l-3.5 -17.5l-28 -139q11 0 20.5 0.5t18.5 0.5q39 0 64 -5.5t37 -17.5q11 -11 18.5 -37t11.5 -67q-30 17 -76.5 27t-109.5 14v1z" />
    <glyph glyph-name="five" unicode="5" horiz-adv-x="674" 
d="M238 393l72 343q33 -8 68 -11.5t71 -3.5q62 0 116 7.5t100 22.5q-9 -30 -23 -51.5t-34 -34.5q-19 -13 -49 -19t-69 -6q-37 0 -69.5 2t-61.5 6l-47 -168q21 2 38 4t30 2q55 0 99.5 -16.5t78.5 -49.5q35 -33 52 -75.5t17 -95.5q0 -57 -20.5 -105t-61.5 -86
q-40 -39 -91 -57.5t-113 -18.5q-91 0 -136 25t-45 76q0 5 0.5 13t1.5 18q38 -37 84 -55.5t100 -18.5q38 0 71.5 15t60.5 43q28 29 41.5 64t13.5 75q0 38 -12.5 68.5t-38.5 52.5q-25 22 -60 33t-79 11q-28 0 -54 -2.5t-51 -7.5v1z" />
    <glyph glyph-name="six" unicode="6" horiz-adv-x="674" 
d="M254 354q34 49 81 74t108 25q43 0 78 -14t63 -42t42 -63t14 -78q0 -55 -20 -103.5t-60 -89.5t-87 -61t-101 -20q-50 0 -91 17.5t-73 54.5q-31 38 -47 86t-16 108q0 105 25.5 193t77.5 158q52 71 116.5 105.5t141.5 34.5q34 0 60.5 -5t46.5 -16t30 -25.5t10 -31.5
q0 -6 -1.5 -15l-3.5 -21q-31 24 -67 36t-77 12q-45 0 -85 -22t-75 -67q-34 -44 -56.5 -102t-33.5 -129v1zM240 257q0 -56 8.5 -96t24.5 -65q21 -34 48.5 -50.5t61.5 -16.5q32 0 60.5 16.5t52.5 49.5q25 33 37 72t12 82q0 29 -8.5 53t-25.5 42q-16 19 -38.5 28t-49.5 9
q-61 0 -107 -31.5t-76 -93.5v1z" />
    <glyph glyph-name="seven" unicode="7" horiz-adv-x="674" 
d="M699 722l-18 -93q-79 -69 -143 -145.5t-114 -162.5q-49 -86 -74 -162t-25 -142q0 -14 1.5 -30t5.5 -34q-7 -2 -14 -3t-13 -1q-48 0 -72 16.5t-24 48.5q0 26 12 66.5t36 95.5q23 56 49.5 104t55.5 88q58 83 118 147.5t122 112.5l-179 1l-28 -1q-53 -1 -88.5 1.5t-52.5 6.5
q-16 4 -24.5 13t-8.5 22q0 5 1 11t2 13q1 4 2.5 9.5t2.5 12.5l5 30q18 -13 45 -18.5t64 -5.5l32 1l67 -1l78 -1h179v0z" />
    <glyph glyph-name="eight" unicode="8" horiz-adv-x="674" 
d="M493 394l21 -16q60 -47 90.5 -93t30.5 -93q0 -46 -18.5 -84.5t-55.5 -67.5q-37 -30 -85 -44t-107 -14q-53 0 -96.5 12t-76.5 36t-49.5 56.5t-16.5 72.5q0 66 50.5 126.5t150.5 115.5q-49 40 -73 80.5t-24 80.5t15 71.5t46 56.5t70.5 37t88.5 12q44 0 80 -10.5t64 -30.5
q28 -21 42 -48t14 -60q0 -64 -40.5 -113.5t-120.5 -83.5v1zM368 369q-70 -42 -105 -92t-35 -109q0 -28 12 -52.5t36 -45.5q25 -20 53.5 -30.5t60.5 -10.5q31 0 57 10.5t48 30.5q21 21 32 46t11 54q0 39 -35 83t-105 93l-30 23v0zM453 426q53 25 79.5 63t26.5 88
q0 25 -8.5 45.5t-25.5 36.5q-17 17 -39 24.5t-48 7.5q-22 0 -41.5 -7.5t-35.5 -22.5t-23.5 -33t-7.5 -40q0 -31 24 -66t72 -75l27 -21v0z" />
    <glyph glyph-name="nine" unicode="9" horiz-adv-x="674" 
d="M564 368q-34 -51 -81.5 -76t-107.5 -25q-42 0 -77 14t-64 42q-28 28 -42 63t-14 77q0 56 20.5 104.5t60.5 89.5t87 61.5t100 20.5q51 0 92 -18t73 -56q32 -37 47.5 -85t15.5 -108q0 -105 -26 -193t-77 -158q-52 -70 -117 -104.5t-142 -34.5q-34 0 -60.5 5.5t-46.5 14.5
q-20 11 -30 25t-10 33q0 6 1 14.5t4 20.5q31 -25 67 -37t77 -12q46 0 86 22.5t74 66.5q35 45 57.5 103t32.5 129v1zM578 465q0 54 -8 94t-25 65q-22 33 -49 50t-60 17q-32 0 -60.5 -16.5t-53.5 -49.5t-37 -71.5t-12 -82.5q0 -29 8.5 -53t25.5 -42q17 -19 39 -28t49 -9
q62 0 107.5 31t75.5 94v1z" />
    <glyph glyph-name="colon" unicode=":" horiz-adv-x="328" 
d="M155 117l35 7q18 2 31 3.5t21 1.5q21 0 31.5 -11t10.5 -33q0 -9 -1.5 -20t-3.5 -23l-6 -32l-23 -4q-24 -5 -38 -6t-19 -1q-17 0 -25.5 8t-8.5 26q0 5 0.5 9.5t1.5 9.5l2 13q1 4 1.5 8.5t0.5 8.5q0 10 -2.5 18.5t-7.5 15.5v1zM244 564l35 7q18 2 31.5 4t20.5 2
q21 0 31.5 -11t10.5 -34q0 -9 -1.5 -19.5t-3.5 -22.5l-6 -32l-23 -4q-24 -5 -37.5 -7.5t-18.5 -2.5q-18 0 -26.5 9t-8.5 27v4.5v5.5q0 2 0.5 4.5t1.5 4.5l2 14q1 3 1.5 7.5t0.5 9.5q0 10 -2.5 18t-7.5 15v1z" />
    <glyph glyph-name="semicolon" unicode=";" horiz-adv-x="348" 
d="M94 -102q8 -2 14.5 -2.5t12.5 -0.5q17 0 31.5 7.5t27.5 22.5q12 14 18 32t6 39q0 29 -15 54t-45 46q26 17 48.5 26t43.5 9q34 0 51 -19.5t17 -58.5q0 -37 -13.5 -72t-40.5 -68t-56 -49.5t-59 -16.5q-17 0 -27.5 12.5t-13.5 38.5v0zM227 564l34 7q18 2 31.5 4t20.5 2
q21 0 31.5 -11t10.5 -34q0 -9 -1 -19.5t-3 -22.5l-7 -32l-22 -4q-24 -5 -38 -7.5t-19 -2.5q-18 0 -26.5 9t-8.5 27v4.5v5.5q0 2 0.5 4.5t1.5 4.5l2 14q1 3 1.5 7.5t0.5 9.5q0 10 -2 18t-7 15v1z" />
    <glyph glyph-name="less" unicode="&#x3c;" horiz-adv-x="674" 
d="M263 284q90 -33 154.5 -62t102.5 -55q38 -25 57 -52t19 -56q0 -10 -2 -22t-7 -24q-45 51 -125 100.5t-194 95.5l-48 20q-29 11 -47 20t-26 14q-8 6 -16.5 17.5t-17.5 28.5q83 21 166 50.5t168 66.5q84 38 150 75t113 74q-3 -49 -19.5 -83.5t-48.5 -53.5t-72 -38.5
t-87 -38.5q-48 -20 -103 -39t-117 -39v1z" />
    <glyph glyph-name="equal" unicode="=" horiz-adv-x="674" 
d="M97 132q8 37 19 60t24 30q13 8 48 11.5t92 3.5l185 1q72 -1 119.5 7t69.5 24q-5 -36 -15.5 -58t-25.5 -30q-16 -8 -54.5 -12t-100.5 -4l-182 1q-58 -1 -103 -9.5t-76 -25.5v1zM158 304q7 32 16.5 54t22.5 32q12 11 34.5 16.5t54.5 5.5q8 0 19.5 -0.5t26.5 -1.5
q19 -1 31.5 -1.5t18.5 -0.5l60 1q83 -1 140 7.5t88 24.5q-9 -32 -22.5 -53.5t-32.5 -31.5q-18 -10 -51.5 -15t-83.5 -5l-105 1q-85 -1 -139 -9t-78 -25v1z" />
    <glyph glyph-name="greater" unicode="&#x3e;" horiz-adv-x="674" 
d="M538 292q-51 20 -100.5 44t-98.5 52q-32 18 -53.5 33.5t-32.5 28.5q-11 14 -17 30.5t-6 36.5q0 13 1 26t4 26q28 -34 75 -69t112 -73q65 -37 133 -66.5t139 -52.5q-13 -21 -43 -40.5t-76 -36.5l-53 -20q-7 -4 -26.5 -11t-49.5 -19q-106 -40 -191 -82.5t-149 -89.5
q5 47 23 81t50 55t121.5 57.5t237.5 88.5v1z" />
    <glyph glyph-name="question" unicode="?" horiz-adv-x="554" 
d="M279 117l35 7q18 2 31 3.5t21 1.5q21 0 31.5 -11t10.5 -34q0 -9 -1.5 -19.5t-3.5 -22.5l-7 -32l-22 -4q-24 -5 -38 -6t-19 -1q-18 0 -26.5 8t-8.5 26q0 5 0.5 9.5t1.5 9.5l3 13q1 4 1.5 8.5t0.5 9.5q0 9 -2.5 17.5t-7.5 15.5v1zM397 191q-9 -7 -19 -9.5t-22 -2.5
q-30 0 -45 13t-15 38q0 35 26.5 74.5t79.5 82.5l22 19q59 47 88.5 90.5t29.5 81.5q0 46 -25 69t-75 23q-51 0 -94.5 -30t-81.5 -89q-5 9 -7.5 19t-2.5 20q0 26 19 51.5t56 49.5q38 24 77.5 36t79.5 12q36 0 64.5 -9t48.5 -27t30 -43t10 -57q0 -46 -32 -93.5t-96 -97.5
l-18 -13q-55 -44 -82.5 -85t-27.5 -81q0 -5 1 -10.5t2 -10.5q2 -6 4 -11.5t5 -10.5v1z" />
    <glyph glyph-name="at" unicode="@" horiz-adv-x="930" 
d="M731 70q-4 -29 -10.5 -49t-16.5 -30q-13 -16 -35.5 -29.5t-55.5 -23.5q-34 -11 -68.5 -16.5t-70.5 -5.5q-82 0 -148 23t-116 67q-49 47 -74 108.5t-25 137.5q0 102 39.5 191.5t117.5 166.5q79 77 170 115.5t194 38.5q71 0 130.5 -22.5t108.5 -67.5q48 -45 72 -100.5
t24 -121.5q0 -56 -16.5 -104t-49.5 -87q-33 -40 -73 -59.5t-87 -19.5q-49 0 -73 32.5t-24 96.5q0 9 0.5 22t1.5 29q-67 -105 -127.5 -157.5t-113.5 -52.5q-45 0 -67.5 30t-22.5 90q0 61 18 113.5t53 95.5q36 44 79 65.5t93 21.5q31 0 63 -9.5t65 -27.5q9 12 25 18t40 6h5h6
q4 -1 8 -1h9q-31 -47 -46.5 -104.5t-15.5 -125.5q0 -37 13 -56t40 -19q29 0 54.5 15t47.5 46t33 66.5t11 75.5q0 56 -20 102t-61 83q-40 38 -91 56.5t-111 18.5q-91 0 -170.5 -33t-146.5 -100t-100 -146.5t-33 -171.5q0 -67 20.5 -121t60.5 -95q40 -40 92.5 -60.5
t117.5 -20.5t129 26.5t128 78.5v1zM664 470q-28 23 -56.5 35t-55.5 12q-31 0 -58.5 -16.5t-52.5 -49.5q-24 -33 -36 -70.5t-12 -80.5q0 -38 11.5 -57t34.5 -19q14 0 38 18.5t58 55.5t66 79.5t63 91.5v1z" />
    <glyph glyph-name="A" unicode="A" horiz-adv-x="761" 
d="M264 240l-10 -19q-31 -59 -46 -103t-15 -76q0 -9 3.5 -18t10.5 -18q-6 -2 -19.5 -6t-33.5 -11q-10 -3 -19 -5t-17 -2q-17 0 -25.5 8t-8.5 23q0 34 21 85.5t63 121.5l16 26h-25q-40 -1 -71 -7.5t-53 -18.5q11 41 42 62t81 21l61 -1l13 20q38 56 96.5 134t137.5 175
q27 33 47 53.5t33 28.5t38.5 15t63.5 14q-7 -44 -10.5 -84.5t-3.5 -78.5q0 -100 11.5 -202t34.5 -205q13 -57 32.5 -93t45.5 -53q-23 -22 -42.5 -33t-36.5 -11q-39 0 -68.5 65.5t-50.5 197.5q-20 -2 -40.5 -4t-40.5 -3q-21 -1 -41.5 -1.5t-40.5 -0.5l-133 4v0zM299 297
l99 -2q50 -1 89 0.5t66 5.5q-12 86 -17.5 156.5t-5.5 127.5l1 38q-8 -11 -26 -33.5t-47 -56.5q-51 -63 -88 -117t-60 -101l-11 -18v0z" />
    <glyph glyph-name="B" unicode="B" horiz-adv-x="753" 
d="M94 466q-6 13 -9 25.5t-3 24.5q0 42 34 80.5t102 72.5q68 35 142.5 52.5t155.5 17.5q46 0 82.5 -8.5t64.5 -25.5q28 -18 42 -40.5t14 -50.5q0 -52 -37 -101t-111 -95q43 -11 77 -29t58 -41q25 -24 37 -51t12 -57q0 -59 -31.5 -109.5t-96.5 -91.5q-64 -40 -141.5 -60.5
t-169.5 -20.5q-67 0 -100.5 21t-33.5 61q0 11 3.5 34t10.5 60l69 347q4 20 6 35t2 24q0 8 -3 16t-8 15q32 12 54.5 18t35.5 6q15 0 22.5 -8.5t7.5 -25.5q0 -4 -4 -26t-12 -60l-64 -320q-6 -29 -8.5 -47.5t-2.5 -26.5q0 -31 29.5 -46.5t88.5 -15.5q48 0 89 14t75 42
q35 28 52 61t17 72q0 30 -9.5 54t-28.5 41t-51 30t-76 22q-16 -6 -33.5 -9t-35.5 -3q-7 0 -15 1t-17 3q7 26 16 43.5t19 26.5q11 9 28 14t41 5q6 0 14.5 -0.5t18.5 -1.5q26 19 45.5 38t32.5 38q13 18 19.5 37t6.5 38q0 44 -33.5 66t-101.5 22q-109 0 -206 -52t-182 -156v1z
" />
    <glyph glyph-name="C" unicode="C" horiz-adv-x="708" 
d="M704 201q5 -12 7 -21t2 -15q0 -31 -27 -62.5t-82 -61.5q-54 -30 -109.5 -44.5t-113.5 -14.5q-62 0 -111.5 17.5t-85.5 53.5q-37 37 -55 86.5t-18 112.5q0 101 33 186.5t98 157.5q65 71 143.5 107t169.5 36q38 0 69 -6.5t56 -19.5q26 -13 38.5 -29t12.5 -36q0 -17 -11 -36
t-33 -39q-30 59 -71.5 88.5t-95.5 29.5q-60 0 -112 -30.5t-96 -92.5q-43 -61 -65.5 -133t-22.5 -155q0 -52 13.5 -93.5t39.5 -72.5t62 -46t81 -15q77 0 148.5 37t135.5 110v1z" />
    <glyph glyph-name="D" unicode="D" horiz-adv-x="865" 
d="M93 461q-6 11 -8.5 24.5t-2.5 26.5q0 44 33.5 83.5t100.5 74.5t143 52t161 17q89 0 159.5 -19.5t122.5 -59.5q51 -40 76.5 -94t25.5 -123q0 -91 -39.5 -172t-119.5 -150q-43 -37 -95.5 -67.5t-116.5 -53.5q-63 -22 -123.5 -33.5t-118.5 -11.5q-55 0 -83 21t-28 61
q0 15 4.5 46t14.5 79l63 319q4 19 6 34t2 25q0 8 -3 16t-8 15q32 12 54.5 18t35.5 6q15 0 22.5 -9t7.5 -26q0 -4 -3.5 -25.5t-11.5 -59.5l-53 -267q-10 -52 -15 -84t-5 -45q0 -14 4.5 -24.5t14.5 -15.5t28.5 -7.5t46.5 -2.5q89 0 163 27t134 81q59 54 89 121t30 146
q0 62 -21.5 111.5t-65.5 86.5q-43 37 -101 55.5t-130 18.5q-59 0 -114 -14t-106 -42q-50 -28 -92.5 -68t-77.5 -92v1z" />
    <glyph glyph-name="E" unicode="E" horiz-adv-x="620" 
d="M314 361l-25 -126q-8 -40 -12 -67.5t-4 -43.5q0 -33 31.5 -49t94.5 -16q62 0 117.5 11t103.5 33q-11 -37 -29 -59.5t-44 -30.5q-16 -5 -42.5 -10t-64.5 -10t-67.5 -8t-49.5 -3q-80 0 -120 26t-40 78q0 14 4 41.5t12 67.5l32 166h-7q-25 -1 -49 -6.5t-47 -16.5
q14 27 25 44t20 24q8 7 22 10.5t33 3.5l16 1l47 241h-14q-45 -1 -87 -15.5t-80 -43.5q12 39 28.5 64.5t38.5 36.5q17 8 68 12.5t136 4.5l146 1q69 -1 124.5 6t98.5 21q-19 -31 -36 -49.5t-32 -25.5t-47.5 -10t-82.5 -3l-158 1l-48 -241h101q53 -1 95.5 6t73.5 20
q-16 -31 -31 -49.5t-28 -24.5q-13 -7 -43.5 -10t-78.5 -3l-101 1v0z" />
    <glyph glyph-name="F" unicode="F" horiz-adv-x="612" 
d="M347 307l-68 -337q-4 -23 -6.5 -38t-2.5 -22t1.5 -14.5t4.5 -14.5q-25 -12 -47.5 -18.5t-42.5 -6.5q-13 0 -19 5t-6 15q0 6 2.5 21t6.5 40l74 370h-7q-22 -1 -45.5 -6t-49.5 -16q12 26 22.5 42.5t19.5 23.5q10 8 24.5 11.5t34.5 3.5l13 1l58 292h-10q-54 -1 -96 -15.5
t-74 -43.5q9 38 25.5 64t40.5 39q17 9 68 13.5t138 4.5l129 1q71 -1 130.5 5.5t107.5 19.5q-15 -27 -30.5 -45t-32.5 -26q-16 -9 -41.5 -13.5t-59.5 -4.5l-43 1h-150l-58 -292h106q49 -1 89.5 5t72.5 19q-12 -28 -25.5 -45t-28.5 -25q-15 -7 -45 -11t-75 -4l-105 1v0z" />
    <glyph glyph-name="G" unicode="G" horiz-adv-x="717" 
d="M750 397l-77 -286q-23 -88 -41 -138.5t-30 -65.5q-13 -14 -45 -23t-85 -12q26 36 54.5 92.5t58.5 133.5q-52 -49 -105.5 -73.5t-109.5 -24.5t-102.5 18.5t-83.5 55.5q-37 38 -55 85.5t-18 105.5q0 93 39.5 175.5t118.5 154.5t169 108t192 36q68 0 101.5 -13.5t33.5 -40.5
q0 -12 -12 -31t-35 -46q-3 -3 -6 -7t-7 -9q-18 41 -53 61t-88 20q-70 0 -131.5 -28t-114.5 -85q-52 -56 -78.5 -123.5t-26.5 -144.5q0 -52 13.5 -93t39.5 -72q27 -31 62 -46.5t79 -15.5q39 0 73.5 15t63.5 44t48.5 69t29.5 90l4 22q-76 -1 -136.5 -11.5t-105.5 -31.5
q10 32 21 51.5t24 27.5t43 14.5t76 10.5l61 6q36 2 71.5 8t69.5 16v1z" />
    <glyph glyph-name="H" unicode="H" horiz-adv-x="864" 
d="M353 349l-62 -308q-4 -23 -6.5 -37.5t-2.5 -24.5q0 -5 1.5 -12t4.5 -14q-25 -12 -47.5 -18.5t-42.5 -6.5q-13 0 -19.5 5t-6.5 16q0 5 2.5 20t7.5 38l68 342h-20q-36 -1 -73 -11t-75 -30q10 29 23.5 49.5t30.5 30.5t44.5 15t64.5 5l17 1l50 254q-21 -5 -41 -6.5t-39 -1.5
q-39 0 -61.5 25.5t-29.5 76.5q17 -15 41 -22t54 -7q38 0 87 4t108 11l-67 -334h257q23 103 47.5 180.5t50.5 128.5q14 28 27 45.5t24 24.5t33.5 12t56.5 7q5 0 11 0.5t14 1.5q-58 -67 -99 -167t-65 -234l9 1q19 -1 43 7.5t52 26.5q-6 -48 -30 -71.5t-65 -23.5l-21 1
q-7 -39 -11 -79.5t-4 -82.5q0 -70 22 -105t65 -35q17 0 37 7.5t42 22.5q-4 -48 -35.5 -71.5t-91.5 -23.5q-70 0 -105 53t-35 159q0 36 4 75t12 79l-256 1v0z" />
    <glyph glyph-name="I" unicode="I" horiz-adv-x="545" 
d="M450 670l-121 -607q47 5 80 8.5t52 3.5q32 0 48 -22t16 -65q-18 6 -36.5 9t-38.5 3q-19 0 -42.5 -1.5t-51.5 -5.5l-111 -14q-30 -5 -50.5 -7t-32.5 -2q-21 0 -35.5 5t-22.5 15q-9 9 -14 26.5t-7 42.5q17 -10 35 -14.5t37 -4.5q11 0 28 1.5t41 5.5l121 609
q-27 -5 -49.5 -7.5t-42.5 -2.5q-34 0 -50.5 19.5t-16.5 59.5q9 -7 21 -10t27 -3q17 0 42.5 3t59.5 10l78 16q40 6 70.5 9.5t52.5 3.5q33 0 52 -22t24 -66q-14 6 -28.5 9.5t-28.5 3.5q-19 0 -40.5 -2t-44.5 -5q-4 -1 -9 -1.5t-12 -1.5v1z" />
    <glyph glyph-name="J" unicode="J" horiz-adv-x="539" 
d="M491 670l-86 -433q-23 -116 -60 -199t-87 -136q-51 -53 -105 -79.5t-111 -26.5q-29 0 -55.5 8t-51.5 24q-26 16 -38.5 34t-12.5 37q0 23 16.5 44t49.5 41q0 -28 9 -50.5t26 -38.5q16 -17 39.5 -25t53.5 -8q44 0 77 16.5t55 49.5q22 34 42.5 95.5t38.5 153.5l95 478
q-35 -8 -57 -11.5t-31 -3.5q-31 0 -49 19.5t-21 59.5q11 -6 24 -9t28 -3q19 0 50.5 4.5t76.5 13.5l48 11q32 6 59 9.5t50 3.5q27 0 46 -5.5t30 -16.5q11 -10 19 -30.5t12 -50.5q-22 15 -48 22.5t-55 7.5q-16 0 -35 -2t-42 -5v1z" />
    <glyph glyph-name="K" unicode="K" horiz-adv-x="738" 
d="M305 353l-51 -257l-6.5 -39t-2.5 -22t1.5 -14.5t4.5 -15.5q-25 -11 -47.5 -17t-42.5 -6q-13 0 -19.5 5t-6.5 14q0 5 2.5 21t7.5 41l119 596q-22 -4 -42 -5.5t-38 -1.5q-39 0 -61.5 25t-30.5 76q17 -14 41 -21t54 -7q38 0 86.5 3.5t108.5 10.5l-70 -355q140 94 222 184
t107 175q35 -18 52 -37t17 -39q0 -11 -25.5 -39.5t-76.5 -75.5q-52 -46 -104.5 -87t-105.5 -78q45 -85 88.5 -153t86.5 -121q43 -52 76 -78.5t57 -26.5t51.5 13.5t57.5 41.5l1 -12q0 -19 -12.5 -37.5t-38.5 -37.5q-26 -20 -51 -29.5t-48 -9.5q-63 0 -153 103.5t-208 311.5v1
z" />
    <glyph glyph-name="L" unicode="L" horiz-adv-x="611" 
d="M650 106q-8 -25 -17.5 -42.5t-20.5 -28.5t-39 -20t-72 -16q-45 -8 -92 -12.5t-97 -4.5q-78 0 -116.5 26t-38.5 79q0 15 4 43t12 70l96 480q4 20 6 35t2 24q0 8 -3 15.5t-9 14.5q32 12 54.5 18.5t35.5 6.5q15 0 23 -9t8 -26q0 -4 -4 -26t-12 -60l-85 -427
q-10 -47 -14.5 -79t-4.5 -50q0 -31 34 -46t101 -15q60 0 122.5 12t126.5 37v1z" />
    <glyph glyph-name="M" unicode="M" horiz-adv-x="936" 
d="M300 473l-64 -321q-6 -32 -9 -56.5t-3 -41.5q0 -18 7.5 -32t22.5 -23q-27 -8 -47.5 -12.5t-35.5 -4.5q-25 0 -37 9.5t-12 28.5q0 23 7 62t22 96l108 417l-20 62q-17 50 -33.5 81.5t-33.5 42.5q23 15 44 22.5t39 7.5q14 0 25 -10.5t21 -31.5t27.5 -75t43.5 -140
q5 -18 9 -31.5t8 -23.5l8 -23q38 -110 70 -164t60 -54q30 0 72 44t95 131q54 88 83 160t34 128q27 9 47 13.5t33 4.5q23 0 35 -13.5t12 -39.5q0 -9 -3 -33l-8 -64q-6 -37 -9.5 -66t-5.5 -51l-34 -317q-1 -18 -2 -34.5t-1 -32.5q0 -48 10 -77.5t30 -41.5q-25 -17 -47 -26
t-39 -9q-30 0 -44.5 30t-14.5 89q0 24 2 53.5t6 64.5l42 405q-28 -89 -65.5 -163t-84.5 -136q-46 -61 -86.5 -92t-77.5 -31q-9 0 -18.5 2.5t-18.5 7.5q-19 9 -37.5 28t-36.5 47q-28 42 -51.5 100.5t-43.5 132.5v1z" />
    <glyph glyph-name="N" unicode="N" horiz-adv-x="813" 
d="M304 541l-62 -313q-9 -46 -13.5 -79t-4.5 -56q0 -34 10 -57.5t29 -35.5q-22 -9 -42.5 -13.5t-38.5 -4.5q-28 0 -41.5 12t-13.5 37q0 24 14.5 98.5t43.5 198.5l73 313l-14 38q-15 37 -33 60.5t-40 31.5q38 17 61.5 26t33.5 9q17 0 29 -8t20 -23t44 -98t100 -234
q71 -169 118.5 -253.5t69.5 -84.5q17 0 33.5 36t32.5 108t24 145.5t8 149.5q0 61 -14.5 101.5t-43.5 59.5q24 17 45.5 25.5t40.5 8.5q29 0 44 -24t15 -71q0 -37 -6.5 -94.5t-20.5 -135.5q-13 -77 -27 -142.5t-29 -118.5q-25 -86 -53 -128.5t-58 -42.5q-26 0 -54.5 22.5
t-58.5 68.5q-30 47 -70.5 129t-90.5 200q-16 38 -27 63.5t-17 38.5l-16 37v0z" />
    <glyph glyph-name="O" unicode="O" horiz-adv-x="864" 
d="M449 639q38 49 87.5 74.5t111.5 25.5q53 0 97 -19t78 -58q35 -38 52 -87t17 -108q0 -91 -37 -175t-111 -160t-156 -113t-172 -37q-64 0 -117.5 20.5t-95.5 63.5t-63 97.5t-21 119.5q0 71 24 132.5t72 113.5q48 51 106.5 78.5t127.5 30.5v1zM412 586q-43 -11 -77.5 -34.5
t-60.5 -59.5q-25 -37 -37.5 -81t-12.5 -97q0 -59 17 -107.5t51 -86.5q35 -38 78.5 -57.5t96.5 -19.5q63 0 119 30t105 91q49 60 73 129t24 148q0 47 -12 85.5t-36 69.5t-54 46.5t-65 15.5q-36 0 -67.5 -14.5t-57.5 -43.5t-39.5 -63.5t-13.5 -75.5q0 -28 7 -54t20 -50
q-26 5 -44 12t-27 17q-9 9 -13.5 26t-4.5 41q0 32 7.5 65t23.5 67v1z" />
    <glyph glyph-name="P" unicode="P" horiz-adv-x="686" 
d="M328 256l-43 -215q-5 -23 -7.5 -37.5t-2.5 -21.5q0 -6 1.5 -13.5t5.5 -15.5q-25 -12 -48 -18.5t-43 -6.5q-13 0 -19 5t-6 16q0 5 2.5 20t7.5 39l51 257q-61 13 -92 33t-31 48q0 5 1 12t3 16q26 -22 58.5 -37.5t69.5 -25.5l34 170q4 20 6 35t2 24q0 8 -3 16t-8 15
q32 12 54.5 18t35.5 6q15 0 22.5 -9t7.5 -26q0 -4 -4 -25.5t-12 -59.5l-34 -171q71 -1 128 16.5t102 51.5q44 35 66.5 79.5t22.5 98.5q0 29 -11.5 53t-34.5 43q-23 18 -54.5 27t-69.5 9q-114 0 -205.5 -48t-160.5 -143q-6 15 -9 26.5t-3 20.5q0 37 33 71.5t99 66.5
t137.5 47.5t148.5 15.5q116 0 174.5 -43t58.5 -129q0 -62 -30 -117t-91 -102q-61 -46 -131.5 -70t-152.5 -24l-26 2v0z" />
    <glyph glyph-name="Q" unicode="Q" horiz-adv-x="862" 
d="M450 639q41 49 91.5 74.5t110.5 25.5q53 0 96.5 -19.5t77.5 -58.5q35 -40 52 -89.5t17 -110.5q0 -68 -21.5 -132.5t-65.5 -123.5q-43 -59 -102 -107t-136 -84q72 -61 154 -103t173 -64q-27 -26 -54 -39t-54 -13q-20 0 -50 14.5t-71 43.5q-40 28 -81 63.5t-82 78.5
q-22 -6 -44.5 -9.5t-44.5 -3.5q-64 0 -117 21t-95 64q-43 44 -64 98t-21 119q0 71 24 132t72 112t106.5 78.5t128.5 31.5v1zM421 586q-46 -10 -82.5 -32.5t-62.5 -59.5q-26 -36 -39 -81.5t-13 -100.5q0 -58 16 -104.5t48 -83.5q32 -36 75.5 -56t98.5 -25q-37 37 -56 65.5
t-19 49.5q0 17 10 34t30 34q12 -46 38 -89.5t65 -84.5q55 16 101 52t83 92q38 56 56.5 117t18.5 128q0 45 -12 82.5t-36 67.5q-23 29 -53.5 43.5t-66.5 14.5q-33 0 -60.5 -11t-50.5 -34q-22 -22 -34 -49.5t-12 -59.5l1 -18q-28 4 -42 17.5t-14 35.5q0 14 3 27.5t9 27.5v1z
" />
    <glyph glyph-name="R" unicode="R" horiz-adv-x="800" 
d="M277 -47q-25 -12 -47.5 -18.5t-42.5 -6.5q-13 0 -19 5t-6 16q0 5 2.5 20t8.5 39l94 473q4 19 6 34t2 25q0 8 -3 16t-9 15q32 12 55 18t36 6q15 0 22.5 -9t7.5 -26q0 -4 -4 -25.5t-12 -59.5l-86 -434q-5 -23 -7.5 -38t-2.5 -24q0 -5 1 -12t4 -14v0zM102 464q-10 10 -15 24
t-5 30q0 41 34 78.5t103 72.5t142.5 52.5t152.5 17.5q121 0 181.5 -38.5t60.5 -115.5q0 -37 -13 -69t-39 -58t-71.5 -53.5t-110.5 -55.5q59 -133 109 -200t93 -67q22 0 46 16t49 47q1 -6 1.5 -10.5t0.5 -6.5q0 -20 -12 -41.5t-36 -43.5t-47 -32.5t-46 -10.5q-58 0 -118.5 77
t-125.5 233q-13 -4 -24.5 -5.5t-22.5 -1.5q-5 0 -9.5 1t-9.5 3q9 46 32 69t60 23q8 0 17 -1.5t19 -4.5q80 27 120 71.5t40 106.5q0 23 -11 42t-34 34q-23 14 -52.5 21.5t-64.5 7.5q-60 0 -117.5 -15t-113.5 -45q-55 -29 -96 -67.5t-67 -85.5v1z" />
    <glyph glyph-name="S" unicode="S" horiz-adv-x="560" 
d="M130 170q0 -41 11 -72t33 -54q22 -22 52 -33t69 -11q34 0 64 9.5t55 30.5q25 20 37.5 44t12.5 52q0 29 -27.5 69.5t-83.5 92.5l-54 51q-52 47 -77.5 91t-25.5 84q0 47 18.5 85.5t55.5 69.5q36 30 83 45t103 15q30 0 54 -4.5t43 -13.5t28 -21t9 -27t-6.5 -31.5
t-19.5 -35.5q-22 41 -56.5 61.5t-81.5 20.5q-30 0 -55 -9t-46 -27q-20 -19 -30 -41.5t-10 -49.5q0 -19 3 -32.5t10 -23.5q7 -9 28 -30t55 -53l44 -39q60 -57 90 -107.5t30 -94.5q0 -52 -20.5 -94.5t-61.5 -77.5q-40 -32 -92 -49t-114 -17q-42 0 -76.5 9.5t-61.5 29.5
q-27 18 -41 42.5t-14 54.5q0 20 16.5 42.5t49.5 47.5v1z" />
    <glyph glyph-name="T" unicode="T" horiz-adv-x="663" 
d="M497 647l-110 -551l-6.5 -39t-2.5 -22t1.5 -14.5t4.5 -15.5q-25 -11 -47.5 -17t-42.5 -6q-13 0 -19 5t-6 14q0 5 2.5 20t6.5 40l117 586h-68q-58 -1 -108 -6.5t-92 -16.5q8 32 19 52.5t24 28.5q14 8 44 12t76 4l331 1q66 -1 110 23t66 72q8 -14 12.5 -25.5t4.5 -20.5
q0 -32 -20 -57.5t-59 -44.5q-24 -12 -68.5 -17.5t-110.5 -5.5l-59 1v0z" />
    <glyph glyph-name="U" unicode="U" horiz-adv-x="851" 
d="M613 217q-73 -107 -145 -160t-143 -53q-38 0 -70 14t-57 42q-25 29 -37.5 64t-12.5 78q0 86 33.5 200.5t100.5 257.5q-20 -4 -39 -6t-36 -2q-22 0 -39 5.5t-28 17.5q-10 11 -17.5 30.5t-12.5 47.5q18 -14 42 -21t53 -7q17 0 72.5 4t149.5 13q-87 -169 -130 -297t-43 -217
q0 -32 8 -58t24 -46q16 -21 36 -31t45 -10q35 0 69 17t68 51q35 34 66.5 83.5t61.5 114.5q22 119 41 192t36 100q17 28 50.5 41.5t84.5 13.5q-22 -28 -44 -88t-44 -151t-33 -168t-11 -142q0 -51 15.5 -76t46.5 -25q19 0 41.5 10.5t49.5 31.5q1 -6 1.5 -10.5t0.5 -7.5
q0 -16 -10 -31.5t-30 -29.5q-20 -13 -42 -20t-45 -7q-66 0 -99 41t-33 124q0 12 1 29.5t4 39.5v1z" />
    <glyph glyph-name="V" unicode="V" horiz-adv-x="669" 
d="M249 -19q5 25 7 56t2 67q0 82 -14.5 184t-43.5 225q-14 58 -25.5 97t-22.5 60q-10 20 -25.5 37.5t-37.5 30.5q25 26 45.5 39t36.5 13q30 0 59.5 -49.5t57.5 -148.5q36 -130 54.5 -250.5t18.5 -233.5q153 205 230 345.5t77 216.5q0 5 -0.5 10t-2.5 11q-1 5 -3 10t-5 10
q20 14 41 21t43 7q20 0 29.5 -9.5t9.5 -27.5q0 -33 -21 -86t-63 -127q-42 -73 -100.5 -159.5t-132.5 -184.5q-38 -51 -65.5 -82.5t-44.5 -44.5q-16 -13 -42 -21.5t-62 -15.5v0z" />
    <glyph glyph-name="W" unicode="W" horiz-adv-x="948" 
d="M200 -20q6 23 9 55.5t3 72.5q0 100 -7.5 195.5t-23.5 186.5q-15 92 -35 161.5t-44 115.5q24 6 42 9t30 3q16 0 28 -7.5t19 -22.5q8 -16 17 -51.5t21 -92.5q17 -86 30 -204.5t22 -268.5q81 168 147.5 299.5t118.5 227.5h3t2 1h2h2q10 2 17 3.5t11 1.5q20 0 30 -9.5
t10 -29.5q0 -6 -0.5 -13t-1.5 -15q-10 -79 -15 -137.5t-5 -96.5l-1 -55l-1 -33q0 -92 14 -138t42 -46q32 0 64.5 33t65.5 100q37 74 55.5 160.5t18.5 185.5q0 43 -11 82.5t-32 76.5q17 5 33 7t31 2q23 0 38.5 -6t25.5 -19q9 -13 13.5 -34.5t4.5 -52.5q0 -100 -29 -202.5
t-87 -206.5q-26 -48 -56 -87.5t-63 -70.5q-34 -31 -63 -45.5t-54 -14.5q-28 0 -47.5 14.5t-30.5 45.5t-17 84.5t-6 129.5q0 30 1.5 77t4.5 111q-58 -102 -103 -186.5t-76 -150.5l-16 -35q-18 -36 -31.5 -57.5t-23.5 -29.5q-10 -6 -34 -12t-62 -11v0z" />
    <glyph glyph-name="X" unicode="X" horiz-adv-x="684" 
d="M336 316l-13 -14q-83 -90 -126.5 -170t-48.5 -150l-27 18q-25 13 -37.5 27t-12.5 27q0 17 16 47t48 73q33 43 70 83.5t80 78.5l27 26l-13 22q-16 28 -34 66t-36 87q-19 49 -28 82t-9 49q0 23 16 40.5t47 27.5l23 8q2 -23 11.5 -59t26.5 -85t34.5 -89.5t35.5 -73.5l9 -16
l16 12q33 25 60.5 55.5t49.5 67.5t32.5 70t10.5 64q0 6 -0.5 12.5t-2.5 13.5l13 8q8 3 15.5 6t15.5 5q7 2 15 3t15 1q15 0 22.5 -8t7.5 -23q0 -31 -16.5 -68.5t-49.5 -82.5q-32 -46 -74 -88t-92 -81l-15 -11l10 -19q24 -47 55 -93.5t70 -92.5q24 -28 44 -47.5t36 -29.5
t34.5 -15t40.5 -5q9 0 19.5 2.5t22.5 6.5q-30 -47 -59 -70t-58 -23q-30 0 -66.5 24t-80.5 73q-14 17 -33 42.5t-43 60.5t-39.5 61t-23.5 42l-11 22v0z" />
    <glyph glyph-name="Y" unicode="Y" horiz-adv-x="583" 
d="M392 337l-48 -241q-5 -24 -7.5 -39t-2.5 -22t1.5 -14.5t4.5 -15.5q-25 -11 -47.5 -17t-42.5 -6q-13 0 -19 5t-6 14q0 5 2.5 20.5t7.5 40.5l54 275q-15 66 -37.5 127.5t-52.5 117.5t-60.5 93t-62.5 56q26 18 45.5 27t32.5 9q47 0 102 -96t118 -288q48 43 90 86.5t78 89.5
q37 45 55 76.5t18 50.5q0 10 -4 19t-12 16q20 9 36.5 13.5t28.5 4.5q20 0 30 -10.5t10 -31.5q0 -24 -24 -63.5t-73 -95.5q-48 -55 -102 -105.5t-113 -96.5v1z" />
    <glyph glyph-name="Z" unicode="Z" horiz-adv-x="641" 
d="M170 95q30 1 59.5 2t57.5 1q113 0 188 -9t113 -27q19 -9 28.5 -30.5t9.5 -53.5q0 -5 -0.5 -13t-1.5 -20q-31 19 -67 32t-77 21q-41 6 -95 9.5t-122 3.5q-29 0 -57.5 -2t-57.5 -5h-16l-32 -4q-21 0 -31.5 8t-10.5 24q0 5 2.5 18t6.5 34q80 105 199.5 240t278.5 299
q5 5 17 17.5t30 31.5q-70 -4 -123 -7.5t-88 -5.5q-40 -2 -65.5 -3t-36.5 -1q-55 0 -82 19t-27 57q0 5 0.5 16t1.5 30q23 -28 77.5 -42t142.5 -14l61 1q71 -1 129 3t103 13q-4 -28 -8.5 -46.5t-9.5 -29.5q-5 -10 -15 -23t-27 -29q-37 -37 -97.5 -103.5t-144.5 -161.5
q-84 -94 -137 -157t-76 -94v1z" />
    <glyph glyph-name="bracketleft" unicode="[" horiz-adv-x="543" 
d="M649 857q-8 -23 -16.5 -37.5t-17.5 -21.5q-8 -7 -23 -10.5t-35 -3.5l-43 2h-51l-145 -727q-7 -38 -10.5 -64.5t-3.5 -42.5q0 -31 24.5 -46.5t73.5 -15.5q17 0 35 3.5t36 10.5q-6 -20 -14 -33t-18 -20q-10 -6 -27.5 -9t-43.5 -3q-76 0 -113.5 30t-37.5 90q0 18 4 45.5
t11 67.5l153 771h127q48 -1 82 2.5t53 10.5v1z" />
    <glyph glyph-name="backslash" unicode="\" horiz-adv-x="494" 
d="M389 -152q2 13 3.5 27.5t1.5 28.5q0 85 -23 211.5t-70 293.5q-46 167 -89 276.5t-81 160.5q13 4 23.5 6t19.5 2q33 0 59.5 -32t46.5 -95q30 -97 62.5 -219.5t67.5 -271.5q13 -55 22.5 -95.5t15.5 -64.5q11 -45 16.5 -75.5t5.5 -47.5q0 -31 -20 -57t-61 -48v0z" />
    <glyph glyph-name="bracketright" unicode="]" horiz-adv-x="543" 
d="M104 -161q8 22 16.5 36.5t17.5 21.5q8 7 23 10.5t35 3.5l43 -1h51l145 726q7 37 10.5 64t3.5 43q0 31 -24.5 46.5t-73.5 15.5q-9 0 -18 -1t-17 -3q-9 -1 -18 -4l-18 -6q6 20 14 33t18 19q10 7 27.5 10t42.5 3q76 0 114 -30t38 -90q0 -21 -3.5 -50t-11.5 -65l-153 -768
h-127q-49 0 -83 -3.5t-52 -10.5v0z" />
    <glyph glyph-name="asciicircum" unicode="^" horiz-adv-x="674" 
d="M461 566q-35 -70 -80 -138t-99 -134q-27 -33 -49.5 -54.5t-40.5 -31.5t-43.5 -15t-59.5 -5q55 51 110 117t112 148q56 82 93 149t54 119q17 -6 27.5 -13.5t14.5 -15.5q5 -8 11.5 -30.5t14.5 -58.5l9 -37q26 -113 61.5 -207t81.5 -171q-39 0 -68.5 18t-49.5 52
q-20 35 -45 112t-54 195v1z" />
    <glyph glyph-name="underscore" unicode="_" 
d="M42 9q14 -5 36.5 -7t53.5 -2h157q89 0 133.5 -22t44.5 -67v-7q-25 12 -64.5 18t-93.5 6h-123q-36 0 -61.5 4.5t-40.5 13.5q-16 8 -26.5 24t-15.5 38v1z" />
    <glyph glyph-name="grave" unicode="`" horiz-adv-x="674" 
d="M608 626q-5 -2 -9 -2h-7q-29 0 -57.5 15t-57.5 45q-25 26 -37.5 43.5t-12.5 26.5q-1 14 19.5 25.5t61.5 21.5q15 -52 40 -96.5t60 -79.5v1z" />
    <glyph glyph-name="a" unicode="a" horiz-adv-x="791" 
d="M547 298q-31 -65 -69.5 -120.5t-84.5 -100.5q-46 -46 -85.5 -67.5t-73.5 -21.5q-26 0 -46.5 11t-36.5 33q-16 23 -23.5 54t-7.5 69q0 77 23.5 144t69.5 125q46 59 99.5 87.5t114.5 28.5q36 0 76 -11t83 -34q6 23 32 34t72 11h7.5h11.5q-14 -22 -24.5 -51t-18.5 -66
l-8 -40q-7 -36 -10.5 -76.5t-3.5 -86.5q0 -54 12.5 -80.5t37.5 -26.5q26 0 62 22t82 66t91 100t89 124l38 -25q-45 -82 -96.5 -149t-109.5 -121t-108 -81t-92 -27q-53 0 -79.5 44t-26.5 132q0 18 1 43t2 56v1zM570 415q-51 32 -93.5 48.5t-76.5 16.5q-37 0 -69 -22t-59 -67
q-26 -45 -39.5 -98t-13.5 -115q0 -49 16 -73.5t48 -24.5q35 0 101.5 76.5t165.5 229.5q2 2 6.5 9t13.5 19v1z" />
    <glyph glyph-name="b" unicode="b" horiz-adv-x="657" 
d="M640 340q2 -7 3 -13l2 -12q0 -7 0.5 -13t0.5 -12q0 -61 -21 -114.5t-64 -98.5q-43 -46 -93.5 -67.5t-109.5 -21.5q-42 0 -76.5 12t-61.5 37q-27 26 -40.5 58.5t-13.5 72.5q0 29 5.5 70.5t16.5 95.5l82 416q-12 -4 -22.5 -5t-19.5 -1q-52 0 -78 27t-26 82
q15 -15 40.5 -22.5t60.5 -7.5q30 0 71 7.5t92 23.5l-116 -577q-6 -31 -8.5 -56.5t-2.5 -48.5q0 -30 8 -54t24 -43t36.5 -28t45.5 -9q39 0 71.5 17.5t59.5 51.5q26 35 39.5 77t13.5 91q0 24 -4 48t-12 48q-31 10 -56 23.5t-45 29.5q-19 17 -29 32.5t-10 31.5q0 8 3 19.5
t10 24.5q66 -6 116.5 -34.5t84.5 -80.5q32 -15 65.5 -22.5t68.5 -7.5q36 0 72.5 11t73.5 33l25 -39q-43 -33 -90.5 -49t-100.5 -16q-24 0 -47 3t-44 9v1z" />
    <glyph glyph-name="c" unicode="c" horiz-adv-x="571" 
d="M835 398q-58 -100 -121 -178t-129 -135t-127.5 -84.5t-118.5 -27.5q-46 0 -84.5 16t-67.5 47q-30 32 -44.5 73.5t-14.5 93.5q0 68 25.5 127t75.5 110q50 50 109.5 75t127.5 25q28 0 50.5 -5t40.5 -16q17 -10 26 -23.5t9 -30.5q0 -27 -23 -46.5t-68 -33.5q2 5 3.5 10.5
t1.5 11.5q0 39 -21 59t-63 20q-37 0 -70 -20t-64 -61q-31 -40 -46 -85t-15 -93q0 -39 10 -71t30 -57q21 -25 47.5 -37.5t59.5 -12.5q89 0 194 93t226 280l41 -24v0z" />
    <glyph glyph-name="d" unicode="d" horiz-adv-x="788" 
d="M542 285q-38 -69 -78 -123.5t-81 -94.5q-42 -40 -79.5 -59.5t-69.5 -19.5q-26 0 -47 11t-36 33q-16 23 -23.5 53.5t-7.5 68.5q0 77 23 145t69 126t99 86.5t114 28.5q36 0 76 -11.5t83 -34.5l52 264q-22 -5 -39.5 -7t-31.5 -2q-22 0 -37.5 5t-25.5 15t-18 29t-14 47
q17 -12 44 -18t64 -6q45 0 88.5 8.5t85.5 24.5l-107 -534q-9 -46 -13.5 -84t-4.5 -70q0 -42 12 -63t36 -21t63 27.5t93 82.5q55 55 100.5 112.5t81.5 117.5l40 -25q-43 -80 -97.5 -151.5t-119.5 -133.5q-65 -63 -117 -93.5t-91 -30.5q-49 0 -73.5 38.5t-24.5 117.5
q0 33 3 68t9 72v1zM568 415q-51 32 -93.5 48.5t-75.5 16.5q-37 0 -68.5 -22.5t-58.5 -66.5q-26 -45 -39.5 -98t-13.5 -115q0 -49 16 -73.5t48 -24.5q35 0 101.5 76.5t165.5 229.5q2 3 6.5 10t11.5 18v1z" />
    <glyph glyph-name="e" unicode="e" horiz-adv-x="584" 
d="M228 203q0 -73 30 -108.5t91 -35.5q53 0 110.5 25t120.5 75t120 115.5t108 147.5l42 -22q-48 -90 -110 -164t-139 -133q-76 -58 -149 -86.5t-141 -28.5q-44 0 -78.5 13.5t-60.5 41.5q-25 29 -38 67.5t-13 87.5q0 71 23 131.5t69 110.5q47 50 102.5 75t120.5 25
q32 0 57 -7.5t44 -23.5t28.5 -37.5t9.5 -47.5q0 -43 -26.5 -82t-79.5 -73q-52 -34 -112.5 -50.5t-128.5 -16.5v1zM231 250q51 1 95 16t80 41q37 27 55 58t18 65q0 32 -14 47.5t-41 15.5q-33 0 -63.5 -18t-59.5 -54q-28 -35 -45 -78.5t-25 -93.5v1z" />
    <glyph glyph-name="f" unicode="f" horiz-adv-x="361" 
d="M201 388h-10q-36 -1 -68 -10t-59 -27q6 32 15 51.5t20 27.5q11 9 35 13t60 4l19 1l16 81q17 81 42.5 140t61.5 95q44 45 93.5 67.5t103.5 22.5q21 0 39 -5t34 -15q15 -10 22.5 -21.5t7.5 -25.5t-15.5 -30.5t-47.5 -34.5q-9 38 -29 56.5t-51 18.5q-55 0 -95 -60.5
t-64 -180.5l-21 -108h170q59 -1 101.5 2t69.5 10q-11 -26 -24.5 -41.5t-28.5 -20.5t-54 -8t-101 -3l-146 1l-83 -418q-6 -30 -9 -56.5t-3 -49.5q0 -14 3 -27t10 -25q-25 -8 -43.5 -12t-31.5 -4q-21 0 -31 11t-10 34q0 18 4 47.5t12 70.5l86 429v0z" />
    <glyph glyph-name="g" unicode="g" horiz-adv-x="713" 
d="M528 293q-23 -50 -57.5 -92.5t-79.5 -79.5t-85.5 -55.5t-75.5 -18.5q-27 0 -48.5 9t-38.5 27q-16 18 -25 41.5t-9 52.5q0 68 26 130t77 119t107 85.5t117 28.5q31 0 64.5 -9t69.5 -26q5 23 12 38t17 21q9 6 32.5 11t61.5 9q-19 -39 -37.5 -130t-35.5 -235l-6 -49
q104 62 185 126t138 130l41 -25q-54 -71 -145.5 -147t-222.5 -159q-1 -10 -1.5 -17t-0.5 -12q-3 -60 -9.5 -105t-15.5 -73q-10 -29 -26.5 -57t-40.5 -54q-48 -51 -105.5 -76.5t-125.5 -25.5q-36 0 -65.5 9t-52.5 26q-22 17 -33.5 39t-11.5 50q0 26 10 49.5t29 43.5
q20 20 56.5 44.5t91.5 53.5q35 17 85.5 45t116.5 65l17 193v0zM506 36q-14 -10 -42.5 -25.5t-71.5 -38.5q-85 -48 -127 -90t-42 -78q0 -17 7 -30.5t20 -23.5q14 -10 31 -15t39 -5q93 0 139.5 76.5t46.5 228.5v1zM553 420q-31 32 -66 49t-73 17q-37 0 -71 -22.5t-66 -67.5
q-31 -46 -47.5 -94t-16.5 -99q0 -36 13.5 -54t40.5 -18q26 0 60 21.5t77 64.5t80.5 93.5t68.5 108.5v1z" />
    <glyph glyph-name="h" unicode="h" horiz-adv-x="749" 
d="M245 214q72 163 146 244.5t150 81.5q31 0 53 -12t35 -38q14 -25 20.5 -66t6.5 -98v-57q0 -77 11.5 -116t33.5 -40h0.5h0.5h0.5h0.5q18 0 46 22t66 65q39 44 79 99.5t80 122.5l40 -22q-40 -79 -84 -145t-94 -121q-50 -54 -91 -81t-73 -27q-30 0 -51.5 14t-35.5 42
q-13 28 -19.5 74t-6.5 110v44q0 73 -12.5 110t-38.5 37q-36 0 -81.5 -49.5t-101.5 -148.5q-56 -100 -84 -159t-28 -78q0 -6 2.5 -12t6.5 -10q-11 -6 -25.5 -9t-31.5 -3q-22 0 -32.5 9t-10.5 28q0 14 7.5 54.5t22.5 107.5q0 2 3.5 18t9.5 45l100 505q-16 -7 -32.5 -10
t-33.5 -3q-48 0 -71.5 28t-23.5 84q23 -18 50.5 -26.5t58.5 -8.5q44 0 86 8.5t82 26.5l-80 -403q-1 -5 -12 -50t-33 -132q-1 -7 -4 -21.5t-7 -34.5v1z" />
    <glyph glyph-name="i" unicode="i" horiz-adv-x="443" 
d="M708 399q-55 -98 -111 -173.5t-112 -130.5q-56 -54 -107 -80.5t-96 -26.5q-27 0 -49 8.5t-39 25.5q-16 18 -24.5 41.5t-8.5 52.5q0 11 2.5 28.5t6.5 41.5l11 54q12 57 18 97.5t6 64.5q0 14 -4.5 25.5t-12.5 20.5q32 7 52 10.5t28 3.5q18 0 27 -12.5t9 -37.5
q0 -19 -3.5 -46t-10.5 -62l-19 -95q-7 -35 -10.5 -57t-3.5 -33q0 -30 13 -45t38 -15q31 0 71.5 25.5t91.5 76.5q50 52 99.5 117t96.5 144l41 -23v0zM273 645h7q17 -1 40 7t54 24t55 32.5t41 32.5q-10 -34 -29.5 -62t-46.5 -51q-42 -34 -70 -51.5t-42 -17.5q-10 0 -15 5.5
t-5 17.5q0 17 2.5 33t8.5 29v1z" />
    <glyph glyph-name="j" unicode="j" horiz-adv-x="285" 
d="M-101 -181q1 -3 1 -5t-1 -5v-4v-3q0 -16 5.5 -29.5t16.5 -25.5t24 -18t28 -6q32 0 59.5 23t48.5 70q9 20 22.5 72.5t29.5 136.5l42 215q12 58 18 98.5t6 63.5q0 14 -4 25.5t-12 20.5q32 7 51.5 10.5t28.5 3.5q18 0 27 -12.5t9 -38.5q0 -19 -3.5 -45.5t-10.5 -61.5
l-57 -285q-17 -84 -39.5 -143.5t-50.5 -93.5q-45 -53 -93 -80t-100 -27q-22 0 -41 5t-35 15q-17 10 -25 21.5t-8 24.5q0 16 16 35.5t48 42.5h-1zM274 645h7q17 0 40 8t54 24t55 32t41 32q-10 -34 -29.5 -62t-46.5 -51q-42 -34 -70 -51.5t-43 -17.5q-10 0 -14.5 5.5
t-4.5 17.5q0 17 2.5 33t8.5 29v1z" />
    <glyph glyph-name="k" unicode="k" horiz-adv-x="648" 
d="M271 278l-23 -116q-6 -32 -9 -58t-3 -49q0 -15 3 -28t10 -24q-25 -7 -44 -11t-32 -4q-20 0 -30 11t-10 33q0 18 4 47.5t12 69.5l120 603q-22 -9 -41.5 -13t-35.5 -4q-28 0 -42.5 13t-14.5 39q0 8 2.5 23t7.5 37q18 -18 39.5 -27t46.5 -9q32 0 70.5 10.5t82.5 32.5
l-108 -550q39 46 81 87t87 77t77 54t51 18q11 0 24 -16.5t28 -48.5q-24 -3 -56.5 -16t-74.5 -37q-41 -24 -75 -49t-60 -51q62 -97 115.5 -146t99.5 -49q21 0 42 8t42 23q20 16 48 44.5t62 70.5q32 40 58.5 77.5t47.5 72.5l41 -22q-45 -83 -91.5 -149t-96.5 -117
q-50 -50 -93 -75t-79 -25q-30 0 -66 18.5t-80 55.5q-43 37 -77 79t-60 89v1z" />
    <glyph glyph-name="l" unicode="l" horiz-adv-x="406" 
d="M670 397q-50 -96 -101 -171.5t-102 -130.5q-51 -54 -96 -80.5t-84 -26.5q-28 0 -51.5 10t-41.5 32q-17 23 -26 51.5t-9 64.5q0 20 4 48t11 65l97 491q-10 -2 -18 -3t-15 -1q-57 0 -85 23.5t-28 69.5v13q29 -18 62.5 -26.5t70.5 -8.5t69 9t60 28l-114 -586
q-7 -41 -11 -68.5t-4 -41.5q0 -42 15 -62.5t46 -20.5q29 0 58.5 16.5t59.5 49.5q29 33 78 103.5t116 178.5l39 -26v0z" />
    <glyph glyph-name="m" unicode="m" horiz-adv-x="1074" 
d="M291 171q88 184 166 277t145 93q29 0 44 -21.5t15 -63.5q0 -19 -6.5 -60t-18.5 -106l-30 -146q43 88 88 160.5t91 126.5q47 55 86.5 82t73.5 27q37 0 55.5 -21.5t18.5 -64.5q0 -16 -5.5 -51.5t-16.5 -91.5l-15 -76q-7 -35 -10.5 -60.5t-3.5 -42.5q0 -29 10.5 -43.5
t31.5 -14.5q47 0 119 87t169 261l41 -22q-106 -207 -198.5 -309.5t-171.5 -102.5q-51 0 -76 32t-25 98q0 22 4.5 57t14.5 84l14 69q7 33 10.5 54t3.5 30q0 11 -5.5 16t-16.5 5q-27 0 -74 -52.5t-115 -157.5q-61 -96 -92 -150t-31 -68q0 -1 0.5 -3t1.5 -5l-10 -2.5t-14 -4.5
q-4 -1 -9.5 -1.5t-12.5 -0.5q-23 0 -34.5 10t-11.5 31q0 6 4 26t11 54q2 12 5 25l6 26l20 105q11 55 17 88t6 45q0 17 -6 25t-18 8q-27 0 -66 -47t-90 -142q-51 -94 -76.5 -150t-25.5 -74q0 -5 2 -9.5t6 -8.5q-13 -6 -25.5 -9t-23.5 -3q-25 0 -38 13t-13 40q0 3 4 39t11 103
l11 105q3 26 4.5 51.5t1.5 48.5q0 29 -6 51t-18 35q28 11 48 16t32 5q21 0 32 -12.5t11 -38.5q0 -9 -3 -42.5t-9 -91.5l-14 -139v0z" />
    <glyph glyph-name="n" unicode="n" horiz-adv-x="806" 
d="M291 175q86 182 164 273.5t148 91.5q53 0 80 -53.5t27 -160.5l1 -58q0 -53 3 -88t8 -55q5 -19 15 -29.5t23 -10.5q21 0 45 17t51 50q26 34 69.5 101.5t104.5 167.5l41 -23q-54 -102 -102 -177t-91 -124q-42 -49 -80 -73t-72 -24q-31 0 -52.5 14.5t-34.5 44.5t-19 82
t-6 126l-1 43q0 39 -2.5 67t-7.5 44q-5 17 -14 25t-22 8q-32 0 -84 -64.5t-123 -193.5q-18 -31 -29.5 -51.5t-16.5 -29.5q-19 -33 -28 -56.5t-9 -38.5q0 -6 1.5 -11t4.5 -9q-14 -6 -26 -9t-22 -3q-25 0 -37 13t-12 40q0 8 3 43t10 98l10 107q4 32 6 58t2 45q0 26 -6 46.5
t-18 35.5q5 2 14 4.5t21 6.5q15 5 27 8t21 3q19 0 28.5 -14t9.5 -42q0 -15 -2 -40t-5 -60q-1 -8 -2 -15.5t-1 -14.5l-13 -135v0z" />
    <glyph glyph-name="o" unicode="o" horiz-adv-x="670" 
d="M652 359q1 -7 1.5 -12t0.5 -10q0 -70 -24 -131.5t-72 -114.5q-48 -52 -103.5 -77.5t-120.5 -25.5q-49 0 -89 15t-71 46q-31 32 -46.5 72.5t-15.5 90.5q0 57 20 106t60 91t87 63t101 21q8 0 17 -1.5t19 -3.5q-7 11 -10 20.5t-3 16.5q0 12 4 23.5t12 21.5q60 -4 109.5 -35
t89.5 -87q41 -28 83 -41.5t86 -13.5q29 0 59.5 10t63.5 29l25 -41q-39 -28 -79 -41.5t-81 -13.5q-27 0 -57.5 5.5t-65.5 16.5v1zM541 401q-20 5 -38.5 15t-35.5 23q-13 2 -23.5 3.5t-18.5 1.5q-41 0 -78 -18.5t-69 -55.5t-48 -80t-16 -91q0 -34 10 -62.5t29 -51.5
q20 -22 44.5 -33.5t55.5 -11.5q41 0 76.5 21t65.5 63q29 41 44 90.5t15 107.5q0 20 -3.5 39.5t-9.5 38.5v1z" />
    <glyph glyph-name="p" unicode="p" horiz-adv-x="611" 
d="M222 30l-35 -180q-7 -30 -10 -57t-3 -49q0 -14 3 -27.5t10 -25.5q-25 -8 -43.5 -12t-31.5 -4q-21 0 -31 11.5t-10 34.5q0 18 4 47t12 70l143 716q-22 -5 -39.5 -7.5t-31.5 -2.5q-22 0 -37.5 5t-25.5 15q-10 11 -18 29.5t-15 46.5q18 -12 45 -18t64 -6q45 0 88.5 8.5
t85.5 24.5l-38 -188q41 39 84 59t88 20q39 0 71.5 -14.5t57.5 -43.5q26 -30 39 -66.5t13 -80.5q0 -69 -24 -128t-71 -109q-48 -49 -104.5 -73.5t-121.5 -24.5q-36 0 -65.5 7t-52.5 22v1zM237 105q25 -29 55 -43.5t66 -14.5q44 0 80 18t67 54q30 36 45 80t15 96q0 38 -8.5 68
t-25.5 53t-39.5 34.5t-49.5 11.5q-34 0 -71 -19.5t-78 -57.5l-56 -280v0z" />
    <glyph glyph-name="q" unicode="q" horiz-adv-x="635" 
d="M542 287q-84 -151 -161 -225t-148 -74q-25 0 -46 11t-36 33q-16 23 -23.5 54t-7.5 70q0 77 23 144t69 125q47 58 100 86.5t114 28.5q36 0 75.5 -11t82.5 -34q7 23 34.5 34t75.5 11l14 1q-14 -25 -24.5 -53.5t-17.5 -61.5l-114 -576q-6 -30 -9 -57t-3 -49q0 -14 3 -27.5
t9 -25.5q-25 -8 -43.5 -12t-31.5 -4q-20 0 -30 11.5t-10 34.5q0 18 4 47t12 70l89 449v0zM568 415q-51 32 -93.5 48.5t-75.5 16.5q-37 0 -68.5 -22.5t-58.5 -66.5q-26 -45 -39.5 -98t-13.5 -115q0 -49 16 -73.5t48 -24.5q35 0 101.5 76.5t165.5 229.5q1 2 5.5 9t12.5 19v1z
" />
    <glyph glyph-name="r" unicode="r" horiz-adv-x="541" 
d="M248 3q-17 -8 -30.5 -11.5t-23.5 -3.5q-25 0 -37 10t-12 32q0 11 4 39t13 73l25 123q11 53 16.5 93t5.5 66q0 14 -4 26t-12 22q26 8 46.5 12.5t36.5 4.5q17 0 26 -11t9 -32q0 -13 -6.5 -48.5t-18.5 -92.5l-28 -141q47 88 93.5 158t92.5 119q47 50 89.5 74.5t80.5 24.5
q14 0 25 -3.5t21 -11.5q10 -7 15 -16.5t5 -20.5q0 -17 -18.5 -39.5t-56.5 -51.5q-9 20 -22 29.5t-30 9.5q-31 0 -70.5 -33t-87.5 -99q-30 -41 -56 -83.5t-48 -86.5q-22 -43 -33 -74t-11 -50l1 -7v0z" />
    <glyph glyph-name="s" unicode="s" horiz-adv-x="429" 
d="M419 171q8 -20 12.5 -37t4.5 -34q0 -37 -15.5 -69.5t-46.5 -59.5t-68 -41t-79 -14q-25 0 -46 6t-38 19t-26 28t-9 31q0 20 12 39.5t36 38.5q24 20 64 43t95 49l-39 64q-36 56 -53.5 101t-17.5 78q0 46 27 83.5t81 65.5q33 -13 49.5 -28.5t16.5 -35.5q0 -28 -21 -54
t-63 -51l56 -102l43 -79q47 28 82 51.5t59 43.5q23 20 53 50.5t66 72.5l39 -23q-52 -71 -121 -130.5t-153 -106.5v1zM336 127q-72 -40 -107.5 -69.5t-35.5 -50.5q0 -19 14.5 -28.5t43.5 -9.5q22 0 39.5 7t30.5 22q14 13 20.5 31.5t6.5 41.5q0 14 -3 27.5t-9 27.5v1z" />
    <glyph glyph-name="t" unicode="t" horiz-adv-x="439" 
d="M499 193q6 -13 9.5 -23.5t3.5 -19.5q0 -24 -20 -50.5t-61 -55.5q-40 -28 -77 -42t-70 -14q-29 0 -53 12.5t-42 38.5q-19 26 -28 59.5t-9 74.5q0 46 12 111.5t36 150.5l23 83h-83q-26 -1 -46.5 -4.5t-35.5 -11.5q14 26 25.5 42t20.5 23q10 7 25.5 10t37.5 3l74 1l10 34
q11 37 24.5 62.5t29.5 39.5t39 21t54 7h4.5h5.5q3 -1 6.5 -1h7.5q-19 -25 -39 -66t-40 -98l258 1q33 -1 59 3.5t44 13.5q-6 -25 -14 -41.5t-18 -24.5q-10 -7 -29 -11t-47 -4l-274 1q-3 -10 -4.5 -16t-3.5 -9q-30 -101 -44.5 -177t-14.5 -127q0 -57 20.5 -85t61.5 -28
q21 0 43.5 9t47.5 26q25 18 43 38.5t28 42.5v1z" />
    <glyph glyph-name="u" unicode="u" horiz-adv-x="780" 
d="M571 300q-34 -70 -71.5 -126.5t-78.5 -100.5q-41 -43 -78.5 -64t-70.5 -21q-27 0 -48 8.5t-38 27.5t-25.5 43.5t-8.5 54.5q0 38 13 109t39 174q7 27 10.5 45t3.5 25q0 8 -2 15.5t-7 16.5l67 1q22 -1 33 -9t11 -25q0 -10 -7.5 -40.5t-21.5 -80.5q-4 -15 -6.5 -25.5
t-4.5 -15.5l-7 -29q-11 -46 -16.5 -80t-5.5 -57q0 -36 12.5 -54t37.5 -18q41 0 92.5 50.5t114.5 151.5q51 82 77 140.5t26 93.5q0 5 -1.5 10t-4.5 10q20 5 37 8t31 3q21 0 32 -6.5t11 -19.5q0 -4 -1 -8.5t-3 -10.5q-1 -4 -3.5 -13t-5.5 -23q-1 -3 -3 -12.5t-7 -26.5
q-3 -12 -5 -21.5t-4 -16.5l-5 -23q-8 -41 -12 -79t-4 -73q0 -54 13 -80.5t38 -26.5q57 0 129.5 80.5t160.5 241.5l41 -23q-100 -194 -191.5 -290t-174.5 -96q-56 0 -84 48t-28 145q0 18 1 41t3 51v1z" />
    <glyph glyph-name="v" unicode="v" horiz-adv-x="564" 
d="M269 -13q5 20 8 38.5t3 34.5q0 60 -12.5 126.5t-38.5 139.5t-56 128t-65 92q21 11 40.5 16.5t36.5 5.5q18 0 36 -15.5t36 -47.5q9 -15 18 -34.5t18 -43.5q28 -70 47.5 -155t31.5 -186q43 55 78 110.5t63 113.5t43.5 107.5t19.5 91.5q36 -15 54.5 -32t18.5 -35
q0 -16 -17.5 -53.5t-52.5 -96.5q-34 -58 -72.5 -113.5t-79.5 -108.5q-19 -25 -36 -41t-31 -24q-13 -6 -36 -10.5t-55 -7.5v0z" />
    <glyph glyph-name="w" unicode="w" horiz-adv-x="837" 
d="M225 -10q6 20 9 45t3 53q0 69 -8 137t-25 135t-37.5 114t-45.5 74q23 10 41 15t33 5q26 0 48.5 -30.5t40.5 -92.5q19 -61 31 -147t19 -197q36 47 66.5 96.5t55.5 101.5q25 53 37.5 94t12.5 71v2.5v3.5q-1 2 -1 4.5v5.5q21 8 37.5 12t27.5 4q21 0 32 -8t11 -25
q0 -5 -4.5 -32l-12.5 -75q-2 -12 -3.5 -22t-2.5 -19l-3 -32q-2 -20 -3 -42t-1 -46q0 -68 16 -102t47 -34q29 0 54 25t47 74q22 50 33 107t11 122q0 46 -11.5 73.5t-34.5 37.5q22 17 42 25.5t39 8.5q29 0 44 -23t15 -68q0 -67 -23.5 -144t-70.5 -164q-41 -76 -86 -113.5
t-94 -37.5q-55 0 -83 46t-28 140l3 115q-28 -64 -57 -116.5t-61 -95.5q-31 -41 -71 -61t-89 -20v0z" />
    <glyph glyph-name="x" unicode="x" horiz-adv-x="643" 
d="M328 163q-50 -70 -81 -135t-43 -129q-30 19 -44.5 37t-14.5 36q0 36 38.5 95t114.5 141q-17 30 -33.5 65.5t-31.5 78.5q-15 42 -22.5 72.5t-7.5 49.5q0 20 24 34t73 23q-2 -6 -3 -10.5t-1 -9.5q0 -45 19 -103.5t58 -132.5q63 74 95 132t32 101v8q2 -1 9 -0.5t17 1.5l6 1
q26 -1 39.5 -8.5t13.5 -21.5q0 -35 -47 -99t-141 -157q36 -57 75 -85t81 -28q74 0 152 76t162 227l41 -22q-55 -98 -105 -168.5t-95 -114.5q-46 -44 -92 -66t-93 -22q-55 0 -104 33t-91 100v1z" />
    <glyph glyph-name="y" unicode="y" horiz-adv-x="575" 
d="M334 2q-10 65 -29 129.5t-45 128.5q-27 65 -56 113.5t-60 82.5q18 15 36.5 22.5t37.5 7.5q17 0 30.5 -7.5t24.5 -21.5q11 -15 24.5 -45t29.5 -74q26 -70 45 -133.5t32 -120.5q83 131 127.5 245t51.5 211q42 -6 63.5 -20t21.5 -37t-19.5 -71t-57.5 -122
q-38 -73 -79.5 -139.5t-86.5 -127.5q-51 -69 -102 -124t-101 -95q-51 -41 -94.5 -61t-79.5 -20q-33 0 -48.5 14t-15.5 41q0 12 3 25t9 28q12 -8 28.5 -12.5t36.5 -4.5q71 0 139.5 47t133.5 140v1z" />
    <glyph glyph-name="z" unicode="z" horiz-adv-x="621" 
d="M562 75q8 -23 12 -40.5t4 -31.5q0 -62 -22 -119t-66 -107q-44 -51 -93.5 -76.5t-104.5 -25.5q-32 0 -58.5 8t-47.5 25q-21 16 -31.5 36t-10.5 45q0 51 75 120t225 156q-19 9 -40 13.5t-44 4.5q-36 0 -73.5 -9t-76.5 -27q-1 7 -1.5 12t-0.5 8q0 32 11.5 51.5t33.5 28.5
q13 19 38 50.5t62 76.5l125 153q-25 -8 -50.5 -13.5t-49.5 -8.5l-39 -3q-49 -7 -84.5 -20.5t-56.5 -34.5q6 47 16.5 76.5t26.5 42.5q16 14 48.5 20.5t81.5 6.5l43 1q47 -1 80 7t52 24q8 -13 12.5 -27.5t4.5 -28.5q0 -15 -10.5 -34.5t-31.5 -45.5q-6 -7 -30 -37.5t-68 -85.5
l-80 -102q16 1 29.5 2t23.5 1q38 0 71.5 -11.5t61.5 -34.5q92 62 171.5 138t145.5 167l40 -24q-54 -87 -135 -169t-189 -159v1zM484 27q-128 -81 -192 -141t-64 -98q0 -14 6 -25.5t16 -20.5q11 -10 25 -14.5t30 -4.5q35 0 69 18.5t66 56.5q32 37 48 77t16 81q0 9 -1.5 18
t-3.5 17q-3 9 -6.5 17.5t-8.5 17.5v1z" />
    <glyph glyph-name="braceleft" unicode="{" horiz-adv-x="560" 
d="M212 391q15 -8 28.5 -12t24.5 -4q42 0 73.5 43.5t52.5 131.5l11 46q30 128 85.5 193t137.5 65q32 0 49.5 -13.5t20.5 -40.5q-9 2 -16.5 2.5t-13.5 0.5q-31 0 -55 -9t-40 -26q-16 -18 -30.5 -52.5t-28.5 -85.5l-15 -56q-15 -54 -33.5 -94.5t-41.5 -68.5q-23 -27 -56 -47.5
t-75 -33.5q59 -20 89 -53t30 -78q0 -28 -8 -60t-23 -70l-14 -34q-11 -26 -16.5 -42.5t-5.5 -25.5q0 -31 23.5 -46.5t71.5 -15.5q12 0 25 2t26 5q-10 -28 -29.5 -42t-48.5 -14q-82 0 -123 29t-41 88q0 15 5.5 35t15.5 46l15 36q4 9 7.5 18t7.5 18q15 35 22.5 61t7.5 42
q0 20 -13.5 36t-40.5 29l-20 11q-22 9 -33 22.5t-11 31.5q0 5 1 13t2 18v1z" />
    <glyph glyph-name="bar" unicode="|" horiz-adv-x="301" 
d="M173 -145q-39 2 -58 12.5t-19 30.5q0 7 3.5 28t10.5 54l125 626q10 49 15 83.5t5 55.5q0 9 -1.5 18t-3.5 18q39 -6 59 -19.5t20 -34.5q0 -10 -3.5 -33t-11.5 -58q-3 -13 -5 -23l-3 -15l-123 -616q-7 -31 -10 -55t-3 -40q0 -6 1 -14t2 -18v0z" />
    <glyph glyph-name="braceright" unicode="}" horiz-adv-x="425" 
d="M502 432q-4 -20 -7.5 -32.5t-7.5 -18.5q-2 -3 -5.5 -5.5t-8.5 -5.5q-4 -3 -10 -5.5t-13 -5.5l-9 -1q-22 -9 -39.5 -22.5t-29.5 -32.5t-23 -51t-22 -77q-1 -5 -3.5 -15t-6.5 -25l-11 -46q-28 -116 -84 -174.5t-139 -58.5q-28 0 -44 12.5t-18 38.5q8 -2 15.5 -3.5
t14.5 -1.5q31 0 55 10t40 30q17 20 31.5 54.5t27.5 85.5l6 25q15 60 31.5 103.5t33.5 70.5t45.5 53t68.5 50q-52 6 -78 27.5t-26 58.5q0 26 9 59t27 74l16 37q17 36 25 61t8 38q0 32 -22.5 48t-66.5 16q-15 0 -30 -3t-30 -8q6 31 24.5 46.5t48.5 15.5q86 0 128.5 -29
t42.5 -87q0 -19 -9 -50.5t-26 -73.5l-13 -31q-18 -46 -27 -74.5t-9 -42.5q0 -21 17.5 -31.5t53.5 -10.5q11 0 23.5 1.5t25.5 5.5v1z" />
    <glyph glyph-name="asciitilde" unicode="~" horiz-adv-x="674" 
d="M175 207q-24 6 -35.5 20.5t-11.5 36.5t10.5 41.5t30.5 36.5q21 18 44.5 27t48.5 9q20 0 48.5 -11t65.5 -32l39 -20q39 -23 67 -34.5t45 -11.5q40 0 60 25t20 76q23 -9 35 -24t12 -36q0 -22 -10.5 -42.5t-31.5 -38.5q-22 -17 -46 -26t-52 -9q-25 0 -59 12t-76 37l-47 27
q-30 16 -51 24.5t-33 8.5q-16 0 -28.5 -6t-23.5 -18q-11 -13 -16.5 -27.5t-5.5 -31.5v-6t1 -8v1z" />
    <glyph glyph-name="exclamdown" unicode="&#xa1;" horiz-adv-x="383" 
d="M273 333q3 -1 9.5 0.5t16.5 3.5q3 1 7.5 1.5t8.5 0.5q21 0 31.5 -9.5t10.5 -29.5q0 -10 -2 -26.5t-7 -38.5l-10 -48q-18 -91 -26.5 -172t-8.5 -156q0 -8 1 -16t3 -17q-22 -9 -36 -13.5t-22 -4.5q-24 0 -36 13t-12 39q0 23 9.5 74.5t28.5 130.5q9 37 16 67t11 54l7 35
q3 17 5 35t2 34q0 11 -2 21.5t-5 20.5v1zM404 412l-34 -6q-19 -5 -32 -7t-21 -2q-21 0 -31.5 11.5t-10.5 33.5q0 8 1 19t4 24l7 34l22 3q23 4 37.5 6.5t19.5 2.5q17 0 26 -9t9 -27q0 -5 -0.5 -10t-1.5 -10l-3 -11q0 -3 -0.5 -5.5t-0.5 -4.5v-5.5v-4.5q0 -10 2.5 -18t6.5 -15
v1z" />
    <glyph glyph-name="cent" unicode="&#xa2;" horiz-adv-x="674" 
d="M392 66l-7 -35q-5 -26 -7.5 -48t-2.5 -40v-15h-2.5t-2.5 -1h-2h-2q-9 0 -17 2.5t-16 8.5q-8 5 -12 10.5t-4 11.5q0 5 4.5 25.5t13.5 57.5q2 5 3.5 11t3.5 15q-85 20 -127 76.5t-42 150.5q0 61 19 113.5t57 97.5q38 46 89 76t115 45l6 33q4 18 6 33.5t2 27.5v3.5v4.5
q-1 2 -1 4.5v5.5q26 -3 38.5 -10.5t12.5 -20.5q0 -4 -1.5 -14t-4.5 -25q-3 -12 -5 -21.5t-3 -16.5l15 1q26 -1 48 -7t40 -18q17 -12 26 -27.5t9 -33.5q0 -13 -21.5 -27.5t-63.5 -28.5q1 5 1.5 8t0.5 6q0 26 -16.5 44.5t-49.5 28.5l-86 -441q8 -2 13 -2h9q38 0 78.5 19.5
t83.5 58.5q2 -8 2.5 -14t0.5 -11q0 -22 -14 -41.5t-42 -36.5t-64.5 -28.5t-80.5 -16.5v1zM442 577q-37 -12 -67.5 -36.5t-54.5 -61.5q-24 -36 -36.5 -77t-12.5 -85q0 -58 22 -100t65 -67l84 427v0z" />
    <glyph glyph-name="sterling" unicode="&#xa3;" horiz-adv-x="674" 
d="M169 77q59 44 88 105.5t29 139.5l-1 39h-20q-28 -1 -52 -5.5t-44 -12.5q7 20 15 33.5t16 19.5t23.5 9t37.5 3l21 1q-1 19 -1.5 32t-0.5 20q0 56 21.5 105t64.5 90q44 42 95 62.5t109 20.5q41 0 62 -14t21 -41q0 -13 -6.5 -29.5t-20.5 -35.5q-19 29 -46 43t-62 14
q-72 0 -107.5 -50t-35.5 -150q0 -4 0.5 -16t1.5 -31v-6t1 -5v-5.5v-4.5l28 1q51 -1 89 4.5t63 15.5q-1 -4 -2 -7t-1 -5q-6 -20 -13.5 -32.5t-16.5 -16.5q-10 -4 -35.5 -6t-67.5 -2l-41 1q0 -79 -36 -148.5t-108 -130.5q75 8 135.5 12t106.5 4q42 0 70 -6t41 -17
q13 -12 21 -38t10 -65q-37 19 -89 27.5t-120 8.5q-33 0 -64.5 -2t-61.5 -6l-41 -4l-14 -2t-12 -2q-9 -2 -15 -3t-11 -1q-16 0 -23.5 7t-7.5 21q0 3 1 9.5t2 16.5q0 2 0.5 7l1.5 15l2 13v0z" />
    <glyph glyph-name="currency" unicode="&#xa4;" horiz-adv-x="674" 
d="M249 190q-60 -49 -100 -89t-61 -73q-12 17 -18 30t-6 23q0 21 37.5 57t113.5 88q-12 21 -17.5 45.5t-5.5 52.5q0 40 16 80t48 80q-4 5 -16.5 19t-32.5 36q-16 18 -35 32.5t-40 24.5q15 13 29.5 19.5t28.5 6.5q23 0 50 -26t58 -77q35 27 70 41t71 14q33 0 65 -12.5
t63 -36.5q57 57 94.5 86t55.5 29q14 0 27.5 -9.5t25.5 -28.5q-34 -10 -76.5 -38.5t-94.5 -74.5q12 -22 18 -47.5t6 -52.5q0 -40 -18 -82t-53 -85q41 -43 73.5 -69t57.5 -35q-16 -12 -31 -17.5t-27 -5.5q-16 0 -43.5 24t-67.5 73q-34 -25 -69 -37t-71 -12q-33 0 -64.5 11.5
t-60.5 34.5v1zM376 216q34 -1 64 13t57 41q27 28 40.5 59t13.5 65q0 24 -8 43t-23 34q-16 15 -36 22.5t-44 7.5q-34 0 -65 -13.5t-58 -40.5q-26 -27 -39.5 -58.5t-13.5 -67.5q0 -22 8 -41.5t24 -34.5t36 -22.5t44 -7.5v1z" />
    <glyph glyph-name="yen" unicode="&#xa5;" horiz-adv-x="674" 
d="M461 337l-2 -6h25q68 -1 112 1.5t65 7.5q-12 -19 -24.5 -31.5t-25.5 -17.5t-38.5 -7.5t-65.5 -2.5l-36 2h-21l-14 -73h13q53 -1 93 3.5t66 13.5q-6 -36 -27 -54t-57 -18h-16t-20 1q-14 1 -25.5 1.5t-20.5 0.5l-16 1l-13 -63l-6.5 -39t-2.5 -22t1.5 -14.5t4.5 -15.5
q-25 -11 -47.5 -17t-42.5 -6q-13 0 -19.5 5t-6.5 14q0 5 2.5 20.5t7.5 40.5l19 97h-59q-36 -1 -65.5 -5.5t-52.5 -13.5q12 36 34 54t53 18h8h9q5 -1 10 -1h10q20 -1 32.5 -1.5t16.5 -0.5l14 1l15 73h-16q-46 -1 -80 -5.5t-54 -13.5q3 35 22.5 52t55.5 17h10h10q4 -1 9 -1h10
q14 -1 22 -1.5t10 -0.5l10 1l1 6q-14 66 -36.5 127.5t-53.5 117.5q-30 56 -60.5 93t-62.5 56q26 18 45.5 27t32.5 9q47 0 102 -96t118 -288q48 43 90 86.5t79 89.5q36 45 54 76.5t18 50.5q0 10 -4 19t-12 16q20 9 36.5 13.5t28.5 4.5q20 0 30 -10.5t10 -31.5
q0 -24 -24 -63.5t-72 -95.5q-49 -55 -103 -105.5t-113 -96.5v1z" />
    <glyph glyph-name="brokenbar" unicode="&#xa6;" 
 />
    <glyph glyph-name="section" unicode="&#xa7;" horiz-adv-x="674" 
d="M180 7q24 -51 60.5 -77t85.5 -26q29 0 53 9t44 27q21 17 31 38t10 43q0 30 -27 59.5t-80 57.5l-34 19q-6 2 -17 8t-28 15q-49 25 -73 56.5t-24 68.5q0 47 28 85.5t85 68.5q-23 20 -34.5 43.5t-11.5 51.5q0 36 18.5 68t55.5 60q37 29 79 43t88 14q57 0 86 -15t29 -45
q0 -12 -7 -26t-21 -31q-18 32 -45 47.5t-65 15.5q-29 0 -53.5 -8t-44.5 -24t-30 -35.5t-10 -42.5q0 -22 22 -44t65 -44l40 -20q74 -38 111 -81t37 -93q0 -40 -24.5 -76t-72.5 -68q23 -23 35 -48t12 -52q0 -37 -19.5 -70.5t-58.5 -63.5t-83 -45t-93 -15q-30 0 -57 6.5
t-51 18.5q-23 13 -35 27t-12 30q0 12 9 29.5t27 39.5v1zM467 179q29 16 43.5 36t14.5 45q0 22 -8 40t-24 32q-16 15 -49.5 35t-85.5 45q-4 2 -10.5 5t-17.5 9q-35 -22 -52.5 -44.5t-17.5 -46.5q0 -22 23 -44.5t69 -46.5l42 -22q20 -11 38 -22t35 -22v1z" />
    <glyph glyph-name="dieresis" unicode="&#xa8;" horiz-adv-x="674" 
d="M557 710h10q36 -1 54.5 -7.5t18.5 -19.5q0 -10 -2 -25t-7 -34h-8t-8 1h-9h-8q-21 0 -31.5 9t-10.5 27l2 19v2.5t1 2.5v4v4q0 5 -0.5 8.5t-1.5 7.5v1zM363 711h12q36 -1 54 -7.5t18 -20.5q0 -10 -2 -25t-7 -33h-8.5t-8.5 1h-8h-8q-21 0 -31.5 9t-10.5 27l2 18v2.5t1 3.5v4
v4q0 4 -0.5 8t-2.5 8v1z" />
    <glyph glyph-name="copyright" unicode="&#xa9;" horiz-adv-x="876" 
d="M290 614q8 62 70 94t179 32q80 0 147 -23.5t119 -70.5q53 -46 79 -105.5t26 -131.5q0 -88 -32 -164t-97 -139t-143 -93.5t-170 -30.5q-76 0 -140.5 24t-115.5 73q-51 50 -76.5 111.5t-25.5 135.5q0 50 12 94.5t36 82.5t57 66t75 44v1zM373 553q-10 2 -19.5 4t-18.5 2
q-33 0 -62 -17.5t-55 -52.5q-25 -34 -38 -75t-13 -87q0 -64 21.5 -116t64.5 -93q43 -40 98.5 -60t123.5 -20q79 0 147 26.5t123 79.5q56 53 84 117.5t28 140.5q0 63 -22 114t-66 91q-43 39 -100.5 59t-128.5 20q-63 0 -115.5 -16.5t-94.5 -48.5q9 2 16 3t13 1q14 0 21 -6
t7 -18t-3.5 -24t-10.5 -25v1zM672 242q-43 -50 -92 -74.5t-105 -24.5q-35 0 -64 10.5t-52 31.5q-22 20 -34 46.5t-12 57.5q0 54 22.5 103t66.5 93q45 44 94 66.5t103 22.5q45 0 67.5 -12.5t22.5 -37.5q0 -12 -6 -25.5t-17 -29.5q-13 32 -37 47.5t-60 15.5q-34 0 -65 -18
t-60 -55q-28 -36 -42.5 -75t-14.5 -83q0 -52 28 -78t83 -26q42 0 79.5 17.5t70.5 53.5l24 -26v0z" />
    <glyph glyph-name="ordfeminine" unicode="&#xaa;" horiz-adv-x="650" 
d="M471 539q-25 -48 -49.5 -83t-48.5 -58q-25 -24 -49.5 -35.5t-49.5 -11.5q-43 0 -65 29t-22 87q0 52 19 98.5t57 89.5q38 42 80.5 63t89.5 21q26 0 48 -7.5t41 -21.5q15 13 33.5 19.5t40.5 6.5q8 0 16.5 -0.5t18.5 -2.5q-24 -27 -42 -71.5t-30 -106.5l-4 -16
q-3 -14 -4 -28.5t-1 -31.5q0 -34 10 -51t30 -17q14 0 30 9t35 28v-10q0 -20 -6.5 -36t-20.5 -28q-14 -11 -32 -17t-41 -6q-46 0 -69 28t-23 84q0 14 2 32.5t6 42.5v1zM492 651q-23 16 -45.5 25t-44.5 9q-26 0 -50 -14t-44 -42t-30 -61t-10 -71q0 -34 8.5 -51t26.5 -17
q26 0 73 55t116 166v1z" />
    <glyph glyph-name="guillemotleft" unicode="&#xab;" horiz-adv-x="777" 
d="M247 273q89 47 148.5 102.5t90.5 116.5q3 -2 5.5 -3.5t3.5 -2.5q11 -7 16.5 -15.5t5.5 -17.5q0 -27 -42.5 -78t-127.5 -126q11 -28 26 -50.5t35 -41.5q10 -9 20 -15.5t20 -11.5q9 -4 19 -6.5t20 -2.5l7 1q-16 -17 -31 -25t-29 -8q-48 0 -94.5 46t-92.5 137v1zM519 273
q88 47 147.5 102.5t90.5 116.5q3 -2 5.5 -3.5t4.5 -2.5q11 -7 16 -15.5t5 -17.5q0 -27 -42.5 -78t-126.5 -126q10 -28 25 -50.5t35 -41.5q20 -18 40 -27t39 -9l7 1q-16 -17 -30.5 -25t-28.5 -8q-48 0 -94.5 46t-92.5 137v1z" />
    <glyph glyph-name="logicalnot" unicode="&#xac;" horiz-adv-x="674" 
d="M154 435q30 -13 81.5 -18.5t124.5 -5.5l100 1q65 -1 107 -5t60 -13q18 -8 27 -27t9 -50q0 -76 -27.5 -114t-81.5 -38l-11 1q17 22 25.5 49t8.5 59q0 20 -7.5 32.5t-22.5 17.5q-15 6 -47.5 9t-82.5 3l-85 1q-60 -1 -97.5 2t-52.5 8q-16 6 -24 19.5t-8 35.5q0 6 1 14t3 18
v1z" />
    <glyph glyph-name="sfthyphen" unicode="&#xad;" 
 />
    <glyph glyph-name="registered" unicode="&#xae;" horiz-adv-x="674" 
d="M434 304q-49 -1 -89.5 14t-72.5 45q-32 29 -48 66.5t-16 82.5q0 48 16.5 89t50.5 73t76 48.5t92 16.5q47 0 86 -15t70 -45q32 -29 47.5 -66t15.5 -81q0 -47 -16.5 -87.5t-51.5 -74.5q-34 -34 -73.5 -50.5t-86.5 -16.5v1zM433 352q38 -1 70 12t58 38q26 26 39 57t13 68
q0 35 -12 64t-38 53q-25 24 -56 35.5t-68 11.5t-69 -13t-59 -39q-26 -26 -39.5 -57.5t-13.5 -68.5q0 -35 12.5 -64t37.5 -52t56.5 -34.5t68.5 -11.5v1zM404 519l-8 -38q-4 -19 -5.5 -31.5t-1.5 -19.5t2.5 -14.5t6.5 -15.5l-11 1q-25 -1 -37 5.5t-12 19.5q0 2 3 17.5t9 45.5
l28 146q25 7 44.5 10.5t32.5 3.5q40 0 60 -15.5t20 -46.5q0 -27 -18.5 -46.5t-54.5 -33.5q20 -34 37 -55.5t33 -30.5q-13 -10 -24 -14.5t-20 -4.5q-10 0 -17.5 4t-13.5 12q-5 8 -18.5 33t-34.5 67v1zM405 527q40 3 60 16t20 35q0 14 -9.5 21.5t-28.5 7.5q-5 0 -12 -2t-15 -5
l-15 -73v0z" />
    <glyph glyph-name="overstore" unicode="&#xaf;" 
 />
    <glyph glyph-name="glyph113" unicode="&#xb0;" 
 />
    <glyph glyph-name="plusminus" unicode="&#xb1;" horiz-adv-x="674" 
d="M73 -26q12 52 47 78t93 26q14 0 32.5 -0.5t41.5 -1.5l71 -3q26 -2 52.5 -3t51.5 -1q39 0 70.5 5.5t56.5 17.5q-12 -49 -35.5 -73t-58.5 -24l-112 4l-90 2l-87 1q-37 -1 -70.5 -7.5t-62.5 -20.5v0zM364 325h-68q-63 -1 -104.5 -8.5t-61.5 -21.5q2 6 3 11t2 8
q6 25 15.5 41.5t21.5 24.5q13 8 34.5 12t52.5 4l48 1h71l4 20q8 40 12 70t4 50q0 8 -1.5 18t-3.5 23q9 2 16.5 3.5t13.5 1.5q27 0 40.5 -11t13.5 -32q0 -7 -4.5 -32.5t-13.5 -69.5l-8 -41h35q71 -1 120.5 7t78.5 24q-8 -32 -19.5 -53.5t-25.5 -31.5t-41 -14.5t-68 -4.5
l-94 1l-6 -29q-7 -35 -10.5 -64.5t-3.5 -52.5q0 -7 1.5 -15.5t4.5 -19.5q-7 -1 -12.5 -1.5t-8.5 -0.5q-31 0 -47 10.5t-16 31.5q0 8 4 31.5t12 62.5l9 47v0z" />
    <glyph glyph-name="twosuperior" unicode="&#xb2;" 
 />
    <glyph glyph-name="threesuperior" unicode="&#xb3;" 
 />
    <glyph glyph-name="acute" unicode="&#xb4;" horiz-adv-x="674" 
d="M434 626q12 9 22 19t19 20l23 29q20 23 36.5 39t29.5 24q14 8 30.5 11.5t35.5 3.5q17 0 32.5 -1.5t28.5 -4.5q-19 -9 -41 -24t-46 -36l-21 -16q-19 -17 -37.5 -29t-36.5 -20q-19 -8 -37.5 -12t-37.5 -4v1z" />
    <glyph glyph-name="mu" unicode="&#xb5;" horiz-adv-x="803" 
d="M577 295q-84 -155 -159.5 -231t-142.5 -76q-15 0 -27.5 3t-23.5 8l-7 -35q-6 -29 -8.5 -56t-2.5 -51q0 -15 3 -28t10 -23q-28 -8 -47.5 -12t-29.5 -4q-19 0 -28.5 13.5t-9.5 39.5q0 18 4 45t11 64l72 367q12 55 18 95.5t6 65.5q0 14 -4.5 25.5t-12.5 20.5q29 7 49 10.5
t32 3.5q18 0 27.5 -13.5t9.5 -40.5q0 -16 -7.5 -62t-22.5 -121l-9 -38q-10 -46 -14.5 -75.5t-4.5 -43.5q0 -37 12 -55.5t37 -18.5q38 0 84.5 43t103.5 128q62 93 93 158.5t31 102.5q0 6 -1.5 13t-3.5 14q21 5 38 7t30 2q21 0 31.5 -6.5t10.5 -18.5q0 -3 -7.5 -34.5
t-22.5 -91.5q-1 -3 -2 -6.5t-1 -7.5q-1 -4 -2 -8.5t-2 -9.5l-10 -50q-6 -30 -8.5 -61.5t-2.5 -66.5q0 -59 16 -88.5t47 -29.5q15 0 36 10.5t48 31.5q-3 -31 -11.5 -52.5t-23.5 -34.5t-37.5 -19t-54.5 -6q-57 0 -85.5 47t-28.5 141q0 30 1 59t4 56v1z" />
    <glyph glyph-name="paragraph" unicode="&#xb6;" horiz-adv-x="674" 
d="M458 -84q-33 3 -49.5 15t-16.5 33q0 14 4.5 42.5t13.5 73.5l43 218q-7 -2 -12 -2h-7q-7 0 -17.5 1t-22.5 3q-3 0 -6.5 0.5t-8.5 1.5l-46 -234q-12 -58 -18 -102t-6 -76q0 -6 1 -14t3 -17q-6 -1 -10 -1.5t-7 -0.5q-23 0 -34.5 7.5t-11.5 22.5q0 7 8 49.5t24 119.5l51 258
q-75 20 -112.5 62t-37.5 103q0 42 16 79t47 68q32 32 73 52.5t93 30.5l3 19q2 5 2.5 12t0.5 14q0 18 -4.5 32t-12.5 24h3t2 1h3h2q8 2 15 3t12 1q17 0 25 -8.5t8 -25.5q0 -8 -2 -21t-5 -31l-3 -12q12 1 22 1.5t18 0.5h36l3 13q2 7 2.5 14.5t0.5 13.5q0 9 -2 19.5t-7 20.5
q8 2 14.5 2.5t12.5 0.5q19 0 28.5 -6.5t9.5 -20.5q0 -5 -2 -13t-5 -19q-3 -7 -4 -11.5t-1 -6.5l-2 -9q59 -11 88 -29t29 -44q0 -10 -4.5 -22t-12.5 -24q-16 27 -44 44.5t-66 25.5l-63 -319q31 2 58.5 12t51.5 26q0 -22 -6.5 -37.5t-19.5 -25.5t-36.5 -16.5t-58.5 -10.5
l-40 -202q-7 -39 -11 -67t-4 -46q0 -17 3 -33.5t9 -32.5v0zM528 674q-18 -1 -37 -2.5t-39 -4.5l-62 -307q17 -5 35.5 -8t37.5 -5l65 327v0zM401 658q-71 -28 -106.5 -68.5t-35.5 -94.5q0 -40 21.5 -70t64.5 -50l56 283v0z" />
    <glyph glyph-name="middot" unicode="&#xb7;" 
 />
    <glyph glyph-name="cedilla" unicode="&#xb8;" horiz-adv-x="674" 
d="M350 0l-38 -46q35 -8 52 -22.5t17 -36.5q0 -17 -8 -32.5t-24 -28.5t-33.5 -19.5t-37.5 -6.5q-28 0 -43.5 13.5t-17.5 40.5q14 -5 25 -7t19 -2q27 0 41 9t14 27q0 16 -18 26.5t-53 15.5l55 69h50v0z" />
    <glyph glyph-name="onesuperior" unicode="&#xb9;" 
 />
    <glyph glyph-name="ordmasculine" unicode="&#xba;" horiz-adv-x="650" 
d="M368 678q13 31 43 46.5t77 15.5q29 0 52.5 -7.5t40.5 -23.5q17 -15 25.5 -35.5t8.5 -46.5q0 -52 -20.5 -100t-61.5 -92q-41 -43 -86 -65t-95 -22q-64 0 -95.5 29.5t-31.5 88.5q0 37 10 70t30 62t46 49t57 30v1zM449 612q-11 6 -21.5 9.5t-20.5 3.5q-19 0 -35.5 -9.5
t-30.5 -29.5q-14 -19 -21.5 -41.5t-7.5 -48.5q0 -46 19 -68.5t56 -22.5q26 0 50.5 15t46.5 46q22 30 33 63t11 69q0 44 -18.5 66t-56.5 22q-9 0 -20 -3.5t-23 -9.5q20 -9 29.5 -24t9.5 -38v1z" />
    <glyph glyph-name="guillemotright" unicode="&#xbb;" horiz-adv-x="777" 
d="M526 261q-93 -49 -155.5 -106t-95.5 -123q-15 11 -22 23.5t-7 25.5q0 30 40.5 76.5t121.5 109.5q-49 47 -73.5 87.5t-24.5 74.5q0 11 5 20.5t15 19.5q29 -63 78 -115.5t118 -93.5v1zM798 261q-93 -49 -156 -106t-95 -123q-15 11 -22 23.5t-7 25.5q0 30 40 76.5t121 109.5
q-49 47 -73.5 87.5t-24.5 74.5q0 11 5.5 20.5t15.5 19.5q29 -63 77.5 -115.5t118.5 -93.5v1z" />
    <glyph glyph-name="onequarter" unicode="&#xbc;" 
 />
    <glyph glyph-name="onehalf" unicode="&#xbd;" 
 />
    <glyph glyph-name="threequarters" unicode="&#xbe;" 
 />
    <glyph glyph-name="questiondown" unicode="&#xbf;" horiz-adv-x="554" 
d="M367 338q8 4 18.5 7t22.5 3q29 0 44 -12.5t15 -38.5q0 -35 -26 -74t-79 -83l-22 -17q-59 -50 -88.5 -92.5t-29.5 -79.5q0 -46 25 -69t74 -23q51 0 95.5 30t81.5 89q5 -8 7.5 -18t2.5 -21q0 -26 -18.5 -51t-56.5 -50q-37 -24 -77 -36t-81 -12q-35 0 -63 9t-48 27t-30.5 43
t-10.5 57q0 46 32 93t96 96l19 15q54 41 81.5 82.5t27.5 82.5q0 10 -3 20.5t-9 21.5v1zM485 412l-35 -6q-18 -5 -31 -7t-21 -2q-21 0 -31.5 11.5t-10.5 33.5q0 9 1 19.5t4 23.5l7 34l22 3q23 4 37.5 6.5t19.5 2.5q17 0 25.5 -9t8.5 -27q0 -5 -0.5 -10t-1.5 -10l-2 -11
q0 -3 -0.5 -5.5t-0.5 -4.5v-5.5v-4.5q0 -10 2.5 -18t6.5 -15v1z" />
    <glyph glyph-name="Agrave" unicode="&#xc0;" horiz-adv-x="761" 
d="M264 240l-10 -19q-31 -59 -46 -103t-15 -76q0 -9 3.5 -18t10.5 -18q-6 -2 -19.5 -6t-33.5 -11q-10 -3 -19 -5t-17 -2q-17 0 -25.5 8t-8.5 23q0 34 21 85.5t63 121.5l16 26h-25q-40 -1 -71 -7.5t-53 -18.5q11 41 42 62t81 21l61 -1l13 20q38 56 96.5 134t137.5 175
q27 33 47 53.5t33 28.5t38.5 15t63.5 14q-7 -44 -10.5 -84.5t-3.5 -78.5q0 -100 11.5 -202t34.5 -205q13 -57 32.5 -93t45.5 -53q-23 -22 -42.5 -33t-36.5 -11q-39 0 -68.5 65.5t-50.5 197.5q-20 -2 -40.5 -4t-40.5 -3q-21 -1 -41.5 -1.5t-40.5 -0.5l-133 4v0zM299 297
l99 -2q50 -1 89 0.5t66 5.5q-12 86 -17.5 156.5t-5.5 127.5l1 38q-8 -11 -26 -33.5t-47 -56.5q-51 -63 -88 -117t-60 -101l-11 -18v0zM670 783q-6 -2 -10 -2h-7q-28 0 -56.5 15t-57.5 45q-25 26 -37.5 43.5t-12.5 26.5v1.5v0.5q1 12 21 23t60 21q15 -52 40 -96t60 -79v1z
" />
    <glyph glyph-name="Aacute" unicode="&#xc1;" horiz-adv-x="761" 
d="M264 240l-10 -19q-31 -59 -46 -103t-15 -76q0 -9 3.5 -18t10.5 -18q-6 -2 -19.5 -6t-33.5 -11q-10 -3 -19 -5t-17 -2q-17 0 -25.5 8t-8.5 23q0 34 21 85.5t63 121.5l16 26h-25q-40 -1 -71 -7.5t-53 -18.5q11 41 42 62t81 21l61 -1l13 20q38 56 96.5 134t137.5 175
q27 33 47 53.5t33 28.5t38.5 15t63.5 14q-7 -44 -10.5 -84.5t-3.5 -78.5q0 -100 11.5 -202t34.5 -205q13 -57 32.5 -93t45.5 -53q-23 -22 -42.5 -33t-36.5 -11q-39 0 -68.5 65.5t-50.5 197.5q-20 -2 -40.5 -4t-40.5 -3q-21 -1 -41.5 -1.5t-40.5 -0.5l-133 4v0zM299 297
l99 -2q50 -1 89 0.5t66 5.5q-12 86 -17.5 156.5t-5.5 127.5l1 38q-8 -11 -26 -33.5t-47 -56.5q-51 -63 -88 -117t-60 -101l-11 -18v0zM509 783q12 9 22 19t19 20l23 29q20 23 36.5 39t29.5 24q14 8 30.5 11.5t36.5 3.5q17 0 32.5 -1.5t28.5 -4.5q-20 -9 -42 -24t-46 -36
l-20 -16q-37 -33 -74.5 -49t-75.5 -16v1z" />
    <glyph glyph-name="Acircumflex" unicode="&#xc2;" horiz-adv-x="761" 
d="M264 240l-10 -19q-31 -59 -46 -103t-15 -76q0 -9 3.5 -18t10.5 -18q-6 -2 -19.5 -6t-33.5 -11q-10 -3 -19 -5t-17 -2q-17 0 -25.5 8t-8.5 23q0 34 21 85.5t63 121.5l16 26h-25q-40 -1 -71 -7.5t-53 -18.5q11 41 42 62t81 21l61 -1l13 20q38 56 96.5 134t137.5 175
q27 33 47 53.5t33 28.5t38.5 15t63.5 14q-7 -44 -10.5 -84.5t-3.5 -78.5q0 -100 11.5 -202t34.5 -205q13 -57 32.5 -93t45.5 -53q-23 -22 -42.5 -33t-36.5 -11q-39 0 -68.5 65.5t-50.5 197.5q-20 -2 -40.5 -4t-40.5 -3q-21 -1 -41.5 -1.5t-40.5 -0.5l-133 4v0zM299 297
l99 -2q50 -1 89 0.5t66 5.5q-12 86 -17.5 156.5t-5.5 127.5l1 38q-8 -11 -26 -33.5t-47 -56.5q-51 -63 -88 -117t-60 -101l-11 -18v0zM607 873q-49 -46 -89 -68.5t-71 -22.5q-7 0 -17 1.5t-21 5.5q42 28 71.5 49t45.5 34l17 15q24 19 56 32.5t71 19.5q8 -49 24.5 -88.5
t41.5 -68.5q-25 0 -43.5 4t-29.5 12t-25 26.5t-31 47.5v1z" />
    <glyph glyph-name="Atilde" unicode="&#xc3;" horiz-adv-x="761" 
d="M264 240l-10 -19q-31 -59 -46 -103t-15 -76q0 -9 3.5 -18t10.5 -18q-6 -2 -19.5 -6t-33.5 -11q-10 -3 -19 -5t-17 -2q-17 0 -25.5 8t-8.5 23q0 34 21 85.5t63 121.5l16 26h-25q-40 -1 -71 -7.5t-53 -18.5q11 41 42 62t81 21l61 -1l13 20q38 56 96.5 134t137.5 175
q27 33 47 53.5t33 28.5t38.5 15t63.5 14q-7 -44 -10.5 -84.5t-3.5 -78.5q0 -100 11.5 -202t34.5 -205q13 -57 32.5 -93t45.5 -53q-23 -22 -42.5 -33t-36.5 -11q-39 0 -68.5 65.5t-50.5 197.5q-20 -2 -40.5 -4t-40.5 -3q-21 -1 -41.5 -1.5t-40.5 -0.5l-133 4v0zM299 297
l99 -2q50 -1 89 0.5t66 5.5q-12 86 -17.5 156.5t-5.5 127.5l1 38q-8 -11 -26 -33.5t-47 -56.5q-51 -63 -88 -117t-60 -101l-11 -18v0zM500 777q-22 5 -32.5 15t-10.5 23q0 15 8 28.5t24 26.5t33 19.5t35 6.5q15 0 29.5 -4.5t28.5 -12.5l14 -8q13 -9 24 -13t20 -4
q20 0 30.5 13t13.5 40q21 -6 31.5 -16.5t10.5 -24.5q0 -15 -8 -29t-24 -28q-16 -13 -33 -20t-34 -7q-12 0 -28.5 6t-38.5 19l-19 12q-10 5 -19.5 8t-18.5 3q-18 0 -27 -11t-9 -34v-8v0z" />
    <glyph glyph-name="Adieresis" unicode="&#xc4;" horiz-adv-x="761" 
d="M264 240l-10 -19q-31 -59 -46 -103t-15 -76q0 -9 3.5 -18t10.5 -18q-6 -2 -19.5 -6t-33.5 -11q-10 -3 -19 -5t-17 -2q-17 0 -25.5 8t-8.5 23q0 34 21 85.5t63 121.5l16 26h-25q-40 -1 -71 -7.5t-53 -18.5q11 41 42 62t81 21l61 -1l13 20q38 56 96.5 134t137.5 175
q27 33 47 53.5t33 28.5t38.5 15t63.5 14q-7 -44 -10.5 -84.5t-3.5 -78.5q0 -100 11.5 -202t34.5 -205q13 -57 32.5 -93t45.5 -53q-23 -22 -42.5 -33t-36.5 -11q-39 0 -68.5 65.5t-50.5 197.5q-20 -2 -40.5 -4t-40.5 -3q-21 -1 -41.5 -1.5t-40.5 -0.5l-133 4v0zM299 297
l99 -2q50 -1 89 0.5t66 5.5q-12 86 -17.5 156.5t-5.5 127.5l1 38q-8 -11 -26 -33.5t-47 -56.5q-51 -63 -88 -117t-60 -101l-11 -18v0zM663 867h11q36 -1 54 -7.5t18 -20.5q0 -10 -2 -25t-7 -33h-8t-8 1h-8h-9q-21 0 -31 8.5t-10 26.5l2 19v6v8t-0.5 8t-1.5 8v1zM470 868h11
q36 -1 54 -7.5t18 -20.5q0 -11 -2 -25.5t-7 -32.5h-8.5t-8.5 1h-8h-8q-21 0 -31 8.5t-10 26.5l1 19v2.5t1 3.5v4v4q0 4 -0.5 8t-1.5 8v1z" />
    <glyph glyph-name="Aring" unicode="&#xc5;" horiz-adv-x="761" 
d="M264 240l-10 -19q-31 -59 -46 -103t-15 -76q0 -9 3.5 -18t10.5 -18q-6 -2 -19.5 -6t-33.5 -11q-10 -3 -19 -5t-17 -2q-17 0 -25.5 8t-8.5 23q0 34 21 85.5t63 121.5l16 26h-25q-40 -1 -71 -7.5t-53 -18.5q11 41 42 62t81 21l61 -1l13 21q29 47 81 115.5t125 158.5
q18 22 32.5 39t24.5 30q9 12 19 21.5t20 16.5q-27 10 -40.5 25t-13.5 35q0 17 9.5 34.5t27.5 35.5t40 31.5t47 22.5q2 -7 3 -12.5t1 -9.5v-4.5v-5.5q38 -13 57.5 -32.5t19.5 -45.5q0 -21 -10.5 -37.5t-30.5 -28.5q-6 -32 -8.5 -63t-2.5 -61q0 -37 4 -89.5t11 -120.5
q4 -34 8 -63.5t8 -55.5t8 -48t8 -40q13 -56 32.5 -92t45.5 -53q-23 -22 -42.5 -33t-36.5 -11q-39 0 -68.5 65.5t-50.5 197.5q-20 -2 -40.5 -4t-40.5 -3q-21 -1 -41.5 -1.5t-40.5 -0.5l-133 4v0zM299 297l99 -2q50 -1 89 0.5t66 5.5q-12 86 -17.5 156.5t-5.5 127.5l1 38
q-8 -11 -26 -33.5t-47 -56.5q-51 -63 -88 -117t-60 -101l-11 -18v0zM592 830q-30 -20 -45 -35.5t-15 -27.5q0 -13 11 -19t33 -6q33 0 50 9t17 27q0 10 -12.5 22.5t-38.5 28.5v1z" />
    <glyph glyph-name="AE" unicode="&#xc6;" horiz-adv-x="940" 
d="M525 322h-231q-63 -97 -94.5 -168.5t-31.5 -118.5q0 -4 0.5 -7.5t1.5 -6.5q2 -4 3.5 -7.5t4.5 -7.5q-30 -11 -51.5 -17.5t-35.5 -6.5q-18 0 -27 8.5t-9 24.5q0 43 38.5 119.5t116.5 186.5l-20 1q-43 -1 -80 -8.5t-67 -21.5q10 31 21 49t23 23t46.5 8t91.5 3l26 1
q152 184 245.5 277t128.5 93q12 0 25.5 -6.5t28.5 -18.5l150 1q59 -1 114.5 5.5t106.5 19.5q-16 -26 -32 -43.5t-30 -26.5q-15 -8 -37 -12t-52 -4l-45 1h-159l-57 -286h101q47 -1 89.5 6t79.5 22q-14 -29 -27.5 -46.5t-27.5 -24.5q-13 -6 -44 -9t-80 -3l-102 1l-17 -85
q-9 -44 -13 -74t-4 -46q0 -31 32 -46t96 -15q57 0 112 11.5t107 33.5q-13 -36 -31.5 -58.5t-44.5 -30.5q-47 -14 -103 -22t-121 -8q-79 0 -118 24.5t-39 75.5q0 17 4 45t13 67l25 128v0zM536 376l56 286q-57 -49 -122 -120.5t-137 -166.5l203 1v0z" />
    <glyph glyph-name="Ccedilla" unicode="&#xc7;" horiz-adv-x="708" 
d="M704 201q5 -11 7 -20t2 -15q0 -28 -22.5 -56.5t-67.5 -57.5q-46 -28 -95.5 -45t-105.5 -23l-25 -31q35 -8 52.5 -22t17.5 -36q0 -17 -7.5 -32t-23.5 -28q-16 -14 -34 -20.5t-38 -6.5q-30 0 -45 13.5t-15 39.5q12 -5 23.5 -7t22.5 -2q26 0 39.5 9.5t13.5 27.5
q0 15 -18 25.5t-54 16.5l40 51q-64 4 -112 22.5t-81 52.5q-34 35 -50.5 83t-16.5 110q0 101 33 187.5t98 157.5q65 72 143.5 108t169.5 36q38 0 69 -6.5t56 -19.5q26 -13 38.5 -29t12.5 -36q0 -17 -11 -36t-33 -39q-30 59 -71.5 88.5t-95.5 29.5q-60 0 -112 -30.5t-96 -92.5
q-43 -61 -65.5 -133t-22.5 -155q0 -52 13.5 -93.5t39.5 -72.5t62 -46t81 -15q77 0 148.5 37t135.5 110v1z" />
    <glyph glyph-name="Egrave" unicode="&#xc8;" horiz-adv-x="620" 
d="M314 361l-25 -126q-8 -40 -12 -67.5t-4 -43.5q0 -33 31.5 -49t94.5 -16q62 0 117.5 11t103.5 33q-11 -37 -29 -59.5t-44 -30.5q-16 -5 -42.5 -10t-64.5 -10t-67.5 -8t-49.5 -3q-80 0 -120 26t-40 78q0 14 4 41.5t12 67.5l32 166h-7q-25 -1 -49 -6.5t-47 -16.5
q14 27 25 44t20 24q8 7 22 10.5t33 3.5l16 1l47 241h-14q-45 -1 -87 -15.5t-80 -43.5q12 39 28.5 64.5t38.5 36.5q17 8 68 12.5t136 4.5l146 1q69 -1 124.5 6t98.5 21q-19 -31 -36 -49.5t-32 -25.5t-47.5 -10t-82.5 -3l-158 1l-48 -241h101q53 -1 95.5 6t73.5 20
q-16 -31 -31 -49.5t-28 -24.5q-13 -7 -43.5 -10t-78.5 -3l-101 1v0zM557 783q-6 -2 -10 -2h-6q-29 0 -57.5 15t-57.5 45q-25 26 -37.5 43.5t-12.5 26.5q-1 13 19.5 24.5t61.5 21.5q15 -52 40 -96t60 -79v1z" />
    <glyph glyph-name="Eacute" unicode="&#xc9;" horiz-adv-x="620" 
d="M314 361l-25 -126q-8 -40 -12 -67.5t-4 -43.5q0 -33 31.5 -49t94.5 -16q62 0 117.5 11t103.5 33q-11 -37 -29 -59.5t-44 -30.5q-16 -5 -42.5 -10t-64.5 -10t-67.5 -8t-49.5 -3q-80 0 -120 26t-40 78q0 14 4 41.5t12 67.5l32 166h-7q-25 -1 -49 -6.5t-47 -16.5
q14 27 25 44t20 24q8 7 22 10.5t33 3.5l16 1l47 241h-14q-45 -1 -87 -15.5t-80 -43.5q12 39 28.5 64.5t38.5 36.5q17 8 68 12.5t136 4.5l146 1q69 -1 124.5 6t98.5 21q-19 -31 -36 -49.5t-32 -25.5t-47.5 -10t-82.5 -3l-158 1l-48 -241h101q53 -1 95.5 6t73.5 20
q-16 -31 -31 -49.5t-28 -24.5q-13 -7 -43.5 -10t-78.5 -3l-101 1v0zM397 783q11 9 21 19t19 20l23 29q20 23 37 39t30 24q14 8 30.5 11.5t35.5 3.5q17 0 32.5 -1.5t28.5 -4.5q-19 -9 -41.5 -24t-46.5 -36l-20 -16q-19 -17 -37.5 -29t-36.5 -20q-19 -8 -37.5 -12t-37.5 -4v1z
" />
    <glyph glyph-name="Ecircumflex" unicode="&#xca;" horiz-adv-x="620" 
d="M314 361l-25 -126q-8 -40 -12 -67.5t-4 -43.5q0 -33 31.5 -49t94.5 -16q62 0 117.5 11t103.5 33q-11 -37 -29 -59.5t-44 -30.5q-16 -5 -42.5 -10t-64.5 -10t-67.5 -8t-49.5 -3q-80 0 -120 26t-40 78q0 14 4 41.5t12 67.5l32 166h-7q-25 -1 -49 -6.5t-47 -16.5
q14 27 25 44t20 24q8 7 22 10.5t33 3.5l16 1l47 241h-14q-45 -1 -87 -15.5t-80 -43.5q12 39 28.5 64.5t38.5 36.5q17 8 68 12.5t136 4.5l146 1q69 -1 124.5 6t98.5 21q-19 -31 -36 -49.5t-32 -25.5t-47.5 -10t-82.5 -3l-158 1l-48 -241h101q53 -1 95.5 6t73.5 20
q-16 -31 -31 -49.5t-28 -24.5q-13 -7 -43.5 -10t-78.5 -3l-101 1v0zM507 873q-49 -46 -89.5 -68.5t-71.5 -22.5q-7 0 -17 1.5t-21 5.5q42 28 71.5 49t45.5 34l17 15q25 19 56.5 32.5t70.5 19.5q8 -49 24.5 -88.5t41.5 -68.5q-25 0 -43.5 4t-29.5 12q-10 8 -24 26.5t-31 47.5
v1z" />
    <glyph glyph-name="Edieresis" unicode="&#xcb;" horiz-adv-x="620" 
d="M314 361l-25 -126q-8 -40 -12 -67.5t-4 -43.5q0 -33 31.5 -49t94.5 -16q62 0 117.5 11t103.5 33q-11 -37 -29 -59.5t-44 -30.5q-16 -5 -42.5 -10t-64.5 -10t-67.5 -8t-49.5 -3q-80 0 -120 26t-40 78q0 14 4 41.5t12 67.5l32 166h-7q-25 -1 -49 -6.5t-47 -16.5
q14 27 25 44t20 24q8 7 22 10.5t33 3.5l16 1l47 241h-14q-45 -1 -87 -15.5t-80 -43.5q12 39 28.5 64.5t38.5 36.5q17 8 68 12.5t136 4.5l146 1q69 -1 124.5 6t98.5 21q-19 -31 -36 -49.5t-32 -25.5t-47.5 -10t-82.5 -3l-158 1l-48 -241h101q53 -1 95.5 6t73.5 20
q-16 -31 -31 -49.5t-28 -24.5q-13 -7 -43.5 -10t-78.5 -3l-101 1v0zM526 867h11q36 -1 54 -7.5t18 -20.5q0 -10 -2 -25t-6 -33h-8t-9 1h-8h-9q-21 0 -31 8.5t-10 26.5l2 19v6v8t-0.5 8t-1.5 8v1zM333 868h11q36 -1 54 -7.5t18 -20.5q0 -11 -2 -25.5t-6 -32.5h-8.5t-8.5 1h-8
h-8q-21 0 -31.5 8.5t-10.5 26.5l1 19v2.5t1 3.5v4v4q0 4 -0.5 8t-1.5 8v1z" />
    <glyph glyph-name="Igrave" unicode="&#xcc;" horiz-adv-x="545" 
d="M450 670l-121 -607q47 5 80 8.5t52 3.5q32 0 48 -22t16 -65q-18 6 -36.5 9t-38.5 3q-19 0 -42.5 -1.5t-51.5 -5.5l-111 -14q-30 -5 -50.5 -7t-32.5 -2q-21 0 -35.5 5t-22.5 15q-9 9 -14 26.5t-7 42.5q17 -10 35 -14.5t37 -4.5q11 0 28 1.5t41 5.5l121 609
q-27 -5 -49.5 -7.5t-42.5 -2.5q-34 0 -50.5 19.5t-16.5 59.5q9 -7 21 -10t27 -3q17 0 42.5 3t59.5 10l78 16q40 6 70.5 9.5t52.5 3.5q33 0 52 -22t24 -66q-14 6 -28.5 9.5t-28.5 3.5q-19 0 -40.5 -2t-44.5 -5q-4 -1 -9 -1.5t-12 -1.5v1zM471 783q-6 -2 -10 -2h-7
q-29 0 -57.5 15t-57.5 45q-24 26 -36.5 43.5t-12.5 26.5v1.5v0.5q1 12 21 23t60 21q14 -52 39 -96t61 -79v1z" />
    <glyph glyph-name="Iacute" unicode="&#xcd;" horiz-adv-x="545" 
d="M450 670l-121 -607q47 5 80 8.5t52 3.5q32 0 48 -22t16 -65q-18 6 -36.5 9t-38.5 3q-19 0 -42.5 -1.5t-51.5 -5.5l-111 -14q-30 -5 -50.5 -7t-32.5 -2q-21 0 -35.5 5t-22.5 15q-9 9 -14 26.5t-7 42.5q17 -10 35 -14.5t37 -4.5q11 0 28 1.5t41 5.5l121 609
q-27 -5 -49.5 -7.5t-42.5 -2.5q-34 0 -50.5 19.5t-16.5 59.5q9 -7 21 -10t27 -3q17 0 42.5 3t59.5 10l78 16q40 6 70.5 9.5t52.5 3.5q33 0 52 -22t24 -66q-14 6 -28.5 9.5t-28.5 3.5q-19 0 -40.5 -2t-44.5 -5q-4 -1 -9 -1.5t-12 -1.5v1zM323 783q11 9 21 19t19 20l23 29
q20 23 37 39t30 24t29.5 11.5t36.5 3.5q17 0 32.5 -1.5t28.5 -4.5q-19 -9 -41.5 -24t-46.5 -36l-20 -16q-37 -33 -74.5 -49t-74.5 -16v1z" />
    <glyph glyph-name="Icircumflex" unicode="&#xce;" horiz-adv-x="545" 
d="M450 670l-121 -607q47 5 80 8.5t52 3.5q32 0 48 -22t16 -65q-18 6 -36.5 9t-38.5 3q-19 0 -42.5 -1.5t-51.5 -5.5l-111 -14q-30 -5 -50.5 -7t-32.5 -2q-21 0 -35.5 5t-22.5 15q-9 9 -14 26.5t-7 42.5q17 -10 35 -14.5t37 -4.5q11 0 28 1.5t41 5.5l121 609
q-27 -5 -49.5 -7.5t-42.5 -2.5q-34 0 -50.5 19.5t-16.5 59.5q9 -7 21 -10t27 -3q17 0 42.5 3t59.5 10l78 16q40 6 70.5 9.5t52.5 3.5q33 0 52 -22t24 -66q-14 6 -28.5 9.5t-28.5 3.5q-19 0 -40.5 -2t-44.5 -5q-4 -1 -9 -1.5t-12 -1.5v1zM433 873q-49 -46 -89.5 -68.5
t-71.5 -22.5q-7 0 -17 1.5t-21 5.5q42 28 71.5 49t45.5 34l17 15q24 19 56 32.5t71 19.5q8 -49 24.5 -88.5t41.5 -68.5q-25 0 -43.5 4t-29.5 12t-24.5 26.5t-30.5 47.5v1z" />
    <glyph glyph-name="Idieresis" unicode="&#xcf;" horiz-adv-x="545" 
d="M450 670l-121 -607q47 5 80 8.5t52 3.5q32 0 48 -22t16 -65q-18 6 -36.5 9t-38.5 3q-19 0 -42.5 -1.5t-51.5 -5.5l-111 -14q-30 -5 -50.5 -7t-32.5 -2q-21 0 -35.5 5t-22.5 15q-9 9 -14 26.5t-7 42.5q17 -10 35 -14.5t37 -4.5q11 0 28 1.5t41 5.5l121 609
q-27 -5 -49.5 -7.5t-42.5 -2.5q-34 0 -50.5 19.5t-16.5 59.5q9 -7 21 -10t27 -3q17 0 42.5 3t59.5 10l78 16q40 6 70.5 9.5t52.5 3.5q33 0 52 -22t24 -66q-14 6 -28.5 9.5t-28.5 3.5q-19 0 -40.5 -2t-44.5 -5q-4 -1 -9 -1.5t-12 -1.5v1zM464 867h11q36 -1 54 -7.5t18 -20.5
q0 -10 -2 -25t-6 -33h-8t-9 1h-8h-9q-21 0 -31 8.5t-10 26.5l2 19v6v8t-0.5 8t-1.5 8v1zM271 868h11q36 -1 54 -7.5t18 -20.5q0 -11 -2 -25.5t-6 -32.5h-8.5t-9.5 1h-8h-8q-21 0 -31 8.5t-10 26.5l1 19v2.5t1 3.5v4v4q0 4 -0.5 8t-1.5 8v1z" />
    <glyph glyph-name="Eth" unicode="&#xd0;" 
 />
    <glyph glyph-name="Ntilde" unicode="&#xd1;" horiz-adv-x="813" 
d="M304 541l-62 -313q-9 -46 -13.5 -79t-4.5 -56q0 -34 10 -57.5t29 -35.5q-22 -9 -42.5 -13.5t-38.5 -4.5q-28 0 -41.5 12t-13.5 37q0 24 14.5 98.5t43.5 198.5l73 313l-14 38q-15 37 -33 60.5t-40 31.5q38 17 61.5 26t33.5 9q17 0 29 -8t20 -23t44 -98t100 -234
q71 -169 118.5 -253.5t69.5 -84.5q17 0 33.5 36t32.5 108t24 145.5t8 149.5q0 61 -14.5 101.5t-43.5 59.5q24 17 45.5 25.5t40.5 8.5q29 0 44 -24t15 -71q0 -37 -6.5 -94.5t-20.5 -135.5q-13 -77 -27 -142.5t-29 -118.5q-25 -86 -53 -128.5t-58 -42.5q-26 0 -54.5 22.5
t-58.5 68.5q-30 47 -70.5 129t-90.5 200q-16 38 -27 63.5t-17 38.5l-16 37v0zM458 777q-22 5 -33 15t-11 23q0 15 8 28.5t24 26.5t33 19.5t35 6.5q15 0 29.5 -4.5t28.5 -12.5l14 -8q13 -9 24 -13t20 -4q20 0 30.5 13t13.5 40q21 -6 31.5 -16.5t10.5 -24.5q0 -15 -8 -29
t-24 -28q-16 -13 -33 -20t-34 -7q-12 0 -28.5 6t-38.5 19l-19 12q-10 5 -19.5 8t-18.5 3q-18 0 -26.5 -11t-8.5 -34v-8v0z" />
    <glyph glyph-name="Ograve" unicode="&#xd2;" horiz-adv-x="864" 
d="M449 639q38 49 87.5 74.5t111.5 25.5q53 0 97 -19t78 -58q35 -38 52 -87t17 -108q0 -91 -37 -175t-111 -160t-156 -113t-172 -37q-64 0 -117.5 20.5t-95.5 63.5t-63 97.5t-21 119.5q0 71 24 132.5t72 113.5q48 51 106.5 78.5t127.5 30.5v1zM412 586q-43 -11 -77.5 -34.5
t-60.5 -59.5q-25 -37 -37.5 -81t-12.5 -97q0 -59 17 -107.5t51 -86.5q35 -38 78.5 -57.5t96.5 -19.5q63 0 119 30t105 91q49 60 73 129t24 148q0 47 -12 85.5t-36 69.5t-54 46.5t-65 15.5q-36 0 -67.5 -14.5t-57.5 -43.5t-39.5 -63.5t-13.5 -75.5q0 -28 7 -54t20 -50
q-26 5 -44 12t-27 17q-9 9 -13.5 26t-4.5 41q0 32 7.5 65t23.5 67v1zM659 783q-6 -2 -10 -2h-7q-29 0 -57.5 15t-57.5 45q-24 26 -36.5 43.5t-12.5 26.5v1.5v0.5q1 12 21 23t60 21q14 -52 39 -96t61 -79v1z" />
    <glyph glyph-name="Oacute" unicode="&#xd3;" horiz-adv-x="864" 
d="M449 639q38 49 87.5 74.5t111.5 25.5q53 0 97 -19t78 -58q35 -38 52 -87t17 -108q0 -91 -37 -175t-111 -160t-156 -113t-172 -37q-64 0 -117.5 20.5t-95.5 63.5t-63 97.5t-21 119.5q0 71 24 132.5t72 113.5q48 51 106.5 78.5t127.5 30.5v1zM412 586q-43 -11 -77.5 -34.5
t-60.5 -59.5q-25 -37 -37.5 -81t-12.5 -97q0 -59 17 -107.5t51 -86.5q35 -38 78.5 -57.5t96.5 -19.5q63 0 119 30t105 91q49 60 73 129t24 148q0 47 -12 85.5t-36 69.5t-54 46.5t-65 15.5q-36 0 -67.5 -14.5t-57.5 -43.5t-39.5 -63.5t-13.5 -75.5q0 -28 7 -54t20 -50
q-26 5 -44 12t-27 17q-9 9 -13.5 26t-4.5 41q0 32 7.5 65t23.5 67v1zM504 783q12 9 22 19t19 20l23 29q20 23 37 39t30 24t29.5 11.5t36.5 3.5q17 0 32.5 -1.5t28.5 -4.5q-20 -9 -42 -24t-46 -36l-20 -16q-37 -33 -74.5 -49t-75.5 -16v1z" />
    <glyph glyph-name="Ocircumflex" unicode="&#xd4;" horiz-adv-x="864" 
d="M449 639q38 49 87.5 74.5t111.5 25.5q53 0 97 -19t78 -58q35 -38 52 -87t17 -108q0 -91 -37 -175t-111 -160t-156 -113t-172 -37q-64 0 -117.5 20.5t-95.5 63.5t-63 97.5t-21 119.5q0 71 24 132.5t72 113.5q48 51 106.5 78.5t127.5 30.5v1zM412 586q-43 -11 -77.5 -34.5
t-60.5 -59.5q-25 -37 -37.5 -81t-12.5 -97q0 -59 17 -107.5t51 -86.5q35 -38 78.5 -57.5t96.5 -19.5q63 0 119 30t105 91q49 60 73 129t24 148q0 47 -12 85.5t-36 69.5t-54 46.5t-65 15.5q-36 0 -67.5 -14.5t-57.5 -43.5t-39.5 -63.5t-13.5 -75.5q0 -28 7 -54t20 -50
q-26 5 -44 12t-27 17q-9 9 -13.5 26t-4.5 41q0 32 7.5 65t23.5 67v1zM620 873q-49 -46 -89.5 -68.5t-71.5 -22.5q-7 0 -17 1.5t-21 5.5q42 28 72 49t46 34l17 15q24 19 56 32.5t71 19.5q8 -49 24.5 -88.5t41.5 -68.5q-25 0 -43.5 4t-29.5 12t-25 26.5t-31 47.5v1z" />
    <glyph glyph-name="Otilde" unicode="&#xd5;" horiz-adv-x="864" 
d="M449 639q38 49 87.5 74.5t111.5 25.5q53 0 97 -19t78 -58q35 -38 52 -87t17 -108q0 -91 -37 -175t-111 -160t-156 -113t-172 -37q-64 0 -117.5 20.5t-95.5 63.5t-63 97.5t-21 119.5q0 71 24 132.5t72 113.5q48 51 106.5 78.5t127.5 30.5v1zM412 586q-43 -11 -77.5 -34.5
t-60.5 -59.5q-25 -37 -37.5 -81t-12.5 -97q0 -59 17 -107.5t51 -86.5q35 -38 78.5 -57.5t96.5 -19.5q63 0 119 30t105 91q49 60 73 129t24 148q0 47 -12 85.5t-36 69.5t-54 46.5t-65 15.5q-36 0 -67.5 -14.5t-57.5 -43.5t-39.5 -63.5t-13.5 -75.5q0 -28 7 -54t20 -50
q-26 5 -44 12t-27 17q-9 9 -13.5 26t-4.5 41q0 32 7.5 65t23.5 67v1zM490 777q-22 5 -33 15t-11 23q0 15 8 28.5t24 26.5t33 19.5t35 6.5q15 0 29.5 -4.5t28.5 -12.5l14 -8q14 -9 25 -13t20 -4q20 0 30.5 13t13.5 40q20 -6 30.5 -16.5t10.5 -24.5q0 -15 -8 -29t-24 -28
q-16 -13 -32.5 -20t-34.5 -7q-12 0 -28.5 6t-37.5 19l-20 12q-10 5 -19.5 8t-18.5 3q-18 0 -26.5 -11t-8.5 -34v-8v0z" />
    <glyph glyph-name="Odieresis" unicode="&#xd6;" horiz-adv-x="864" 
d="M449 639q38 49 87.5 74.5t111.5 25.5q53 0 97 -19t78 -58q35 -38 52 -87t17 -108q0 -91 -37 -175t-111 -160t-156 -113t-172 -37q-64 0 -117.5 20.5t-95.5 63.5t-63 97.5t-21 119.5q0 71 24 132.5t72 113.5q48 51 106.5 78.5t127.5 30.5v1zM412 586q-43 -11 -77.5 -34.5
t-60.5 -59.5q-25 -37 -37.5 -81t-12.5 -97q0 -59 17 -107.5t51 -86.5q35 -38 78.5 -57.5t96.5 -19.5q63 0 119 30t105 91q49 60 73 129t24 148q0 47 -12 85.5t-36 69.5t-54 46.5t-65 15.5q-36 0 -67.5 -14.5t-57.5 -43.5t-39.5 -63.5t-13.5 -75.5q0 -28 7 -54t20 -50
q-26 5 -44 12t-27 17q-9 9 -13.5 26t-4.5 41q0 32 7.5 65t23.5 67v1zM640 867h11q36 -1 54 -7.5t18 -20.5q0 -10 -2 -25t-7 -33h-8t-8 1h-8h-9q-21 0 -31 8.5t-10 26.5l2 19v6v8t-0.5 8t-1.5 8v1zM447 868h11q36 -1 54 -7.5t18 -20.5q0 -11 -2 -25.5t-7 -32.5h-8.5t-8.5 1
h-8h-8q-21 0 -31 8.5t-10 26.5l1 19v2.5t1 3.5v4v4q0 4 -0.5 8t-1.5 8v1z" />
    <glyph glyph-name="multiply" unicode="&#xd7;" 
 />
    <glyph glyph-name="Oslash" unicode="&#xd8;" horiz-adv-x="861" 
d="M450 639q39 49 88.5 74.5t108.5 25.5q33 0 59.5 -6t46.5 -17q39 48 70 72t54 24q16 0 32.5 -7.5t34.5 -21.5q-32 -13 -66.5 -39.5t-70.5 -64.5q42 -42 63.5 -94t21.5 -115q0 -93 -36.5 -177t-109.5 -161q-73 -76 -154.5 -113t-170.5 -37q-31 0 -64 7.5t-68 20.5
q-25 -45 -37 -78t-12 -54q0 -5 1 -11l2 -12q-37 4 -55.5 15t-18.5 29q0 19 18 53.5t54 84.5q-60 43 -89.5 105t-29.5 144q0 70 25 131.5t74 113.5q50 53 107 80t122 27v1zM732 605q-46 -49 -98.5 -111t-109.5 -138q-58 -76 -104.5 -144t-83.5 -129q34 -19 66.5 -29t63.5 -10
q63 0 119 30t105 91t73.5 130t24.5 147q0 47 -14 87.5t-42 74.5v1zM421 586q-46 -11 -82 -34t-63 -59q-26 -36 -39 -79.5t-13 -96.5q0 -58 18 -108.5t54 -91.5q107 161 204 290.5t184 228.5q-16 6 -31.5 9.5t-30.5 3.5q-33 0 -61 -11t-51 -34q-22 -22 -34 -49t-12 -59v-9.5
t1 -10.5q-29 5 -43.5 18.5t-14.5 35.5q0 13 3.5 26.5t10.5 28.5v1z" />
    <glyph glyph-name="Ugrave" unicode="&#xd9;" horiz-adv-x="851" 
d="M613 217q-73 -107 -145 -160t-143 -53q-38 0 -70 14t-57 42q-25 29 -37.5 64t-12.5 78q0 86 33.5 200.5t100.5 257.5q-20 -4 -39 -6t-36 -2q-22 0 -39 5.5t-28 17.5q-10 11 -17.5 30.5t-12.5 47.5q18 -14 42 -21t53 -7q17 0 72.5 4t149.5 13q-87 -169 -130 -297t-43 -217
q0 -32 8 -58t24 -46q16 -21 36 -31t45 -10q35 0 69 17t68 51q35 34 66.5 83.5t61.5 114.5q22 119 41 192t36 100q17 28 50.5 41.5t84.5 13.5q-22 -28 -44 -88t-44 -151t-33 -168t-11 -142q0 -51 15.5 -76t46.5 -25q19 0 41.5 10.5t49.5 31.5q1 -6 1.5 -10.5t0.5 -7.5
q0 -16 -10 -31.5t-30 -29.5q-20 -13 -42 -20t-45 -7q-66 0 -99 41t-33 124q0 12 1 29.5t4 39.5v1zM660 783q-6 -2 -10 -2h-7q-29 0 -57.5 15t-57.5 45q-25 26 -37 43.5t-12 26.5v1.5v0.5q1 12 21 23t60 21q14 -52 39 -96t61 -79v1z" />
    <glyph glyph-name="Uacute" unicode="&#xda;" horiz-adv-x="851" 
d="M613 217q-73 -107 -145 -160t-143 -53q-38 0 -70 14t-57 42q-25 29 -37.5 64t-12.5 78q0 86 33.5 200.5t100.5 257.5q-20 -4 -39 -6t-36 -2q-22 0 -39 5.5t-28 17.5q-10 11 -17.5 30.5t-12.5 47.5q18 -14 42 -21t53 -7q17 0 72.5 4t149.5 13q-87 -169 -130 -297t-43 -217
q0 -32 8 -58t24 -46q16 -21 36 -31t45 -10q35 0 69 17t68 51q35 34 66.5 83.5t61.5 114.5q22 119 41 192t36 100q17 28 50.5 41.5t84.5 13.5q-22 -28 -44 -88t-44 -151t-33 -168t-11 -142q0 -51 15.5 -76t46.5 -25q19 0 41.5 10.5t49.5 31.5q1 -6 1.5 -10.5t0.5 -7.5
q0 -16 -10 -31.5t-30 -29.5q-20 -13 -42 -20t-45 -7q-66 0 -99 41t-33 124q0 12 1 29.5t4 39.5v1zM523 783q12 9 22 19t19 20l23 29q20 23 37 39t30 24t29.5 11.5t36.5 3.5q17 0 32.5 -1.5t28.5 -4.5q-20 -9 -42 -24t-46 -36l-20 -16q-37 -33 -74.5 -49t-75.5 -16v1z" />
    <glyph glyph-name="Ucircumflex" unicode="&#xdb;" horiz-adv-x="851" 
d="M613 217q-73 -107 -145 -160t-143 -53q-38 0 -70 14t-57 42q-25 29 -37.5 64t-12.5 78q0 86 33.5 200.5t100.5 257.5q-20 -4 -39 -6t-36 -2q-22 0 -39 5.5t-28 17.5q-10 11 -17.5 30.5t-12.5 47.5q18 -14 42 -21t53 -7q17 0 72.5 4t149.5 13q-87 -169 -130 -297t-43 -217
q0 -32 8 -58t24 -46q16 -21 36 -31t45 -10q35 0 69 17t68 51q35 34 66.5 83.5t61.5 114.5q22 119 41 192t36 100q17 28 50.5 41.5t84.5 13.5q-22 -28 -44 -88t-44 -151t-33 -168t-11 -142q0 -51 15.5 -76t46.5 -25q19 0 41.5 10.5t49.5 31.5q1 -6 1.5 -10.5t0.5 -7.5
q0 -16 -10 -31.5t-30 -29.5q-20 -13 -42 -20t-45 -7q-66 0 -99 41t-33 124q0 12 1 29.5t4 39.5v1zM615 873q-49 -46 -89 -68.5t-71 -22.5q-8 0 -18 1.5t-21 5.5q42 28 72 49t46 34l17 15q24 19 56 32.5t71 19.5q8 -49 24.5 -88.5t41.5 -68.5q-25 0 -43.5 4t-29.5 12
t-25 26.5t-31 47.5v1z" />
    <glyph glyph-name="Udieresis" unicode="&#xdc;" horiz-adv-x="851" 
d="M613 217q-73 -107 -145 -160t-143 -53q-38 0 -70 14t-57 42q-25 29 -37.5 64t-12.5 78q0 86 33.5 200.5t100.5 257.5q-20 -4 -39 -6t-36 -2q-22 0 -39 5.5t-28 17.5q-10 11 -17.5 30.5t-12.5 47.5q18 -14 42 -21t53 -7q17 0 72.5 4t149.5 13q-87 -169 -130 -297t-43 -217
q0 -32 8 -58t24 -46q16 -21 36 -31t45 -10q35 0 69 17t68 51q35 34 66.5 83.5t61.5 114.5q22 119 41 192t36 100q17 28 50.5 41.5t84.5 13.5q-22 -28 -44 -88t-44 -151t-33 -168t-11 -142q0 -51 15.5 -76t46.5 -25q19 0 41.5 10.5t49.5 31.5q1 -6 1.5 -10.5t0.5 -7.5
q0 -16 -10 -31.5t-30 -29.5q-20 -13 -42 -20t-45 -7q-66 0 -99 41t-33 124q0 12 1 29.5t4 39.5v1zM635 867h10q36 -1 54.5 -7.5t18.5 -20.5q0 -10 -2 -25t-7 -33h-8t-8 1h-9h-8q-21 0 -31.5 8.5t-10.5 26.5l2 19v2.5t1 3.5v4v4q0 4 -0.5 8t-1.5 8v1zM441 868h12
q36 -1 54 -7.5t18 -20.5q0 -11 -2 -25.5t-7 -32.5h-8.5t-8.5 1h-8h-8q-21 0 -31.5 8.5t-10.5 26.5l2 19v2.5t1 3.5v4v4q0 4 -0.5 8t-2.5 8v1z" />
    <glyph glyph-name="Yacute" unicode="&#xdd;" horiz-adv-x="583" 
d="M392 337l-48 -241q-5 -24 -7.5 -39t-2.5 -22t1.5 -14.5t4.5 -15.5q-25 -11 -47.5 -17t-42.5 -6q-13 0 -19 5t-6 14q0 5 2.5 20.5t7.5 40.5l54 275q-15 66 -37.5 127.5t-52.5 117.5t-60.5 93t-62.5 56q26 18 45.5 27t32.5 9q47 0 102 -96t118 -288q48 43 90 86.5t78 89.5
q37 45 55 76.5t18 50.5q0 10 -4 19t-12 16q20 9 36.5 13.5t28.5 4.5q20 0 30 -10.5t10 -31.5q0 -24 -24 -63.5t-73 -95.5q-48 -55 -102 -105.5t-113 -96.5v1zM353 783q11 9 21 19t19 20l23 29q20 23 37 39t30 24t29.5 11.5t36.5 3.5q17 0 32.5 -1.5t28.5 -4.5
q-20 -9 -42 -24t-46 -36l-20 -16q-37 -33 -74.5 -49t-74.5 -16v1z" />
    <glyph glyph-name="Thorn" unicode="&#xde;" 
 />
    <glyph glyph-name="germandbls" unicode="&#xdf;" horiz-adv-x="620" 
d="M368 129q5 -22 15.5 -39t25.5 -30t32.5 -19t37.5 -6q23 0 42 7t34 22q14 15 21.5 34t7.5 42q0 28 -18 60.5t-53 69.5l-41 44q-43 44 -65 78.5t-22 56.5q0 23 18 51t55 60l21 21q44 37 65.5 70.5t21.5 63.5q0 17 -5.5 32t-16.5 26q-10 12 -23.5 18t-30.5 6q-31 0 -55 -15
t-43 -45q-19 -31 -35.5 -82t-30.5 -123l-114 -568q-6 -30 -9 -57t-3 -49q0 -14 3 -27t10 -25q-25 -8 -44 -12t-31 -4q-20 0 -30 11t-10 34q0 18 4 47t12 70l118 593q14 73 41 130t67 97q40 41 88 61.5t105 20.5q26 0 48.5 -9t41.5 -26q19 -18 28.5 -38.5t9.5 -45.5
q0 -34 -25 -71.5t-75 -78.5l-29 -22q-31 -26 -47 -47t-16 -36q0 -19 19.5 -47.5t58.5 -66.5l28 -27q48 -49 72.5 -92.5t24.5 -81.5q0 -35 -15.5 -66.5t-47.5 -58.5q-31 -27 -68 -39.5t-80 -12.5q-25 0 -49 6t-44 16q-21 11 -31.5 24.5t-10.5 28.5q0 14 10.5 30t31.5 35v1z
" />
    <glyph glyph-name="agrave" unicode="&#xe0;" horiz-adv-x="791" 
d="M547 298q-31 -65 -69.5 -120.5t-84.5 -100.5q-46 -46 -85.5 -67.5t-73.5 -21.5q-26 0 -46.5 11t-36.5 33q-16 23 -23.5 54t-7.5 69q0 77 23.5 144t69.5 125q46 59 99.5 87.5t114.5 28.5q36 0 76 -11t83 -34q6 23 32 34t72 11h7.5h11.5q-14 -22 -24.5 -51t-18.5 -66
l-8 -40q-7 -36 -10.5 -76.5t-3.5 -86.5q0 -54 12.5 -80.5t37.5 -26.5q26 0 62 22t82 66t91 100t89 124l38 -25q-45 -82 -96.5 -149t-109.5 -121t-108 -81t-92 -27q-53 0 -79.5 44t-26.5 132q0 18 1 43t2 56v1zM570 415q-51 32 -93.5 48.5t-76.5 16.5q-37 0 -69 -22t-59 -67
q-26 -45 -39.5 -98t-13.5 -115q0 -49 16 -73.5t48 -24.5q35 0 101.5 76.5t165.5 229.5q2 2 6.5 9t13.5 19v1zM596 626q-6 -2 -10 -2h-7q-29 0 -57.5 15t-57.5 45q-24 26 -36.5 43.5t-12.5 26.5v1.5v1.5q1 12 21 23t60 21q14 -52 39 -96.5t61 -79.5v1z" />
    <glyph glyph-name="aacute" unicode="&#xe1;" horiz-adv-x="791" 
d="M547 298q-31 -65 -69.5 -120.5t-84.5 -100.5q-46 -46 -85.5 -67.5t-73.5 -21.5q-26 0 -46.5 11t-36.5 33q-16 23 -23.5 54t-7.5 69q0 77 23.5 144t69.5 125q46 59 99.5 87.5t114.5 28.5q36 0 76 -11t83 -34q6 23 32 34t72 11h7.5h11.5q-14 -22 -24.5 -51t-18.5 -66
l-8 -40q-7 -36 -10.5 -76.5t-3.5 -86.5q0 -54 12.5 -80.5t37.5 -26.5q26 0 62 22t82 66t91 100t89 124l38 -25q-45 -82 -96.5 -149t-109.5 -121t-108 -81t-92 -27q-53 0 -79.5 44t-26.5 132q0 18 1 43t2 56v1zM570 415q-51 32 -93.5 48.5t-76.5 16.5q-37 0 -69 -22t-59 -67
q-26 -45 -39.5 -98t-13.5 -115q0 -49 16 -73.5t48 -24.5q35 0 101.5 76.5t165.5 229.5q2 2 6.5 9t13.5 19v1zM447 626q12 9 22 19t19 20l23 29q20 23 36.5 39t29.5 24q14 8 30.5 11.5t36.5 3.5q17 0 32.5 -1.5t28.5 -4.5q-20 -9 -42 -24t-46 -36l-20 -16q-37 -33 -74.5 -49
t-75.5 -16v1z" />
    <glyph glyph-name="acircumflex" unicode="&#xe2;" horiz-adv-x="791" 
d="M547 298q-31 -65 -69.5 -120.5t-84.5 -100.5q-46 -46 -85.5 -67.5t-73.5 -21.5q-26 0 -46.5 11t-36.5 33q-16 23 -23.5 54t-7.5 69q0 77 23.5 144t69.5 125q46 59 99.5 87.5t114.5 28.5q36 0 76 -11t83 -34q6 23 32 34t72 11h7.5h11.5q-14 -22 -24.5 -51t-18.5 -66
l-8 -40q-7 -36 -10.5 -76.5t-3.5 -86.5q0 -54 12.5 -80.5t37.5 -26.5q26 0 62 22t82 66t91 100t89 124l38 -25q-45 -82 -96.5 -149t-109.5 -121t-108 -81t-92 -27q-53 0 -79.5 44t-26.5 132q0 18 1 43t2 56v1zM570 415q-51 32 -93.5 48.5t-76.5 16.5q-37 0 -69 -22t-59 -67
q-26 -45 -39.5 -98t-13.5 -115q0 -49 16 -73.5t48 -24.5q35 0 101.5 76.5t165.5 229.5q2 2 6.5 9t13.5 19v1zM551 716q-49 -46 -89 -68.5t-71 -22.5q-8 0 -17.5 1.5t-20.5 5.5q42 28 71.5 49t45.5 34l17 15q24 19 56 32.5t71 19.5q8 -49 24.5 -88t41.5 -69q-25 0 -43.5 4
t-29.5 12t-25 26.5t-31 47.5v1z" />
    <glyph glyph-name="atilde" unicode="&#xe3;" horiz-adv-x="791" 
d="M547 298q-31 -65 -69.5 -120.5t-84.5 -100.5q-46 -46 -85.5 -67.5t-73.5 -21.5q-26 0 -46.5 11t-36.5 33q-16 23 -23.5 54t-7.5 69q0 77 23.5 144t69.5 125q46 59 99.5 87.5t114.5 28.5q36 0 76 -11t83 -34q6 23 32 34t72 11h7.5h11.5q-14 -22 -24.5 -51t-18.5 -66
l-8 -40q-7 -36 -10.5 -76.5t-3.5 -86.5q0 -54 12.5 -80.5t37.5 -26.5q26 0 62 22t82 66t91 100t89 124l38 -25q-45 -82 -96.5 -149t-109.5 -121t-108 -81t-92 -27q-53 0 -79.5 44t-26.5 132q0 18 1 43t2 56v1zM570 415q-51 32 -93.5 48.5t-76.5 16.5q-37 0 -69 -22t-59 -67
q-26 -45 -39.5 -98t-13.5 -115q0 -49 16 -73.5t48 -24.5q35 0 101.5 76.5t165.5 229.5q2 2 6.5 9t13.5 19v1zM433 620q-22 5 -33 15.5t-11 23.5q0 14 8 28t24 27t33 19t35 6q15 0 29.5 -4t28.5 -12l14 -9q13 -9 24 -13t20 -4q20 0 31 13t13 40q21 -6 31.5 -16.5t10.5 -24.5
q0 -15 -8 -29t-24 -28q-16 -13 -32.5 -20t-34.5 -7q-12 0 -28.5 6t-38.5 19l-19 13q-10 4 -19.5 7t-18.5 3q-18 0 -26.5 -11t-8.5 -34v-8v0z" />
    <glyph glyph-name="adieresis" unicode="&#xe4;" horiz-adv-x="791" 
d="M547 298q-31 -65 -69.5 -120.5t-84.5 -100.5q-46 -46 -85.5 -67.5t-73.5 -21.5q-26 0 -46.5 11t-36.5 33q-16 23 -23.5 54t-7.5 69q0 77 23.5 144t69.5 125q46 59 99.5 87.5t114.5 28.5q36 0 76 -11t83 -34q6 23 32 34t72 11h7.5h11.5q-14 -22 -24.5 -51t-18.5 -66
l-8 -40q-7 -36 -10.5 -76.5t-3.5 -86.5q0 -54 12.5 -80.5t37.5 -26.5q26 0 62 22t82 66t91 100t89 124l38 -25q-45 -82 -96.5 -149t-109.5 -121t-108 -81t-92 -27q-53 0 -79.5 44t-26.5 132q0 18 1 43t2 56v1zM570 415q-51 32 -93.5 48.5t-76.5 16.5q-37 0 -69 -22t-59 -67
q-26 -45 -39.5 -98t-13.5 -115q0 -49 16 -73.5t48 -24.5q35 0 101.5 76.5t165.5 229.5q2 2 6.5 9t13.5 19v1zM595 710h10q36 -1 54.5 -7.5t18.5 -19.5q0 -10 -2 -25t-7 -34h-8t-8 1h-9h-8q-21 0 -31.5 9t-10.5 27l2 19v2.5t1 2.5v4v4q0 5 -0.5 8.5t-1.5 7.5v1zM401 711h12
q36 -1 54 -7.5t18 -20.5q0 -10 -2 -25t-7 -33h-8.5t-8.5 1h-8h-8q-21 0 -31.5 9t-10.5 27l2 18v2.5t1 3.5v4v4q0 4 -0.5 8t-2.5 8v1z" />
    <glyph glyph-name="aring" unicode="&#xe5;" horiz-adv-x="791" 
d="M547 298q-31 -65 -69.5 -120.5t-84.5 -100.5q-46 -46 -85.5 -67.5t-73.5 -21.5q-26 0 -46.5 11t-36.5 33q-16 23 -23.5 54t-7.5 69q0 77 23.5 144t69.5 125q46 59 99.5 87.5t114.5 28.5q36 0 76 -11t83 -34q6 23 32 34t72 11h7.5h11.5q-14 -22 -24.5 -51t-18.5 -66
l-8 -40q-7 -36 -10.5 -76.5t-3.5 -86.5q0 -54 12.5 -80.5t37.5 -26.5q26 0 62 22t82 66t91 100t89 124l38 -25q-45 -82 -96.5 -149t-109.5 -121t-108 -81t-92 -27q-53 0 -79.5 44t-26.5 132q0 18 1 43t2 56v1zM570 415q-51 32 -93.5 48.5t-76.5 16.5q-37 0 -69 -22t-59 -67
q-26 -45 -39.5 -98t-13.5 -115q0 -49 16 -73.5t48 -24.5q35 0 101.5 76.5t165.5 229.5q2 2 6.5 9t13.5 19v1zM579 784q38 -15 57 -34.5t19 -44.5q0 -18 -7.5 -32.5t-22.5 -25.5t-34 -17t-43 -6q-20 0 -37.5 5t-31.5 15q-13 9 -20 21t-7 25q0 17 9 35t27 36q19 19 40 32.5
t46 20.5q3 -7 4.5 -12.5t1.5 -8.5v-2v-3q-1 -1 -1 -2v-3v1zM563 757q-30 -20 -45 -35.5t-15 -27.5t10.5 -18t32.5 -6q33 0 50 9t17 27q0 10 -12.5 22.5t-37.5 27.5v1z" />
    <glyph glyph-name="ae" unicode="&#xe6;" horiz-adv-x="969" 
d="M505 208q-77 -111 -144.5 -165.5t-126.5 -54.5q-25 0 -46 11t-37 33q-15 23 -23 54t-8 68q0 81 23.5 150t69.5 125q47 56 104 84t124 28q55 0 106.5 -19t100.5 -57q46 38 90 56.5t86 18.5q26 0 46.5 -6.5t36.5 -20.5q17 -13 24.5 -30.5t7.5 -39.5q0 -49 -24 -90t-73 -76
q-49 -34 -107 -52t-127 -18q-1 -7 -1 -13.5v-11.5q0 -26 9 -48t25 -40q17 -18 38 -26.5t46 -8.5q55 0 113 23.5t119 71.5q62 48 120.5 115t113.5 153l43 -22q-58 -98 -122.5 -173.5t-138.5 -130.5q-73 -55 -145 -81.5t-144 -26.5q-40 0 -72.5 12t-58.5 38q-25 26 -37.5 59
t-12.5 73q0 6 0.5 15.5t1.5 21.5v1zM588 414q-40 34 -82.5 51.5t-88.5 17.5q-43 0 -78.5 -21.5t-64.5 -65.5q-28 -43 -42 -98t-14 -123q0 -46 16.5 -69t50.5 -23q39 0 115 82.5t188 247.5v1zM609 250q53 3 96 16.5t76 36.5q32 23 48 52t16 63q0 13 -4.5 24t-14.5 20
q-9 9 -20 13.5t-25 4.5q-29 0 -56 -15.5t-50 -47.5q-24 -31 -40.5 -73t-25.5 -95v1z" />
    <glyph glyph-name="ccedilla" unicode="&#xe7;" horiz-adv-x="571" 
d="M835 398q-37 -64 -82.5 -125.5t-101.5 -120.5q-43 -48 -80 -80.5t-67 -50.5q-30 -17 -67.5 -29t-82.5 -19l-16 -19q35 -9 52.5 -24t17.5 -36q0 -17 -7.5 -32t-24.5 -28q-16 -14 -33 -20t-37 -6q-31 0 -46.5 12t-15.5 35v5q14 -5 25 -7t20 -2q27 0 40.5 9.5t13.5 27.5
q0 15 -18 26t-54 17l35 44q-89 16 -133.5 71.5t-44.5 152.5q0 70 25 130t75 110q50 51 110 76t128 25q28 0 50.5 -5t40.5 -16q17 -10 26 -23.5t9 -30.5q0 -27 -23 -46.5t-68 -33.5q2 5 3.5 10.5t1.5 11.5q0 39 -21 59t-63 20q-37 0 -70 -20t-64 -61q-31 -40 -46 -85t-15 -93
q0 -39 10 -71t30 -57q21 -25 47.5 -37.5t59.5 -12.5q89 0 194 93t226 280l41 -24v0z" />
    <glyph glyph-name="egrave" unicode="&#xe8;" horiz-adv-x="584" 
d="M228 203q0 -73 30 -108.5t91 -35.5q53 0 110.5 25t120.5 75t120 115.5t108 147.5l42 -22q-48 -90 -110 -164t-139 -133q-76 -58 -149 -86.5t-141 -28.5q-44 0 -78.5 13.5t-60.5 41.5q-25 29 -38 67.5t-13 87.5q0 71 23 131.5t69 110.5q47 50 102.5 75t120.5 25
q32 0 57 -7.5t44 -23.5t28.5 -37.5t9.5 -47.5q0 -43 -26.5 -82t-79.5 -73q-52 -34 -112.5 -50.5t-128.5 -16.5v1zM231 250q51 1 95 16t80 41q37 27 55 58t18 65q0 32 -14 47.5t-41 15.5q-33 0 -63.5 -18t-59.5 -54q-28 -35 -45 -78.5t-25 -93.5v1zM517 626q-6 -2 -10 -2h-7
q-29 0 -57.5 15t-57.5 45q-25 26 -37.5 43.5t-12.5 26.5q-1 14 19.5 25.5t61.5 21.5q15 -52 40 -96.5t61 -79.5v1z" />
    <glyph glyph-name="eacute" unicode="&#xe9;" horiz-adv-x="584" 
d="M228 203q0 -73 30 -108.5t91 -35.5q53 0 110.5 25t120.5 75t120 115.5t108 147.5l42 -22q-48 -90 -110 -164t-139 -133q-76 -58 -149 -86.5t-141 -28.5q-44 0 -78.5 13.5t-60.5 41.5q-25 29 -38 67.5t-13 87.5q0 71 23 131.5t69 110.5q47 50 102.5 75t120.5 25
q32 0 57 -7.5t44 -23.5t28.5 -37.5t9.5 -47.5q0 -43 -26.5 -82t-79.5 -73q-52 -34 -112.5 -50.5t-128.5 -16.5v1zM231 250q51 1 95 16t80 41q37 27 55 58t18 65q0 32 -14 47.5t-41 15.5q-33 0 -63.5 -18t-59.5 -54q-28 -35 -45 -78.5t-25 -93.5v1zM369 626q11 9 21 19t19 20
l23 29q20 23 37 39t30 24t29.5 11.5t36.5 3.5q17 0 32.5 -1.5t28.5 -4.5q-20 -9 -42 -24t-46 -36l-20 -16q-37 -33 -74.5 -49t-74.5 -16v1z" />
    <glyph glyph-name="ecircumflex" unicode="&#xea;" horiz-adv-x="584" 
d="M228 203q0 -73 30 -108.5t91 -35.5q53 0 110.5 25t120.5 75t120 115.5t108 147.5l42 -22q-48 -90 -110 -164t-139 -133q-76 -58 -149 -86.5t-141 -28.5q-44 0 -78.5 13.5t-60.5 41.5q-25 29 -38 67.5t-13 87.5q0 71 23 131.5t69 110.5q47 50 102.5 75t120.5 25
q32 0 57 -7.5t44 -23.5t28.5 -37.5t9.5 -47.5q0 -43 -26.5 -82t-79.5 -73q-52 -34 -112.5 -50.5t-128.5 -16.5v1zM231 250q51 1 95 16t80 41q37 27 55 58t18 65q0 32 -14 47.5t-41 15.5q-33 0 -63.5 -18t-59.5 -54q-28 -35 -45 -78.5t-25 -93.5v1zM460 716
q-49 -46 -89 -68.5t-71 -22.5q-7 0 -17 1.5t-21 5.5q42 28 71.5 49t45.5 34l17 15q24 19 56 32.5t71 19.5q8 -49 24.5 -88t41.5 -69q-25 0 -43.5 4t-29.5 12t-25 26.5t-31 47.5v1z" />
    <glyph glyph-name="edieresis" unicode="&#xeb;" horiz-adv-x="584" 
d="M228 203q0 -73 30 -108.5t91 -35.5q53 0 110.5 25t120.5 75t120 115.5t108 147.5l42 -22q-48 -90 -110 -164t-139 -133q-76 -58 -149 -86.5t-141 -28.5q-44 0 -78.5 13.5t-60.5 41.5q-25 29 -38 67.5t-13 87.5q0 71 23 131.5t69 110.5q47 50 102.5 75t120.5 25
q32 0 57 -7.5t44 -23.5t28.5 -37.5t9.5 -47.5q0 -43 -26.5 -82t-79.5 -73q-52 -34 -112.5 -50.5t-128.5 -16.5v1zM231 250q51 1 95 16t80 41q37 27 55 58t18 65q0 32 -14 47.5t-41 15.5q-33 0 -63.5 -18t-59.5 -54q-28 -35 -45 -78.5t-25 -93.5v1zM504 710h11q36 -1 54 -7.5
t18 -19.5q0 -10 -2 -25t-6 -34h-8t-9 1h-8h-9q-21 0 -31 9t-10 27l2 19v5.5v7.5q0 5 -0.5 8.5t-1.5 7.5v1zM311 711h11q36 -1 54.5 -7.5t18.5 -20.5q0 -10 -2 -25t-7 -33h-8.5t-8.5 1h-8h-8q-21 0 -31.5 9t-10.5 27l1 18v2.5t1 3.5v4v4q0 4 -0.5 8t-1.5 8v1z" />
    <glyph glyph-name="igrave" unicode="&#xec;" horiz-adv-x="443" 
d="M708 399q-55 -98 -111 -173.5t-112 -130.5q-56 -54 -107 -80.5t-96 -26.5q-27 0 -49 8.5t-39 25.5q-16 18 -24.5 41.5t-8.5 52.5q0 11 2.5 28.5t6.5 41.5l11 54q12 57 18 97.5t6 64.5q0 14 -4.5 25.5t-12.5 20.5q32 7 52 10.5t28 3.5q18 0 27 -12.5t9 -37.5
q0 -19 -3.5 -46t-10.5 -62l-19 -95q-7 -35 -10.5 -57t-3.5 -33q0 -30 13 -45t38 -15q31 0 71.5 25.5t91.5 76.5q50 52 99.5 117t96.5 144l41 -23v0zM352 626q-6 -2 -10 -2h-7q-29 0 -57.5 15t-57.5 45q-25 26 -37.5 43.5t-12.5 26.5q-1 14 19.5 25.5t61.5 21.5
q15 -52 40 -96.5t61 -79.5v1z" />
    <glyph glyph-name="iacute" unicode="&#xed;" horiz-adv-x="443" 
d="M708 399q-55 -98 -111 -173.5t-112 -130.5q-56 -54 -107 -80.5t-96 -26.5q-27 0 -49 8.5t-39 25.5q-16 18 -24.5 41.5t-8.5 52.5q0 11 2.5 28.5t6.5 41.5l11 54q12 57 18 97.5t6 64.5q0 14 -4.5 25.5t-12.5 20.5q32 7 52 10.5t28 3.5q18 0 27 -12.5t9 -37.5
q0 -19 -3.5 -46t-10.5 -62l-19 -95q-7 -35 -10.5 -57t-3.5 -33q0 -30 13 -45t38 -15q31 0 71.5 25.5t91.5 76.5q50 52 99.5 117t96.5 144l41 -23v0zM233 626q12 9 22 19t19 20l23 29q20 23 37 39t30 24t29.5 11.5t36.5 3.5q17 0 32.5 -1.5t28.5 -4.5q-20 -9 -42 -24t-46 -36
l-20 -16q-37 -33 -74.5 -49t-75.5 -16v1z" />
    <glyph glyph-name="icircumflex" unicode="&#xee;" horiz-adv-x="443" 
d="M708 399q-55 -98 -111 -173.5t-112 -130.5q-56 -54 -107 -80.5t-96 -26.5q-27 0 -49 8.5t-39 25.5q-16 18 -24.5 41.5t-8.5 52.5q0 11 2.5 28.5t6.5 41.5l11 54q12 57 18 97.5t6 64.5q0 14 -4.5 25.5t-12.5 20.5q32 7 52 10.5t28 3.5q18 0 27 -12.5t9 -37.5
q0 -19 -3.5 -46t-10.5 -62l-19 -95q-7 -35 -10.5 -57t-3.5 -33q0 -30 13 -45t38 -15q31 0 71.5 25.5t91.5 76.5q50 52 99.5 117t96.5 144l41 -23v0zM313 716q-49 -46 -89.5 -68.5t-71.5 -22.5q-7 0 -17 1.5t-21 5.5q42 28 71.5 49t45.5 34l18 15q24 19 55.5 32.5t70.5 19.5
q8 -49 24.5 -88t41.5 -69q-25 0 -43 4t-29 12t-25 26.5t-31 47.5v1z" />
    <glyph glyph-name="idieresis" unicode="&#xef;" horiz-adv-x="443" 
d="M708 399q-55 -98 -110.5 -173.5t-112.5 -130.5q-56 -54 -106.5 -80.5t-95.5 -26.5q-28 0 -49.5 8.5t-38.5 25.5q-17 18 -25.5 41.5t-8.5 52.5q0 11 2.5 28.5t7.5 41.5l11 54q12 57 18 97.5t6 64.5q0 14 -4.5 25.5t-12.5 20.5q32 7 51.5 10.5t28.5 3.5q18 0 27 -12.5
t9 -37.5q0 -19 -3.5 -46t-10.5 -62l-20 -95q-7 -35 -10.5 -57t-3.5 -33q0 -30 13 -45t39 -15q30 0 70.5 25.5t91.5 76.5q51 52 100 117t97 144l40 -23v0zM339 710h11q36 -1 54 -7.5t18 -19.5q0 -10 -2 -25t-7 -34h-8t-8 1h-9h-8q-21 0 -31.5 9t-10.5 27l2 19v2.5t1 2.5v4v4
q0 5 -0.5 8.5t-1.5 7.5v1zM145 711h12q36 -1 54 -7.5t18 -20.5q0 -10 -2 -25t-7 -33h-8.5t-8.5 1h-8h-8q-21 0 -31.5 9t-10.5 27l2 18v2.5t1 3.5v4v4q0 4 -0.5 8t-2.5 8v1z" />
    <glyph glyph-name="eth" unicode="&#xf0;" 
 />
    <glyph glyph-name="ntilde" unicode="&#xf1;" horiz-adv-x="806" 
d="M291 175q86 182 164 273.5t148 91.5q53 0 80 -53.5t27 -160.5l1 -58q0 -53 3 -88t8 -55q5 -19 15 -29.5t23 -10.5q21 0 45 17t51 50q26 34 69.5 101.5t104.5 167.5l41 -23q-54 -102 -102 -177t-91 -124q-42 -49 -80 -73t-72 -24q-31 0 -52.5 14.5t-34.5 44.5t-19 82
t-6 126l-1 43q0 39 -2.5 67t-7.5 44q-5 17 -14 25t-22 8q-32 0 -84 -64.5t-123 -193.5q-18 -31 -29.5 -51.5t-16.5 -29.5q-19 -33 -28 -56.5t-9 -38.5q0 -6 1.5 -11t4.5 -9q-14 -6 -26 -9t-22 -3q-25 0 -37 13t-12 40q0 8 3 43t10 98l10 107q4 32 6 58t2 45q0 26 -6 46.5
t-18 35.5q5 2 14 4.5t21 6.5q15 5 27 8t21 3q19 0 28.5 -14t9.5 -42q0 -15 -2 -40t-5 -60q-1 -8 -2 -15.5t-1 -14.5l-13 -135v0zM431 620q-22 5 -32.5 15.5t-10.5 23.5q0 14 7.5 28t23.5 27q17 13 33.5 19t34.5 6q15 0 30 -4t28 -12l15 -9q13 -9 24 -13t20 -4q20 0 30.5 13
t13.5 40q20 -6 30.5 -16.5t10.5 -24.5q0 -15 -7.5 -29t-23.5 -28q-16 -13 -33 -20t-35 -7q-12 0 -28.5 6t-37.5 19l-19 13q-10 4 -19.5 7t-18.5 3q-18 0 -27 -11t-9 -34v-8v0z" />
    <glyph glyph-name="ograve" unicode="&#xf2;" horiz-adv-x="670" 
d="M652 359q1 -7 1.5 -12t0.5 -10q0 -70 -24 -131.5t-72 -114.5q-48 -52 -103.5 -77.5t-120.5 -25.5q-49 0 -89 15t-71 46q-31 32 -46.5 72.5t-15.5 90.5q0 57 20 106t60 91t87 63t101 21q8 0 17 -1.5t19 -3.5q-7 11 -10 20.5t-3 16.5q0 12 4 23.5t12 21.5q60 -4 109.5 -35
t89.5 -87q41 -28 83 -41.5t86 -13.5q29 0 59.5 10t63.5 29l25 -41q-39 -28 -79 -41.5t-81 -13.5q-27 0 -57.5 5.5t-65.5 16.5v1zM541 401q-20 5 -38.5 15t-35.5 23q-13 2 -23.5 3.5t-18.5 1.5q-41 0 -78 -18.5t-69 -55.5t-48 -80t-16 -91q0 -34 10 -62.5t29 -51.5
q20 -22 44.5 -33.5t55.5 -11.5q41 0 76.5 21t65.5 63q29 41 44 90.5t15 107.5q0 20 -3.5 39.5t-9.5 38.5v1zM560 626q-6 -2 -10 -2h-7q-29 0 -57.5 15t-57.5 45q-25 26 -37.5 43.5t-12.5 26.5q-1 14 19.5 25.5t61.5 21.5q15 -52 40 -96.5t61 -79.5v1z" />
    <glyph glyph-name="oacute" unicode="&#xf3;" horiz-adv-x="670" 
d="M652 359q1 -7 1.5 -12t0.5 -10q0 -70 -24 -131.5t-72 -114.5q-48 -52 -103.5 -77.5t-120.5 -25.5q-49 0 -89 15t-71 46q-31 32 -46.5 72.5t-15.5 90.5q0 57 20 106t60 91t87 63t101 21q8 0 17 -1.5t19 -3.5q-7 11 -10 20.5t-3 16.5q0 12 4 23.5t12 21.5q60 -4 109.5 -35
t89.5 -87q41 -28 83 -41.5t86 -13.5q29 0 59.5 10t63.5 29l25 -41q-39 -28 -79 -41.5t-81 -13.5q-27 0 -57.5 5.5t-65.5 16.5v1zM541 401q-20 5 -38.5 15t-35.5 23q-13 2 -23.5 3.5t-18.5 1.5q-41 0 -78 -18.5t-69 -55.5t-48 -80t-16 -91q0 -34 10 -62.5t29 -51.5
q20 -22 44.5 -33.5t55.5 -11.5q41 0 76.5 21t65.5 63q29 41 44 90.5t15 107.5q0 20 -3.5 39.5t-9.5 38.5v1zM425 626q12 9 22 19t19 20l23 29q20 23 36.5 39t29.5 24q14 8 30.5 11.5t36.5 3.5q17 0 32.5 -1.5t28.5 -4.5q-20 -9 -42 -24t-46 -36l-20 -16q-37 -33 -74.5 -49
t-75.5 -16v1z" />
    <glyph glyph-name="ocircumflex" unicode="&#xf4;" horiz-adv-x="670" 
d="M652 359q1 -7 1.5 -12t0.5 -10q0 -70 -24 -131.5t-72 -114.5q-48 -52 -103.5 -77.5t-120.5 -25.5q-49 0 -89 15t-71 46q-31 32 -46.5 72.5t-15.5 90.5q0 57 20 106t60 91t87 63t101 21q8 0 17 -1.5t19 -3.5q-7 11 -10 20.5t-3 16.5q0 12 4 23.5t12 21.5q60 -4 109.5 -35
t89.5 -87q41 -28 83 -41.5t86 -13.5q29 0 59.5 10t63.5 29l25 -41q-39 -28 -79 -41.5t-81 -13.5q-27 0 -57.5 5.5t-65.5 16.5v1zM541 401q-20 5 -38.5 15t-35.5 23q-13 2 -23.5 3.5t-18.5 1.5q-41 0 -78 -18.5t-69 -55.5t-48 -80t-16 -91q0 -34 10 -62.5t29 -51.5
q20 -22 44.5 -33.5t55.5 -11.5q41 0 76.5 21t65.5 63q29 41 44 90.5t15 107.5q0 20 -3.5 39.5t-9.5 38.5v1zM520 716q-49 -46 -89.5 -68.5t-71.5 -22.5q-7 0 -17 1.5t-21 5.5q42 28 71.5 49t45.5 34l18 15q24 19 56 32.5t71 19.5q8 -49 24 -88t41 -69q-25 0 -43 4t-29 12
t-25 26.5t-31 47.5v1z" />
    <glyph glyph-name="otilde" unicode="&#xf5;" horiz-adv-x="670" 
d="M652 359q1 -7 1.5 -12t0.5 -10q0 -70 -24 -131.5t-72 -114.5q-48 -52 -103.5 -77.5t-120.5 -25.5q-49 0 -89 15t-71 46q-31 32 -46.5 72.5t-15.5 90.5q0 57 20 106t60 91t87 63t101 21q8 0 17 -1.5t19 -3.5q-7 11 -10 20.5t-3 16.5q0 12 4 23.5t12 21.5q60 -4 109.5 -35
t89.5 -87q41 -28 83 -41.5t86 -13.5q29 0 59.5 10t63.5 29l25 -41q-39 -28 -79 -41.5t-81 -13.5q-27 0 -57.5 5.5t-65.5 16.5v1zM541 401q-20 5 -38.5 15t-35.5 23q-13 2 -23.5 3.5t-18.5 1.5q-41 0 -78 -18.5t-69 -55.5t-48 -80t-16 -91q0 -34 10 -62.5t29 -51.5
q20 -22 44.5 -33.5t55.5 -11.5q41 0 76.5 21t65.5 63q29 41 44 90.5t15 107.5q0 20 -3.5 39.5t-9.5 38.5v1zM405 620q-22 5 -32.5 15.5t-10.5 23.5q0 14 8 28t24 27t32.5 19t34.5 6q15 0 30 -4t29 -12l14 -9q13 -9 24 -13t20 -4q20 0 30.5 13t13.5 40q21 -6 31.5 -16.5
t10.5 -24.5q0 -15 -8 -29t-24 -28q-16 -13 -33 -20t-35 -7q-12 0 -28.5 6t-37.5 19l-19 13q-10 4 -19.5 7t-18.5 3q-18 0 -27 -11t-9 -34v-8v0z" />
    <glyph glyph-name="odieresis" unicode="&#xf6;" horiz-adv-x="670" 
d="M652 359q1 -7 1.5 -12t0.5 -10q0 -70 -24 -131.5t-72 -114.5q-48 -52 -103.5 -77.5t-120.5 -25.5q-49 0 -89 15t-71 46q-31 32 -46.5 72.5t-15.5 90.5q0 57 20 106t60 91t87 63t101 21q8 0 17 -1.5t19 -3.5q-7 11 -10 20.5t-3 16.5q0 12 4 23.5t12 21.5q60 -4 109.5 -35
t89.5 -87q41 -28 83 -41.5t86 -13.5q29 0 59.5 10t63.5 29l25 -41q-39 -28 -79 -41.5t-81 -13.5q-27 0 -57.5 5.5t-65.5 16.5v1zM541 401q-20 5 -38.5 15t-35.5 23q-13 2 -23.5 3.5t-18.5 1.5q-41 0 -78 -18.5t-69 -55.5t-48 -80t-16 -91q0 -34 10 -62.5t29 -51.5
q20 -22 44.5 -33.5t55.5 -11.5q41 0 76.5 21t65.5 63q29 41 44 90.5t15 107.5q0 20 -3.5 39.5t-9.5 38.5v1zM564 710h11q36 -1 54 -7.5t18 -19.5q0 -10 -2 -25t-7 -34h-8t-8 1h-8h-9q-21 0 -31.5 9t-10.5 27l2 19v2.5t1 2.5v4v4q0 5 -0.5 8.5t-1.5 7.5v1zM371 711h11
q36 -1 54 -7.5t18 -20.5q0 -10 -2 -25t-7 -33h-8.5t-8.5 1h-8h-8q-21 0 -31 9t-10 27l1 18v2.5t1 3.5v4v4q0 4 -0.5 8t-1.5 8v1z" />
    <glyph glyph-name="divide" unicode="&#xf7;" horiz-adv-x="674" 
d="M308 147l35 7q18 2 31 4t21 2q21 0 31.5 -11t10.5 -34q0 -9 -1.5 -19.5t-3.5 -22.5l-6 -32l-23 -4q-24 -5 -38 -7.5t-19 -2.5q-17 0 -25.5 9t-8.5 27v4.5v5.5q0 2 0.5 4.5t0.5 4.5l3 14q1 3 1.5 7.5t0.5 8.5q0 10 -2.5 18.5t-7.5 15.5v1zM116 222q5 33 17 55.5t31 34.5
q12 8 45 11.5t88 3.5l186 1q73 -1 120.5 7t69.5 24q-6 -33 -16 -54t-24 -31q-13 -10 -39.5 -15t-67.5 -5l-232 1q-58 -1 -103 -9t-75 -25v1zM387 541l34 7q18 2 31 4t21 2q21 0 32 -11t11 -34q0 -9 -1.5 -19.5t-3.5 -22.5l-7 -31l-22 -5q-24 -5 -38 -7.5t-19 -2.5
q-18 0 -26.5 9t-8.5 27q0 5 0.5 10t1.5 10l3 13v3.5t1 4.5v4.5v4.5q0 10 -2 18t-7 15v1z" />
    <glyph glyph-name="oslash" unicode="&#xf8;" horiz-adv-x="670" 
d="M645 363q2 -8 2.5 -15t0.5 -13q0 -69 -24 -130t-71 -114q-48 -52 -103.5 -77.5t-118.5 -25.5q-28 0 -55.5 7t-56.5 20q-27 -31 -40 -61.5t-13 -58.5v-5t1 -7q-30 12 -45 25t-15 28q0 10 13.5 34t40.5 59l14 20q-32 36 -48 78t-16 89q0 56 20.5 105t60.5 90q41 41 89 61.5
t104 20.5q8 0 15.5 -1.5t14.5 -3.5q-6 14 -8.5 23t-2.5 14q0 11 4 22t11 23q41 -3 76.5 -18t66.5 -43l19 22q50 55 89.5 83.5t68.5 28.5q14 0 31 -4.5t38 -13.5q-46 -18 -94.5 -50t-98.5 -79l-20 -18q6 -7 11.5 -14.5t10.5 -15.5q45 -28 87.5 -41.5t81.5 -13.5q28 0 59 10
t65 29l25 -40q-37 -29 -77 -42.5t-82 -13.5q-31 0 -63.5 6.5t-67.5 19.5v1zM542 401q-4 0 -7.5 1.5t-6.5 2.5q-57 -58 -123.5 -140.5t-143.5 -189.5q21 -18 43.5 -26.5t47.5 -8.5q41 0 76.5 21t65.5 62t45.5 89t15.5 103q0 22 -3.5 43t-9.5 42v1zM229 119q59 79 122 156
t132 153q-4 2 -8.5 5t-8.5 6q-13 2 -24 3.5t-19 1.5q-40 0 -77.5 -18.5t-69.5 -55.5q-33 -37 -49.5 -79.5t-16.5 -89.5q0 -19 4.5 -39.5t14.5 -43.5v1z" />
    <glyph glyph-name="ugrave" unicode="&#xf9;" horiz-adv-x="780" 
d="M571 300q-34 -70 -71.5 -126.5t-78.5 -100.5q-41 -43 -78.5 -64t-70.5 -21q-27 0 -48 8.5t-38 27.5t-25.5 43.5t-8.5 54.5q0 38 13 109t39 174q7 27 10.5 45t3.5 25q0 8 -2 15.5t-7 16.5l67 1q22 -1 33 -9t11 -25q0 -10 -7.5 -40.5t-21.5 -80.5q-4 -15 -6.5 -25.5
t-4.5 -15.5l-7 -29q-11 -46 -16.5 -80t-5.5 -57q0 -36 12.5 -54t37.5 -18q41 0 92.5 50.5t114.5 151.5q51 82 77 140.5t26 93.5q0 5 -1.5 10t-4.5 10q20 5 37 8t31 3q21 0 32 -6.5t11 -19.5q0 -4 -1 -8.5t-3 -10.5q-1 -4 -3.5 -13t-5.5 -23q-1 -3 -3 -12.5t-7 -26.5
q-3 -12 -5 -21.5t-4 -16.5l-5 -23q-8 -41 -12 -79t-4 -73q0 -54 13 -80.5t38 -26.5q57 0 129.5 80.5t160.5 241.5l41 -23q-100 -194 -191.5 -290t-174.5 -96q-56 0 -84 48t-28 145q0 18 1 41t3 51v1zM570 626q-5 -2 -9 -2h-7q-29 0 -57.5 15t-57.5 45q-25 26 -37.5 43.5
t-12.5 26.5q-1 14 19.5 25.5t61.5 21.5q15 -52 40 -96.5t60 -79.5v1z" />
    <glyph glyph-name="uacute" unicode="&#xfa;" horiz-adv-x="780" 
d="M571 300q-34 -70 -71.5 -126.5t-78.5 -100.5q-41 -43 -78.5 -64t-70.5 -21q-27 0 -48 8.5t-38 27.5t-25.5 43.5t-8.5 54.5q0 38 13 109t39 174q7 27 10.5 45t3.5 25q0 8 -2 15.5t-7 16.5l67 1q22 -1 33 -9t11 -25q0 -10 -7.5 -40.5t-21.5 -80.5q-4 -15 -6.5 -25.5
t-4.5 -15.5l-7 -29q-11 -46 -16.5 -80t-5.5 -57q0 -36 12.5 -54t37.5 -18q41 0 92.5 50.5t114.5 151.5q51 82 77 140.5t26 93.5q0 5 -1.5 10t-4.5 10q20 5 37 8t31 3q21 0 32 -6.5t11 -19.5q0 -4 -1 -8.5t-3 -10.5q-1 -4 -3.5 -13t-5.5 -23q-1 -3 -3 -12.5t-7 -26.5
q-3 -12 -5 -21.5t-4 -16.5l-5 -23q-8 -41 -12 -79t-4 -73q0 -54 13 -80.5t38 -26.5q57 0 129.5 80.5t160.5 241.5l41 -23q-100 -194 -191.5 -290t-174.5 -96q-56 0 -84 48t-28 145q0 18 1 41t3 51v1zM441 626q12 9 22 19t19 20l23 29q20 23 37 39t30 24t29.5 11.5t36.5 3.5
q17 0 32.5 -1.5t28.5 -4.5q-20 -9 -42 -24t-46 -36l-20 -16q-37 -33 -74.5 -49t-75.5 -16v1z" />
    <glyph glyph-name="ucircumflex" unicode="&#xfb;" horiz-adv-x="780" 
d="M571 300q-34 -70 -71.5 -126.5t-78.5 -100.5q-41 -43 -78.5 -64t-70.5 -21q-27 0 -48 8.5t-38 27.5t-25.5 43.5t-8.5 54.5q0 38 13 109t39 174q7 27 10.5 45t3.5 25q0 8 -2 15.5t-7 16.5l67 1q22 -1 33 -9t11 -25q0 -10 -7.5 -40.5t-21.5 -80.5q-4 -15 -6.5 -25.5
t-4.5 -15.5l-7 -29q-11 -46 -16.5 -80t-5.5 -57q0 -36 12.5 -54t37.5 -18q41 0 92.5 50.5t114.5 151.5q51 82 77 140.5t26 93.5q0 5 -1.5 10t-4.5 10q20 5 37 8t31 3q21 0 32 -6.5t11 -19.5q0 -4 -1 -8.5t-3 -10.5q-1 -4 -3.5 -13t-5.5 -23q-1 -3 -3 -12.5t-7 -26.5
q-3 -12 -5 -21.5t-4 -16.5l-5 -23q-8 -41 -12 -79t-4 -73q0 -54 13 -80.5t38 -26.5q57 0 129.5 80.5t160.5 241.5l41 -23q-100 -194 -191.5 -290t-174.5 -96q-56 0 -84 48t-28 145q0 18 1 41t3 51v1zM538 716q-49 -46 -89.5 -68.5t-71.5 -22.5q-7 0 -17 1.5t-21 5.5
q42 28 71.5 49t45.5 34l17 15q24 19 56 32.5t71 19.5q8 -49 24.5 -88t41.5 -69q-25 0 -43.5 4t-29.5 12t-24.5 26.5t-30.5 47.5v1z" />
    <glyph glyph-name="udieresis" unicode="&#xfc;" horiz-adv-x="780" 
d="M571 300q-34 -70 -71.5 -126.5t-78.5 -100.5q-41 -43 -78.5 -64t-70.5 -21q-27 0 -48 8.5t-38 27.5t-25.5 43.5t-8.5 54.5q0 38 13 109t39 174q7 27 10.5 45t3.5 25q0 8 -2 15.5t-7 16.5l67 1q22 -1 33 -9t11 -25q0 -10 -7.5 -40.5t-21.5 -80.5q-4 -15 -6.5 -25.5
t-4.5 -15.5l-7 -29q-11 -46 -16.5 -80t-5.5 -57q0 -36 12.5 -54t37.5 -18q41 0 92.5 50.5t114.5 151.5q51 82 77 140.5t26 93.5q0 5 -1.5 10t-4.5 10q20 5 37 8t31 3q21 0 32 -6.5t11 -19.5q0 -4 -1 -8.5t-3 -10.5q-1 -4 -3.5 -13t-5.5 -23q-1 -3 -3 -12.5t-7 -26.5
q-3 -12 -5 -21.5t-4 -16.5l-5 -23q-8 -41 -12 -79t-4 -73q0 -54 13 -80.5t38 -26.5q57 0 129.5 80.5t160.5 241.5l41 -23q-100 -194 -191.5 -290t-174.5 -96q-56 0 -84 48t-28 145q0 18 1 41t3 51v1zM545 710h11q36 -1 54 -7.5t18 -19.5q0 -10 -2 -25t-6 -34h-8t-9 1h-8h-9
q-21 0 -31 9t-10 27l2 19v5.5v7.5q0 5 -0.5 8.5t-1.5 7.5v1zM352 711h11q36 -1 54.5 -7.5t18.5 -20.5q0 -10 -2 -25t-7 -33h-8.5t-8.5 1h-8h-8q-21 0 -31.5 9t-10.5 27l2 18v6v8t-0.5 8t-1.5 8v1z" />
    <glyph glyph-name="yacute" unicode="&#xfd;" horiz-adv-x="575" 
d="M334 2q-10 65 -29 129.5t-45 128.5q-27 65 -56 113.5t-60 82.5q18 15 36.5 22.5t37.5 7.5q17 0 30.5 -7.5t24.5 -21.5q11 -15 24.5 -45t29.5 -74q26 -70 45 -133.5t32 -120.5q83 131 127.5 245t51.5 211q42 -6 63.5 -20t21.5 -37t-19.5 -71t-57.5 -122
q-38 -73 -79.5 -139.5t-86.5 -127.5q-51 -69 -102 -124t-101 -95q-51 -41 -94.5 -61t-79.5 -20q-33 0 -48.5 14t-15.5 41q0 12 3 25t9 28q12 -8 28.5 -12.5t36.5 -4.5q71 0 139.5 47t133.5 140v1zM335 626q11 9 21 19t19 20l23 29q20 23 37 39t30 24t30 11.5t36 3.5
q17 0 32.5 -1.5t28.5 -4.5q-19 -9 -41.5 -24t-46.5 -36l-20 -16q-19 -17 -37.5 -29t-36.5 -20q-19 -8 -37.5 -12t-37.5 -4v1z" />
    <glyph glyph-name="thorn" unicode="&#xfe;" 
 />
    <glyph glyph-name="ydieresis" unicode="&#xff;" horiz-adv-x="575" 
d="M334 2q-10 65 -29 129.5t-45 128.5q-27 65 -56 113.5t-60 82.5q18 15 36.5 22.5t37.5 7.5q17 0 30.5 -7.5t24.5 -21.5q11 -15 24.5 -45t29.5 -74q26 -70 45 -133.5t32 -120.5q83 131 127.5 245t51.5 211q42 -6 63.5 -20t21.5 -37t-19.5 -71t-57.5 -122
q-38 -73 -79.5 -139.5t-86.5 -127.5q-51 -69 -102 -124t-101 -95q-51 -41 -94.5 -61t-79.5 -20q-33 0 -48.5 14t-15.5 41q0 12 3 25t9 28q12 -8 28.5 -12.5t36.5 -4.5q71 0 139.5 47t133.5 140v1zM483 710h11q36 -1 54 -7.5t18 -19.5q0 -10 -2 -25t-7 -34h-8t-8 1h-9h-8
q-21 0 -31.5 9t-10.5 27l2 19v2.5t1 2.5v4v4q0 5 -0.5 8.5t-1.5 7.5v1zM290 711h11q36 -1 54 -7.5t18 -20.5q0 -10 -2 -25t-7 -33h-8.5t-8.5 1h-8h-8q-21 0 -31 9t-10 27l1 18v2.5t1 3.5v4v4q0 4 -0.5 8t-1.5 8v1z" />
    <glyph glyph-name="Abreve" unicode="&#x102;" 
 />
    <glyph glyph-name="abreve" unicode="&#x103;" 
 />
    <glyph glyph-name="Aogonek" unicode="&#x104;" 
 />
    <glyph glyph-name="aogonek" unicode="&#x105;" 
 />
    <glyph glyph-name="Cacute" unicode="&#x106;" 
 />
    <glyph glyph-name="cacute" unicode="&#x107;" 
 />
    <glyph glyph-name="Ccaron" unicode="&#x10c;" 
 />
    <glyph glyph-name="ccaron" unicode="&#x10d;" 
 />
    <glyph glyph-name="Dcaron" unicode="&#x10e;" 
 />
    <glyph glyph-name="dcaron" unicode="&#x10f;" 
 />
    <glyph glyph-name="Dslash" unicode="&#x110;" 
 />
    <glyph glyph-name="dslash" unicode="&#x111;" 
 />
    <glyph glyph-name="Eogonek" unicode="&#x118;" 
 />
    <glyph glyph-name="eogonek" unicode="&#x119;" 
 />
    <glyph glyph-name="Ecaron" unicode="&#x11a;" 
 />
    <glyph glyph-name="ecaron" unicode="&#x11b;" 
 />
    <glyph glyph-name="Gbreve" unicode="&#x11e;" 
 />
    <glyph glyph-name="gbreve" unicode="&#x11f;" 
 />
    <glyph glyph-name="Idot" unicode="&#x130;" 
 />
    <glyph glyph-name="dotlessi" unicode="&#x131;" horiz-adv-x="443" 
d="M708 399q-55 -98 -111 -173.5t-112 -130.5q-56 -54 -107 -80.5t-96 -26.5q-27 0 -49 8.5t-39 25.5q-16 18 -24.5 41.5t-8.5 52.5q0 11 2.5 28.5t6.5 41.5l11 54q12 57 18 97.5t6 64.5q0 14 -4.5 25.5t-12.5 20.5q32 7 52 10.5t28 3.5q18 0 27 -12.5t9 -37.5
q0 -19 -3.5 -46t-10.5 -62l-19 -95q-7 -35 -10.5 -57t-3.5 -33q0 -30 13 -45t38 -15q31 0 71.5 25.5t91.5 76.5q50 52 99.5 117t96.5 144l41 -23v0z" />
    <glyph glyph-name="Lacute" unicode="&#x139;" 
 />
    <glyph glyph-name="lacute" unicode="&#x13a;" 
 />
    <glyph glyph-name="Lcaron" unicode="&#x13d;" 
 />
    <glyph glyph-name="lcaron" unicode="&#x13e;" 
 />
    <glyph glyph-name="Ldot" unicode="&#x13f;" 
 />
    <glyph glyph-name="ldot" unicode="&#x140;" 
 />
    <glyph glyph-name="Lslash" unicode="&#x141;" 
 />
    <glyph glyph-name="lslash" unicode="&#x142;" 
 />
    <glyph glyph-name="Nacute" unicode="&#x143;" 
 />
    <glyph glyph-name="nacute" unicode="&#x144;" 
 />
    <glyph glyph-name="Ncaron" unicode="&#x147;" 
 />
    <glyph glyph-name="ncaron" unicode="&#x148;" 
 />
    <glyph glyph-name="Odblacute" unicode="&#x150;" 
 />
    <glyph glyph-name="odblacute" unicode="&#x151;" 
 />
    <glyph glyph-name="OE" unicode="&#x152;" horiz-adv-x="1050" 
d="M608 59q-52 -40 -107 -58.5t-114 -18.5q-60 0 -109.5 20.5t-88.5 63.5t-58.5 98t-19.5 122q0 93 34.5 175.5t102.5 153.5t147 107t169 36q47 0 88 -9.5t77 -27.5l212 1q59 -1 114.5 5.5t107.5 19.5q-16 -28 -32.5 -46t-33.5 -25q-16 -7 -48.5 -11t-81.5 -4l-161 1
l-47 -238h101q50 -1 92.5 6t76.5 20q-19 -34 -34.5 -53.5t-26.5 -25.5q-12 -5 -41.5 -8t-78.5 -3l-102 1l-23 -119q-7 -34 -10.5 -58.5t-3.5 -41.5q0 -42 33.5 -62.5t100.5 -20.5q56 0 107.5 10.5t99.5 32.5q-9 -34 -22.5 -56t-31.5 -31q-6 -3 -14.5 -5.5t-20.5 -5.5
t-27.5 -5t-33.5 -5q-37 -6 -67 -9t-54 -3q-64 0 -107 18.5t-64 57.5v1zM699 638q-42 31 -86 46.5t-89 15.5q-64 0 -118.5 -27t-100.5 -82t-68.5 -120.5t-22.5 -141.5q0 -64 15 -117t45 -94q30 -42 68.5 -62.5t84.5 -20.5q44 0 86.5 21.5t82.5 64.5l48 240h-15
q-46 -1 -85 -12t-69 -32q8 32 20 54t28 32q17 10 48 15t75 5l10 1l43 214v0z" />
    <glyph glyph-name="oe" unicode="&#x153;" horiz-adv-x="949" 
d="M518 59q-44 -37 -90 -54t-94 -17q-49 0 -89.5 15t-71.5 46t-46 72t-15 92q0 60 22.5 111.5t66.5 94.5q45 43 99 64t117 21q55 0 99 -17t77 -52q51 53 103.5 79t107.5 26q26 0 47 -6.5t37 -20.5q17 -13 25 -31t8 -40q0 -48 -24.5 -89t-74.5 -76q-49 -34 -107.5 -52
t-126.5 -18v-14v-10q0 -26 8.5 -48.5t25.5 -40.5q17 -17 38 -26t46 -9q54 0 113.5 25t123.5 76q65 50 122 116t107 147l42 -23q-55 -96 -120 -171.5t-139 -131.5q-73 -55 -145.5 -82t-143.5 -27q-46 0 -82.5 17t-65.5 53v1zM549 386q-15 35 -43 53t-69 18q-42 0 -81 -20
t-74 -60q-34 -40 -52 -84t-18 -92q0 -35 10.5 -64t29.5 -52q20 -22 45.5 -33.5t56.5 -11.5q38 0 71.5 19t63.5 56q-4 12 -5.5 24t-1.5 25q0 58 16.5 113.5t50.5 107.5v1zM589 250q53 3 95.5 16.5t75.5 36.5q32 23 48 52t16 63q0 13 -4.5 24t-14.5 20q-9 9 -20 13.5t-25 4.5
q-29 0 -55.5 -15.5t-50.5 -47.5q-23 -31 -39.5 -73t-25.5 -95v1z" />
    <glyph glyph-name="Racute" unicode="&#x154;" 
 />
    <glyph glyph-name="racute" unicode="&#x155;" 
 />
    <glyph glyph-name="Rcaron" unicode="&#x158;" 
 />
    <glyph glyph-name="rcaron" unicode="&#x159;" 
 />
    <glyph glyph-name="Sacute" unicode="&#x15a;" 
 />
    <glyph glyph-name="sacute" unicode="&#x15b;" 
 />
    <glyph glyph-name="Scedilla" unicode="&#x15e;" 
 />
    <glyph glyph-name="scedilla" unicode="&#x15f;" 
 />
    <glyph glyph-name="Scaron" unicode="&#x160;" 
 />
    <glyph glyph-name="scaron" unicode="&#x161;" 
 />
    <glyph glyph-name="Tcedilla" unicode="&#x162;" 
 />
    <glyph glyph-name="tcedilla" unicode="&#x163;" 
 />
    <glyph glyph-name="Tcaron" unicode="&#x164;" 
 />
    <glyph glyph-name="tcaron" unicode="&#x165;" 
 />
    <glyph glyph-name="Uring" unicode="&#x16e;" 
 />
    <glyph glyph-name="uring" unicode="&#x16f;" 
 />
    <glyph glyph-name="udblacute" unicode="&#x170;" 
 />
    <glyph glyph-name="Udblacute" unicode="&#x171;" 
 />
    <glyph glyph-name="Ydieresis" unicode="&#x178;" horiz-adv-x="583" 
d="M392 337l-48 -241q-5 -24 -7.5 -39t-2.5 -22t1.5 -14.5t4.5 -15.5q-25 -11 -47.5 -17t-42.5 -6q-13 0 -19 5t-6 14q0 5 2.5 20.5t7.5 40.5l54 275q-15 66 -37.5 127.5t-52.5 117.5t-60.5 93t-62.5 56q26 18 45.5 27t32.5 9q47 0 102 -96t118 -288q48 43 90 86.5t78 89.5
q37 45 55 76.5t18 50.5q0 10 -4 19t-12 16q20 9 36.5 13.5t28.5 4.5q20 0 30 -10.5t10 -31.5q0 -24 -24 -63.5t-73 -95.5q-48 -55 -102 -105.5t-113 -96.5v1zM488 867h11q36 -1 54 -7.5t18 -20.5q0 -10 -2 -25t-7 -33h-8t-8 1h-8h-9q-21 0 -31 8.5t-10 26.5l2 19v6v8t-0.5 8
t-1.5 8v1zM295 868h11q36 -1 54 -7.5t18 -20.5q0 -11 -2 -25.5t-6 -32.5h-8.5t-9.5 1h-8h-8q-21 0 -31 8.5t-10 26.5l1 19v2.5t1 3.5v4v4q0 4 -0.5 8t-1.5 8v1z" />
    <glyph glyph-name="Zacute" unicode="&#x179;" 
 />
    <glyph glyph-name="zacute" unicode="&#x17a;" 
 />
    <glyph glyph-name="Zdot" unicode="&#x17b;" 
 />
    <glyph glyph-name="zdot" unicode="&#x17c;" 
 />
    <glyph glyph-name="Zcaron" unicode="&#x17d;" 
 />
    <glyph glyph-name="zcaron" unicode="&#x17e;" 
 />
    <glyph glyph-name="florin" unicode="&#x192;" horiz-adv-x="674" 
d="M336 361h-54q-37 -1 -67 -7t-51 -17q4 23 11 37t17 21t28 10.5t45 3.5h37h44l5 26q14 70 40.5 126t65.5 98t84 63t97 21q20 0 37.5 -6t31.5 -17q14 -10 21 -23.5t7 -30.5q0 -16 -17 -31t-51 -28q-4 -1 -10.5 -4t-14.5 -6q3 8 4.5 15t1.5 13q0 30 -14 45t-43 15
q-46 0 -80 -52t-55 -156l-14 -68h52q38 -1 65.5 3.5t44.5 13.5q-5 -22 -13.5 -35.5t-19.5 -19.5q-10 -5 -33.5 -8t-58.5 -3l-46 1l-68 -343q-6 -30 -9 -56.5t-3 -49.5q0 -14 3 -27t9 -25q-25 -8 -43.5 -12t-31.5 -4q-20 0 -30 11.5t-10 34.5q0 18 4 46.5t12 67.5l70 357v0z
" />
    <glyph glyph-name="hungarumlaut" unicode="&#x2ba;" 
 />
    <glyph glyph-name="tilde" unicode="&#x2c6;" horiz-adv-x="674" 
d="M520 716q-49 -46 -89.5 -68.5t-71.5 -22.5q-7 0 -17 1.5t-21 5.5q42 28 71.5 49t45.5 34l18 15q24 19 56 32.5t71 19.5q8 -49 24 -88t41 -69q-25 0 -43 4t-29 12t-25 26.5t-31 47.5v1z" />
    <glyph glyph-name="caron" unicode="&#x2c7;" horiz-adv-x="674" 
d="M449 693q50 44 90 66.5t71 22.5q8 0 17 -2t21 -5q-43 -28 -72 -49t-45 -34l-17 -13q-25 -22 -57 -35t-70 -19q-8 48 -24.5 87.5t-41.5 69.5q25 0 43.5 -4t29.5 -12q11 -7 25 -26t30 -48v1z" />
    <glyph glyph-name="macron" unicode="&#x2c9;" 
 />
    <glyph glyph-name="breve" unicode="&#x2d8;" 
 />
    <glyph glyph-name="dotaccent" unicode="&#x2d9;" 
 />
    <glyph glyph-name="ring" unicode="&#x2da;" horiz-adv-x="674" 
d="M501 784q38 -15 57 -34.5t19 -44.5q0 -18 -7.5 -32.5t-22.5 -25.5t-34.5 -17t-42.5 -6q-20 0 -37.5 5t-31.5 15q-13 9 -20 21t-7 25q0 17 9 35t27 36q19 19 40 32.5t46 20.5q2 -7 3.5 -12.5t1.5 -8.5v-4.5v-5.5v1zM485 757q-30 -20 -45 -35.5t-15 -27.5t10.5 -18t32.5 -6
q33 0 50 9t17 27q0 10 -12.5 22.5t-37.5 27.5v1z" />
    <glyph glyph-name="ogonek" unicode="&#x2db;" 
 />
    <glyph glyph-name="circumflex" unicode="&#x2dc;" horiz-adv-x="674" 
d="M405 620q-22 5 -32.5 15.5t-10.5 23.5q0 14 8 28t24 27t32.5 19t34.5 6q15 0 30 -4t29 -12l14 -9q13 -9 24 -13t20 -4q20 0 30.5 13t13.5 40q21 -6 31.5 -16.5t10.5 -24.5q0 -15 -8 -29t-24 -28q-16 -13 -33 -20t-35 -7q-12 0 -28.5 6t-37.5 19l-19 13q-10 4 -19.5 7
t-18.5 3q-18 0 -27 -11t-9 -34v-8v0z" />
    <glyph glyph-name="Gamma" unicode="&#x393;" 
 />
    <glyph glyph-name="Theta" unicode="&#x398;" 
 />
    <glyph glyph-name="summation" unicode="&#x3a3;" 
 />
    <glyph glyph-name="Phi" unicode="&#x3a6;" 
 />
    <glyph glyph-name="Omega" unicode="&#x3a9;" 
 />
    <glyph glyph-name="alpha" unicode="&#x3b1;" 
 />
    <glyph glyph-name="delta" unicode="&#x3b4;" 
 />
    <glyph glyph-name="epsilon" unicode="&#x3b5;" 
 />
    <glyph glyph-name="pi" unicode="&#x3c0;" 
 />
    <glyph glyph-name="sigma" unicode="&#x3c3;" 
 />
    <glyph glyph-name="tau" unicode="&#x3c4;" 
 />
    <glyph glyph-name="phi" unicode="&#x3c6;" 
 />
    <glyph glyph-name="glyph276" unicode="&#x2013;" 
d="M226 231q8 37 19 60t24 30q13 8 48 11.5t92 3.5l7 1q72 -1 120 7t70 24q-6 -36 -16.5 -58t-25.5 -30q-16 -8 -54.5 -12t-100.5 -4l-4 1q-58 -1 -103 -9.5t-76 -25.5v1z" />
    <glyph glyph-name="emdash" unicode="&#x2014;" horiz-adv-x="1000" 
d="M239 231q8 37 18.5 60t23.5 30q13 8 48 11.5t92 3.5l481 1q72 -1 120 7t70 24q-6 -36 -16.5 -58t-25.5 -30t-54 -12t-101 -4l-478 1q-58 -1 -102.5 -9.5t-75.5 -25.5v1z" />
    <glyph glyph-name="underscoredbl" unicode="&#x2017;" 
 />
    <glyph glyph-name="quoteleft" unicode="&#x2018;" horiz-adv-x="285" 
d="M360 803q-8 1 -15 2t-12 1q-17 0 -31.5 -7.5t-27.5 -22.5q-12 -14 -18 -32t-6 -39q0 -31 15 -56.5t46 -45.5q-25 -18 -48.5 -26.5t-44.5 -8.5q-34 0 -51 19.5t-17 58.5q0 38 13.5 73.5t40.5 68.5t56 49.5t60 16.5q17 0 27 -13t13 -39v1z" />
    <glyph glyph-name="quoteright" unicode="&#x2019;" horiz-adv-x="285" 
d="M144 621q8 -3 14.5 -4t12.5 -1q17 0 32 7.5t27 21.5q12 15 18 33t6 38q0 30 -15 56t-45 47q26 17 48.5 26t43.5 9q34 0 51 -19.5t17 -58.5q0 -38 -13.5 -73.5t-40.5 -68.5t-55.5 -49.5t-59.5 -16.5q-17 0 -27.5 13t-13.5 39v1z" />
    <glyph glyph-name="quotesinglbase" unicode="&#x201a;" horiz-adv-x="348" 
d="M94 -102q8 -2 14.5 -2.5t12.5 -0.5q17 0 31.5 7.5t27.5 22.5q12 14 18 32t6 39q0 29 -15 54t-45 46q26 17 48.5 26t43.5 9q34 0 51 -19.5t17 -58.5q0 -37 -13.5 -72t-40.5 -68t-56 -49.5t-59 -16.5q-17 0 -27.5 12.5t-13.5 38.5v0z" />
    <glyph glyph-name="quotedblleft" unicode="&#x201c;" horiz-adv-x="509" 
d="M360 803q-8 1 -15 2t-12 1q-17 0 -31.5 -7.5t-27.5 -22.5q-12 -14 -18 -32t-6 -39q0 -31 15 -56.5t46 -45.5q-25 -18 -48.5 -26.5t-44.5 -8.5q-34 0 -51 19.5t-17 58.5q0 38 13.5 73.5t40.5 68.5t56 49.5t60 16.5q17 0 27 -13t13 -39v1zM585 803q-8 1 -15 2t-12 1
q-17 0 -32 -7.5t-27 -22.5q-12 -14 -18 -32t-6 -39q0 -31 15 -56.5t45 -45.5q-25 -18 -48.5 -26.5t-43.5 -8.5q-34 0 -51 19.5t-17 58.5q0 38 13.5 73.5t40.5 68.5t55.5 49.5t59.5 16.5q17 0 27.5 -13t13.5 -39v1z" />
    <glyph glyph-name="quotedblright" unicode="&#x201d;" horiz-adv-x="509" 
d="M147 621q8 -3 14.5 -4t12.5 -1q17 0 32 7.5t27 21.5q12 15 18 33t6 38q0 30 -15 56t-45 47q26 17 48.5 26t43.5 9q34 0 51 -19.5t17 -58.5q0 -38 -13.5 -73.5t-40.5 -68.5t-55.5 -49.5t-59.5 -16.5q-17 0 -27.5 13t-13.5 39v1zM372 621q8 -3 14 -4t12 -1q17 0 32 7.5
t28 21.5q12 15 18 33t6 39q0 30 -15.5 55.5t-45.5 46.5q26 17 49 26t44 9q34 0 51 -19.5t17 -58.5q0 -38 -13.5 -73.5t-40.5 -68.5t-56 -49.5t-59 -16.5q-18 0 -28 13t-13 39v1z" />
    <glyph glyph-name="quotedblbase" unicode="&#x201e;" horiz-adv-x="572" 
d="M94 -102q8 -2 14.5 -2.5t12.5 -0.5q17 0 31.5 7.5t27.5 22.5q12 14 18 32t6 39q0 29 -15 54t-45 46q26 17 48.5 26t43.5 9q34 0 51 -19.5t17 -58.5q0 -37 -13.5 -72t-40.5 -68t-56 -49.5t-59 -16.5q-17 0 -27.5 12.5t-13.5 38.5v0zM318 -102q8 -2 14.5 -2.5t12.5 -0.5
q17 0 32 7.5t27 22.5q13 14 19 32t6 39q0 29 -15.5 54t-45.5 46q26 17 48.5 26t43.5 9q34 0 51 -19.5t17 -58.5q0 -37 -13.5 -72t-40.5 -68t-55.5 -49.5t-59.5 -16.5q-17 0 -27.5 12.5t-13.5 38.5v0z" />
    <glyph glyph-name="dagger" unicode="&#x2020;" horiz-adv-x="674" 
d="M454 406l-21 -107q-28 -140 -42 -238.5t-14 -156.5q0 -12 3.5 -25.5t10.5 -27.5q-54 3 -81 23t-27 58l89 441l6 33q-61 -1 -107.5 -9t-78.5 -25q14 44 38 65.5t57 21.5q9 0 21.5 -0.5t27.5 -1.5q19 -1 32.5 -1h20.5l7 39q12 62 18.5 108.5t6.5 75.5q0 17 -3.5 31
t-10.5 26q50 -4 74.5 -20.5t24.5 -46.5q0 -18 -7 -55.5t-21 -96.5q-4 -18 -7 -28.5t-3 -13.5l-4 -18h23q71 -1 120 7t77 24q-9 -45 -30.5 -67t-56.5 -22q-30 0 -66 1.5t-77 4.5v1z" />
    <glyph glyph-name="daggerdbl" unicode="&#x2021;" horiz-adv-x="674" 
d="M395 113l-7 -43q-8 -51 -12 -86t-4 -57q0 -23 4 -40.5t12 -30.5h-5t-4 -1h-3.5h-3.5q-40 0 -60.5 17.5t-20.5 52.5q0 16 4.5 45.5t13.5 72.5q2 8 3.5 17.5t3.5 19.5l7 33l-24 1q-55 -1 -102.5 -5.5t-86.5 -12.5q11 21 21.5 35.5t22.5 21.5q11 8 29 11t41 3q20 0 47 -1
t62 -3l48 244q-14 -2 -28.5 -3t-28.5 -2q-46 -3 -81.5 -10.5t-60.5 -19.5q9 26 19 43.5t21 26.5q12 9 31 13t44 4h45l49 -1l6 28q14 67 20.5 115t6.5 76q0 19 -4.5 34t-13.5 27q50 -3 75.5 -19t25.5 -46q0 -7 -1.5 -16t-3.5 -20l-4 -16t-3 -16q-2 -9 -3.5 -17t-3.5 -16
q-4 -24 -7 -39t-5 -23q-4 -16 -6.5 -25.5t-2.5 -11.5l-4 -15l18 -1q71 -1 119 6t74 22q-10 -42 -32.5 -62.5t-57.5 -20.5l-98 4l-32 1l-49 -243q65 -1 114 9t80 30q0 -46 -32 -69.5t-96 -23.5l-76 3v0z" />
    <glyph glyph-name="glyph287" unicode="&#x2022;" horiz-adv-x="674" 
d="M309 274q0 15 7.5 29t23.5 26q15 13 32.5 19t36.5 6q35 0 52.5 -14t17.5 -43q0 -16 -8 -30t-24 -28q-16 -13 -33.5 -20t-37.5 -7q-34 0 -50.5 15t-16.5 46v1z" />
    <glyph glyph-name="ellipsis" unicode="&#x2026;" horiz-adv-x="1000" 
d="M122 90q18 4 34 6.5t29 2.5q20 0 30 -9.5t10 -28.5q0 -7 -2 -20t-7 -33q-18 -4 -31.5 -6t-22.5 -2q-18 0 -27 7.5t-9 23.5v9l1 16v4q0 8 -1.5 15.5t-3.5 13.5v1zM456 90q18 4 34 6.5t29 2.5q20 0 30 -9.5t10 -28.5q0 -7 -2 -20t-7 -33q-19 -4 -32.5 -6t-21.5 -2
q-19 0 -28 7.5t-9 23.5v4t1 4l1 17v4q0 8 -1.5 15.5t-3.5 13.5v1zM789 90q18 4 34 6.5t29 2.5q20 0 30 -9.5t10 -28.5q0 -6 -2 -19.5t-7 -33.5q-18 -4 -31.5 -6t-22.5 -2q-18 0 -27 7.5t-9 23.5v4v4l1 17v4q0 8 -1.5 15.5t-3.5 13.5v1z" />
    <glyph glyph-name="perthousand" unicode="&#x2030;" horiz-adv-x="1157" 
d="M221 -97q-28 13 -41.5 30.5t-13.5 40.5q0 28 51.5 102t154.5 192q119 137 199.5 226t123.5 131q-43 -21 -85 -31.5t-83 -10.5q-7 0 -18.5 1t-26.5 2v-4t1 -3v-3v-2q0 -46 -13.5 -84.5t-41.5 -69.5q-27 -31 -60.5 -47t-74.5 -16q-30 0 -55.5 9t-45.5 28q-19 19 -29.5 42.5
t-10.5 51.5q0 32 10.5 61.5t30.5 57.5q20 29 41 43t43 14q11 0 20.5 -6.5t16.5 -18.5q-20 -8 -37 -23t-30 -35t-19 -42.5t-6 -47.5q0 -19 6 -34t17 -27q12 -13 27 -19t32 -6q24 0 43.5 11t35.5 33q15 22 23 49.5t8 61.5q0 7 -1 15.5t-3 18.5q-36 14 -54 29.5t-18 31.5
q0 13 10.5 28.5t31.5 34.5q23 -37 64 -56t101 -19q68 0 126 19t104 56l11 10q14 10 23.5 15.5t16.5 5.5q9 0 18 -6.5t18 -19.5q-61 -52 -151.5 -151t-210.5 -245q-74 -90 -126 -157.5t-81 -111.5q-28 -44 -46 -82.5t-26 -72.5v0zM674 328q9 11 20 17t23 6q19 0 36.5 -12
t33.5 -36q16 -25 24 -50.5t8 -52.5q0 -40 -14 -75.5t-42 -65.5t-62 -44.5t-73 -14.5q-29 0 -53 9.5t-43 28.5q-19 20 -28.5 45.5t-9.5 56.5q0 38 12 69.5t36 56.5t57 40t75 21v1zM702 287q-3 -1 -6 -1t-6 1h-4h-4q-23 0 -43.5 -10.5t-39.5 -33.5q-18 -22 -27 -46.5t-9 -52.5
q0 -47 20 -70.5t60 -23.5q22 0 41 9t35 28t23.5 41.5t7.5 49.5q0 32 -12 59t-36 49v1zM1043 328q9 11 20 17t23 6q19 0 36.5 -12t33.5 -36q17 -25 24.5 -50.5t7.5 -52.5q0 -40 -13.5 -75.5t-42.5 -65.5q-28 -30 -62 -44.5t-72 -14.5q-29 0 -53.5 9.5t-43.5 28.5
q-19 20 -28.5 45.5t-9.5 56.5q0 38 12 69.5t36 56.5t57 40t75 21v1zM1071 287q-3 -1 -6 -1t-6 1h-4h-4q-23 0 -43.5 -10.5t-39.5 -33.5q-18 -22 -27 -46.5t-9 -52.5q0 -47 20 -70.5t60 -23.5q22 0 41 9t35 28t24 41.5t8 49.5q0 32 -12.5 59t-36.5 49v1z" />
    <glyph glyph-name="guilsinglleft" unicode="&#x2039;" horiz-adv-x="505" 
d="M247 273q89 47 148.5 102.5t90.5 116.5q3 -2 5.5 -3.5t3.5 -2.5q11 -7 16.5 -15.5t5.5 -17.5q0 -27 -42.5 -78t-127.5 -126q11 -28 26 -50.5t35 -41.5q10 -9 20 -15.5t20 -11.5q9 -4 19 -6.5t20 -2.5l7 1q-16 -17 -31 -25t-29 -8q-48 0 -94.5 46t-92.5 137v1z" />
    <glyph glyph-name="guilsinglright" unicode="&#x203a;" horiz-adv-x="505" 
d="M526 261q-93 -49 -155.5 -106t-95.5 -123q-15 11 -22 23.5t-7 25.5q0 30 40.5 76.5t121.5 109.5q-49 47 -73.5 87.5t-24.5 74.5q0 11 5 20.5t15 19.5q29 -63 78 -115.5t118 -93.5v1z" />
    <glyph glyph-name="exclamdbl" unicode="&#x203c;" 
 />
    <glyph glyph-name="nsuperior" unicode="&#x207f;" 
 />
    <glyph glyph-name="franc" unicode="&#x20a3;" 
 />
    <glyph glyph-name="peseta" unicode="&#x20a7;" 
 />
    <glyph glyph-name="trademark" unicode="&#x2122;" horiz-adv-x="951" 
d="M656 677l-27 -137q-6 -28 -8.5 -46.5t-2.5 -29.5q0 -17 4.5 -32t14.5 -29q-5 -1 -9.5 -1h-7.5q-36 0 -54 11.5t-18 35.5q0 10 6 40t18 80l24 92q7 28 10.5 50.5t3.5 39.5q0 15 -3 28.5t-9 25.5q17 6 29.5 9.5t21.5 3.5q17 0 28.5 -5.5t18.5 -16.5q7 -10 13 -32.5
t12 -56.5l12 -65q6 -35 13.5 -62t15.5 -46l58 110q2 3 7.5 15t14.5 31q11 23 21 37t20 21q10 8 29.5 14t47.5 11l28 6q-15 -62 -22 -115.5t-7 -98.5q0 -58 12 -98.5t36 -63.5q-20 -16 -37.5 -23.5t-32.5 -7.5q-17 0 -28.5 7.5t-17.5 22.5q-7 14 -10 41t-3 65q0 32 3.5 76.5
t10.5 101.5q-40 -89 -60.5 -135t-22.5 -49q-17 -35 -34 -52.5t-34 -17.5q-16 0 -28 12t-20 35q-8 24 -17 73t-20 124v1zM301 708h-11q-34 -1 -67.5 -11t-68.5 -30q2 6 3 10.5t2 7.5q8 29 16.5 47t18.5 26q9 8 27 11.5t46 3.5l66 -2l43 -1h25q41 -1 77 3.5t69 14.5
q-5 -43 -27 -64t-61 -21q-7 0 -15.5 0.5t-19.5 1.5q-12 1 -19.5 1.5t-11.5 0.5l-14 1l-28 -143q-6 -31 -9 -54t-3 -39q0 -18 4 -33t12 -27q-13 -5 -25 -7.5t-24 -2.5q-28 0 -41.5 10.5t-13.5 32.5q0 8 3 26.5t10 47.5l37 189v0z" />
    <glyph glyph-name="arrowleft" unicode="&#x2190;" 
 />
    <glyph glyph-name="arrowup" unicode="&#x2191;" 
 />
    <glyph glyph-name="arrowright" unicode="&#x2192;" 
 />
    <glyph glyph-name="arrowdown" unicode="&#x2193;" 
 />
    <glyph glyph-name="arrowboth" unicode="&#x2194;" 
 />
    <glyph glyph-name="arrowupdn" unicode="&#x2195;" 
 />
    <glyph glyph-name="arrowupdnbase" unicode="&#x21a8;" 
 />
    <glyph glyph-name="partialdiff" unicode="&#x2202;" 
 />
    <glyph glyph-name="Delta" unicode="&#x2206;" 
 />
    <glyph glyph-name="product" unicode="&#x220f;" 
 />
    <glyph glyph-name="minus" unicode="&#x2212;" 
 />
    <glyph glyph-name="fraction" unicode="&#x2215;" 
 />
    <glyph glyph-name="periodcentered" unicode="&#x2219;" 
 />
    <glyph glyph-name="radical" unicode="&#x221a;" 
 />
    <glyph glyph-name="infinity" unicode="&#x221e;" 
 />
    <glyph glyph-name="orthogonal" unicode="&#x221f;" 
 />
    <glyph glyph-name="intersection" unicode="&#x2229;" 
 />
    <glyph glyph-name="integral" unicode="&#x222b;" 
 />
    <glyph glyph-name="approxequal" unicode="&#x2248;" 
 />
    <glyph glyph-name="notequal" unicode="&#x2260;" 
 />
    <glyph glyph-name="equivalence" unicode="&#x2261;" 
 />
    <glyph glyph-name="lessequal" unicode="&#x2264;" 
 />
    <glyph glyph-name="greaterequal" unicode="&#x2265;" 
 />
    <glyph glyph-name="house" unicode="&#x2302;" 
 />
    <glyph glyph-name="revlogicalnot" unicode="&#x2310;" 
 />
    <glyph glyph-name="integraltp" unicode="&#x2320;" 
 />
    <glyph glyph-name="integralbt" unicode="&#x2321;" 
 />
    <glyph glyph-name="2500" unicode="&#x2500;" 
 />
    <glyph glyph-name="2502" unicode="&#x2502;" 
 />
    <glyph glyph-name="250c" unicode="&#x250c;" 
 />
    <glyph glyph-name="2510" unicode="&#x2510;" 
 />
    <glyph glyph-name="2514" unicode="&#x2514;" 
 />
    <glyph glyph-name="2518" unicode="&#x2518;" 
 />
    <glyph glyph-name="251c" unicode="&#x251c;" 
 />
    <glyph glyph-name="2524" unicode="&#x2524;" 
 />
    <glyph glyph-name="252c" unicode="&#x252c;" 
 />
    <glyph glyph-name="2534" unicode="&#x2534;" 
 />
    <glyph glyph-name="253c" unicode="&#x253c;" 
 />
    <glyph glyph-name="2550" unicode="&#x2550;" 
 />
    <glyph glyph-name="2551" unicode="&#x2551;" 
 />
    <glyph glyph-name="2552" unicode="&#x2552;" 
 />
    <glyph glyph-name="2553" unicode="&#x2553;" 
 />
    <glyph glyph-name="2554" unicode="&#x2554;" 
 />
    <glyph glyph-name="2555" unicode="&#x2555;" 
 />
    <glyph glyph-name="2556" unicode="&#x2556;" 
 />
    <glyph glyph-name="2557" unicode="&#x2557;" 
 />
    <glyph glyph-name="2558" unicode="&#x2558;" 
 />
    <glyph glyph-name="2559" unicode="&#x2559;" 
 />
    <glyph glyph-name="255a" unicode="&#x255a;" 
 />
    <glyph glyph-name="255b" unicode="&#x255b;" 
 />
    <glyph glyph-name="255c" unicode="&#x255c;" 
 />
    <glyph glyph-name="255d" unicode="&#x255d;" 
 />
    <glyph glyph-name="255e" unicode="&#x255e;" 
 />
    <glyph glyph-name="255f" unicode="&#x255f;" 
 />
    <glyph glyph-name="2560" unicode="&#x2560;" 
 />
    <glyph glyph-name="2561" unicode="&#x2561;" 
 />
    <glyph glyph-name="2562" unicode="&#x2562;" 
 />
    <glyph glyph-name="2563" unicode="&#x2563;" 
 />
    <glyph glyph-name="2564" unicode="&#x2564;" 
 />
    <glyph glyph-name="2565" unicode="&#x2565;" 
 />
    <glyph glyph-name="2566" unicode="&#x2566;" 
 />
    <glyph glyph-name="2567" unicode="&#x2567;" 
 />
    <glyph glyph-name="2568" unicode="&#x2568;" 
 />
    <glyph glyph-name="2569" unicode="&#x2569;" 
 />
    <glyph glyph-name="256a" unicode="&#x256a;" 
 />
    <glyph glyph-name="256b" unicode="&#x256b;" 
 />
    <glyph glyph-name="256c" unicode="&#x256c;" 
 />
    <glyph glyph-name="upblock" unicode="&#x2580;" 
 />
    <glyph glyph-name="dnblock" unicode="&#x2584;" 
 />
    <glyph glyph-name="block" unicode="&#x2588;" 
 />
    <glyph glyph-name="lfblock" unicode="&#x258c;" 
 />
    <glyph glyph-name="rtblock" unicode="&#x2590;" 
 />
    <glyph glyph-name="ltshade" unicode="&#x2591;" 
 />
    <glyph glyph-name="shade" unicode="&#x2592;" 
 />
    <glyph glyph-name="dkshade" unicode="&#x2593;" 
 />
    <glyph glyph-name="filledbox" unicode="&#x25a0;" 
 />
    <glyph glyph-name="filledrect" unicode="&#x25ac;" 
 />
    <glyph glyph-name="triagup" unicode="&#x25b2;" 
 />
    <glyph glyph-name="triagrt" unicode="&#x25ba;" 
 />
    <glyph glyph-name="triagdn" unicode="&#x25bc;" 
 />
    <glyph glyph-name="triaglf" unicode="&#x25c4;" 
 />
    <glyph glyph-name="lozenge" unicode="&#x25ca;" horiz-adv-x="674" 
d="M308 147l35 7q18 2 31 4t21 2q21 0 31.5 -11t10.5 -34q0 -9 -1.5 -19.5t-3.5 -22.5l-6 -32l-23 -4q-24 -5 -38 -7.5t-19 -2.5q-17 0 -25.5 9t-8.5 27v4.5v5.5q0 2 0.5 4.5t0.5 4.5l3 14q1 3 1.5 7.5t0.5 8.5q0 10 -2.5 18.5t-7.5 15.5v1zM116 222q5 33 17 55.5t31 34.5
q12 8 45 11.5t88 3.5l186 1q73 -1 120.5 7t69.5 24q-6 -33 -16 -54t-24 -31q-13 -10 -39.5 -15t-67.5 -5l-232 1q-58 -1 -103 -9t-75 -25v1zM387 541l34 7q18 2 31 4t21 2q21 0 32 -11t11 -34q0 -9 -1.5 -19.5t-3.5 -22.5l-7 -31l-22 -5q-24 -5 -38 -7.5t-19 -2.5
q-18 0 -26.5 9t-8.5 27q0 5 0.5 10t1.5 10l3 13v3.5t1 4.5v4.5v4.5q0 10 -2 18t-7 15v1z" />
    <glyph glyph-name="circle" unicode="&#x25cb;" 
 />
    <glyph glyph-name="invbullet" unicode="&#x25d8;" 
 />
    <glyph glyph-name="invcircle" unicode="&#x25d9;" 
 />
    <glyph glyph-name="smileface" unicode="&#x263a;" 
 />
    <glyph glyph-name="invsmileface" unicode="&#x263b;" 
 />
    <glyph glyph-name="sun" unicode="&#x263c;" 
 />
    <glyph glyph-name="female" unicode="&#x2640;" 
 />
    <glyph glyph-name="male" unicode="&#x2642;" 
 />
    <glyph glyph-name="spade" unicode="&#x2660;" 
 />
    <glyph glyph-name="club" unicode="&#x2663;" 
 />
    <glyph glyph-name="heart" unicode="&#x2665;" 
 />
    <glyph glyph-name="diamond" unicode="&#x2666;" 
 />
    <glyph glyph-name="musicalnote" unicode="&#x266a;" 
 />
    <glyph glyph-name="musicalnotedbl" unicode="&#x266b;" 
 />
    <glyph glyph-name="apple" unicode="&#xf000;" 
 />
    <glyph glyph-name="fi" unicode="&#xf001;" 
 />
    <glyph glyph-name="fl" unicode="&#xf002;" 
 />
    <glyph glyph-name="degree" horiz-adv-x="295" 
d="M285 734q46 -8 69 -26.5t23 -49.5q0 -19 -8.5 -34.5t-25.5 -29.5q-17 -13 -38 -19.5t-45 -6.5q-40 0 -60.5 14.5t-20.5 43.5q0 41 23.5 74.5t71.5 61.5q2 -4 4 -7.5t3 -6.5q2 -4 3 -7.5t1 -7.5v1zM275 704q-23 -23 -34.5 -40t-11.5 -29q0 -11 7 -16.5t22 -5.5q14 0 27 4
t26 11q13 8 19 15.5t6 15.5q0 11 -15.5 22.5t-45.5 21.5v1z" />
    <glyph glyph-name="bullet" horiz-adv-x="674" 
d="M309 274q0 15 7.5 29t23.5 26q15 13 32.5 19t36.5 6q35 0 52.5 -14t17.5 -43q0 -16 -8 -30t-24 -28q-16 -13 -33.5 -20t-37.5 -7q-34 0 -50.5 15t-16.5 46v1z" />
    <glyph glyph-name="endash" 
 />
  </font>
</defs>
</svg>
